<svg xmlns="http://www.w3.org/2000/svg" width="200" height="61" viewBox="0 0 200 61">
  <defs>
    <style>
      .cls-1 {
        fill: #00337f;
        fill-rule: evenodd;
      }
    </style>
  </defs>
  <path class="cls-1" d="M72.569,431.839c-0.442.7-.806,1.309-1.118,1.878,0,0.007-1.043,1.77-1.87,3.212-0.922-1.555-2.1-3.649-2.1-3.649-0.335-.581-0.4-0.688-0.8-1.338a1.439,1.439,0,0,0-.248-0.294,2.522,2.522,0,0,0-1.531-.406c-1.056,0-1.512.187-1.77,0.63a3.925,3.925,0,0,0-.363,2.268l-0.127,9.418a1.024,1.024,0,0,0,.942,1.031l1.992,0.03a1.021,1.021,0,0,0,1.108-1.017s-0.108-3.66-.112-5.675c0.162,0.3.6,1.163,0.6,1.163,0.364,0.7.68,1.393,0.991,1.968a1.586,1.586,0,0,0,1.508,1.074,1.558,1.558,0,0,0,1.5-1.067c0.3-.571.6-1.256,0.938-1.958,0,0,.348-0.753.6-1.258h0c0,0.321-.031,1.145-0.031,1.454,0,1-.093,3.373-0.136,4.216,0,0.018,0,.034,0,0.052a1.023,1.023,0,0,0,.941,1.018l1.989,0.031A1.022,1.022,0,0,0,76.59,443.6L76.6,434.98c0-.037.006-0.633,0.006-0.633,0-.031,0-0.459,0-0.459a3.377,3.377,0,0,0-.369-2.1c-0.311-.405-0.732-0.541-1.843-0.541A1.945,1.945,0,0,0,72.569,431.839Zm7.609-.3a1.024,1.024,0,0,0-.3.726l0.015,5.809c0.007,2.571-.029,4.389-0.107,5.4a1.024,1.024,0,0,0,1.013,1.1l2.241,0.017a1.024,1.024,0,0,0,1.026-1.139,21.981,21.981,0,0,1-.164-2.781v0l0.136-8.383a1.025,1.025,0,0,0-1.016-1.037l-2.111-.016A1.023,1.023,0,0,0,80.178,431.54Zm15.773,0.1c-0.837.486-1.541,1.3-2.855,2.2,0,0-.911.7-1.775,1.311,0.028-1.116.085-2.926,0.085-2.934a1.022,1.022,0,0,0-.971-1.019l-1.838-.029a1.021,1.021,0,0,0-1.078,1.006L87.4,441.4a19.2,19.2,0,0,1-.126,2.023,1.017,1.017,0,0,0,.248.8,1.028,1.028,0,0,0,.768.346h1.819a1.024,1.024,0,0,0,1.024-1s0.058-1.975.09-3.3l1.93,2.024a26.01,26.01,0,0,0,2.314,2.148,1.027,1.027,0,0,0,1.249-.023L98.1,443.3a1.016,1.016,0,0,0,.385-0.8v-0.03a1.022,1.022,0,0,0-.435-0.805,20.456,20.456,0,0,1-2.177-2.024L94.032,437.7c0.828-.592,1.753-1.354,1.753-1.354,1.251-.868,1.775-1.445,2.515-1.946a1.079,1.079,0,0,0,.5-0.814c0-.022,0-0.044,0-0.065a1.025,1.025,0,0,0-.4-0.808l-1.313-1A1.029,1.029,0,0,0,95.95,431.64Zm5.892-.1a1.021,1.021,0,0,0-.3.726l0.015,5.809c0.008,2.571-.029,4.389-0.107,5.4a1.024,1.024,0,0,0,1.014,1.1L104.7,444.6a1.023,1.023,0,0,0,1.025-1.139,21.82,21.82,0,0,1-.163-2.781v0L105.7,432.3a1.024,1.024,0,0,0-1.017-1.037l-2.111-.016A1.017,1.017,0,0,0,101.842,431.54Zm14.754,0a1.019,1.019,0,0,0-.3.724s0.008,2.267.012,3.492h-3.187c0.023-1.229.063-3.47,0.063-3.476a1.022,1.022,0,0,0-1.016-1.022l-2.111-.016a1.028,1.028,0,0,0-1.034,1.024l0.016,5.809c0.007,2.571-.029,4.389-0.107,5.4a1.022,1.022,0,0,0,1.013,1.1l2.241,0.017a1.026,1.026,0,0,0,.77-0.34,1.015,1.015,0,0,0,.262-0.682,1.131,1.131,0,0,0-.006-0.117,22.452,22.452,0,0,1-.165-2.569c0-.072,0-0.142,0-0.212,0,0,.01-0.663.017-1.27,0.983-.026,2.209-0.061,3.248-0.09-0.008,1.895-.044,3.313-0.111,4.161,0,0.027,0,.054,0,0.08a1.024,1.024,0,0,0,1.018,1.022l2.239,0.017a1.03,1.03,0,0,0,.772-0.34,1.018,1.018,0,0,0,.254-0.8,21.623,21.623,0,0,1-.163-2.78l0.135-8.38a1.023,1.023,0,0,0-1.016-1.037l-2.11-.016A1.021,1.021,0,0,0,116.6,431.54Zm19.81,6.346a5.7,5.7,0,0,0-.488-2.553,5.257,5.257,0,0,0-.551-1.038,7.1,7.1,0,0,0-2.976-2.609,7.589,7.589,0,0,0-3.249-.649,6.6,6.6,0,0,0-5.056,2.382,6.847,6.847,0,0,0-1.583,4.971,6.177,6.177,0,0,0,2.175,4.706,7.282,7.282,0,0,0,4.773,1.682,6.547,6.547,0,0,0,5.058-1.91,6.846,6.846,0,0,0,1.864-4.312,6.026,6.026,0,0,0,.033-0.67m-4.919,2.4a2.823,2.823,0,0,1-2.094.818,2.668,2.668,0,0,1-2.013-.882,2.808,2.808,0,0,1-.85-1.92,3.568,3.568,0,0,1,.734-2.528,2.5,2.5,0,0,1,1.937-1.057,2.757,2.757,0,0,1,1.627.421,3.609,3.609,0,0,1,.931.871,4,4,0,0,1,.561,2.336c0,0.025,0,.051,0,0.076A2.449,2.449,0,0,1,131.487,440.283Zm16.008-8.846a1.02,1.02,0,0,0-.3.76l0.057,1.57c0.167,4.639-.307,6.175-0.6,6.677a1.891,1.891,0,0,1-1.8.872,2.644,2.644,0,0,1-1.773-.508,1.709,1.709,0,0,1-.617-1.4c-0.043-1.2-.039-2.4.013-3.575,0,0,.151-3.463.151-3.463a1.021,1.021,0,0,0-.963-1.064l-1.969-.114a1.023,1.023,0,0,0-1.082,1.057c0.046,1.313.035,2.821-.031,4.484-0.053,1.344-.069,2.242-0.05,2.748a4.946,4.946,0,0,0,1.924,3.942,7.306,7.306,0,0,0,4.467,1.363,5.949,5.949,0,0,0,4.69-1.787c1.007-.993,1.485-2.86,1.485-5.85,0-.218,0-0.442-0.008-0.672-0.01-.426-0.015-0.831-0.015-1.212a23.286,23.286,0,0,1,.145-2.888,0.987,0.987,0,0,0,.009-0.132,1.025,1.025,0,0,0-.983-1.022l-1.983-.081a1.032,1.032,0,0,0-.766.3M149.611,443c-0.016.015-.029,0.036-0.046,0.051a1.009,1.009,0,0,0,.072-0.074A0.3,0.3,0,0,0,149.611,443Zm5.115-11.059a3.813,3.813,0,0,0-1.625,3.143c0,0.052,0,.1,0,0.152a3.369,3.369,0,0,0,1.387,2.576,9.342,9.342,0,0,0,4.106,1.6,9.146,9.146,0,0,1,3.055.927,0.405,0.405,0,0,1,.169.223,0.386,0.386,0,0,1-.147.354,3.538,3.538,0,0,1-2.131.412,12.274,12.274,0,0,1-4.484-1.318,1.015,1.015,0,0,0-1.329.518L153.052,442a1.079,1.079,0,0,0-.029.838,1.038,1.038,0,0,0,.576.593,17.255,17.255,0,0,0,6.223,1.56,6.954,6.954,0,0,0,4.293-1.317,3.826,3.826,0,0,0,1.791-3.12c0-.053,0-0.106,0-0.156-0.047-1.022-.526-2.169-2.564-3.179a18.965,18.965,0,0,0-3.673-1.106,11.158,11.158,0,0,1-2.283-.739,0.513,0.513,0,0,1-.293-0.388,0.623,0.623,0,0,1,.189-0.525,3.733,3.733,0,0,1,1.533-.4,4.87,4.87,0,0,1,1.968.195,5.223,5.223,0,0,1,1.733,1.019,1.14,1.14,0,0,0,1.319.334l1.18-.675a1.069,1.069,0,0,0,.256-1.671,7.11,7.11,0,0,0-2.738-1.862,9.967,9.967,0,0,0-3.81-.58A6.568,6.568,0,0,0,154.726,431.938Zm24.1-.747-9.542.1a1.037,1.037,0,0,0-1.013,1.057l0.031,1.717c0,0.006-.014,3.647-0.014,3.647s-0.028,2.452-.028,2.452c-0.007,1.637-.061,2.9.748,3.663,0.939,0.891,2.534.706,4.6,0.72a41.557,41.557,0,0,0,5.709-.27,1.023,1.023,0,0,0,.88-0.973l0.057-1.452a1.02,1.02,0,0,0-1.083-1.057c-1.854.107-3.746,0.166-5.621,0.177a2.58,2.58,0,0,1-1.122-.129,0.255,0.255,0,0,1-.072-0.217s-0.025-.641-0.028-1.047l6.051-.068a1.024,1.024,0,0,0,1.014-1.022c0-.013,0-0.025,0-0.037l-0.038-1.351a1.011,1.011,0,0,0-.339-0.724,1.021,1.021,0,0,0-.759-0.258c-1.161.085-3.19,0.139-5.95,0.166-0.006-.54-0.009-1-0.014-1.518q1.95-.094,6.565-0.144a1.023,1.023,0,0,0,1.014-1.022s-0.006-1.389-.006-1.389A1.021,1.021,0,0,0,178.824,431.191ZM160.791,404.3a8.659,8.659,0,0,0-2.983-2.919,11.374,11.374,0,0,0,3.089-7.844,10.047,10.047,0,0,0-.269-2.351c-0.888-3.661-3.809-6.186-8.015-6.929-9.64-1.706-16.754,5.837-17.051,6.159-1.08,1.166-.454,2.449.714,3.53s2.453,1.56,3.543.4a17.1,17.1,0,0,1,3-2.354c-0.026,2.979-.052,7-0.052,11.065,0,4.218.029,8.433,0.116,11.479a4.262,4.262,0,0,1-2.312-.976c-1.112-1.146-2.595-.756-3.639.453a3.725,3.725,0,0,0-1.059,2.054,1.8,1.8,0,0,0,.523,1.509c5.172,5.35,17.975,2.006,20.675.525a10.2,10.2,0,0,0,5.222-6.107,8.271,8.271,0,0,0,.272-2.092,10.679,10.679,0,0,0-1.778-5.6m-12.145-14.43a10.5,10.5,0,0,1,2.953.081h0c1.94,0.343,3.049,1.191,3.388,2.593a4.4,4.4,0,0,1,.12,1.037,6.231,6.231,0,0,1-1.645,3.971,11.026,11.026,0,0,1-4.881,2.672c0-.6.062-9.947,0.065-10.354m8.041,20.649a4.782,4.782,0,0,1-2.407,2.513,19.018,19.018,0,0,1-5.591,1.457c-0.056-1.959-.093-4.655-0.108-8.045a0.186,0.186,0,0,0,.023-0.008l0.055-.023c2.071-.63,5.785-1.356,7.194.92a5.112,5.112,0,0,1,.909,2.581A2.382,2.382,0,0,1,156.687,410.52ZM173.043,402a10.446,10.446,0,0,0-6.77,3.7,9.219,9.219,0,0,0-1.851,7.442,8.4,8.4,0,0,0,5.408,6.651,12.145,12.145,0,0,0,11.3-1.749c1.136-.817.706-2.013-0.155-3.093s-1.826-1.631-2.962-.814a6.857,6.857,0,0,1-6.243,1.115,3.6,3.6,0,0,1-1.215-.792c2.138-.228,6.641-1.1,9.013-4.487a5.634,5.634,0,0,0,1.165-3.242,4.082,4.082,0,0,0-.642-2.2c-1.45-2.263-4.706-2.777-7.053-2.529m-2.681,6.683a5.655,5.655,0,0,1,3.251-1.814,3.913,3.913,0,0,1,1.668-.117c0.388,0.072.2,0.507,0.074,0.68-1.212,1.587-4.046,2.03-5.536,2.172A3.928,3.928,0,0,1,170.362,408.678Zm-90.483,6.981c-0.585-.424-1.241-2.615-1.28-4.514,0-.234.008-0.463,0.018-0.683a16.28,16.28,0,0,1,.957-5.4,2.675,2.675,0,0,0,.227-0.973c0.041-1.049-.763-1.515-1.776-1.975-1.329-.6-2.669-0.6-3.289.72-0.038.082-.159,0.355-0.317,0.8a8.9,8.9,0,0,0-5.748-1.65,7.749,7.749,0,0,0-5.6,3.526c-1.979,2.784-3.508,7.13-1.863,10.979a5.67,5.67,0,0,0,4.281,3.624c4.425,0.662,7.07-.574,9.053-2.936a6.9,6.9,0,0,0,2.481,2.972c1.243,0.785,2.549.074,3.337-1.165a2.969,2.969,0,0,0,.561-1.252,1.864,1.864,0,0,0-1.045-2.07m-8.15-3.843c-1.291,3.08-2.681,3.637-4.647,3.219a1.751,1.751,0,0,1-1.168-1.31,4.6,4.6,0,0,1-.063-1.013,7.689,7.689,0,0,1,1.57-4.136,3,3,0,0,1,1.96-1.42,2.524,2.524,0,0,1,2.35,1.094,2.956,2.956,0,0,1,.391,1.692A6.226,6.226,0,0,1,71.729,411.816Zm130.382,4.144a8.949,8.949,0,0,1-1.3-4.382c0.008-.234.02-0.462,0.034-0.682a16.373,16.373,0,0,1,1.077-5.382,2.013,2.013,0,0,0,.193-0.853c0.066-1.046-.823-1.538-1.826-2.02-1.314-.631-2.558-0.65-3.208.652-0.039.08-.1,0.217-0.261,0.632a7.9,7.9,0,0,0-5.033-1.691,8.178,8.178,0,0,0-6.149,3.437,11.292,11.292,0,0,0-1.615,10.77,5.678,5.678,0,0,0,4.2,3.72c4.194,0.722,6.559-.283,8.557-2.729a5.412,5.412,0,0,0,1.972,2.721c1.225,0.811,2.331.1,3.456-.883a2.182,2.182,0,0,0,.666-1.346,2.511,2.511,0,0,0-.761-1.964m-7.977-4c-0.352,2.74-2.293,3.647-4.144,3.27a1.831,1.831,0,0,1-1.2-1.45,4.634,4.634,0,0,1-.04-1.014,6.21,6.21,0,0,1,1.318-4.037,3.879,3.879,0,0,1,2.134-1.186,1.97,1.97,0,0,1,1.777.926,2.792,2.792,0,0,1,.256,1.747C194.174,411.142,194.205,411.636,194.134,411.965ZM89.867,401.584a8.371,8.371,0,0,0-5.776,4.225c-1.69,2.754-2.224,5.4-1.59,7.858a9.165,9.165,0,0,0,4.355,5.476c3.362,1.916,8.209,2.24,11.73-2.595,0.865-1.188.06-2.336-1.131-3.2s-2.317-1.111-3.181.077c-0.915,1.257-2.287,2.52-4.774,1.1a3.908,3.908,0,0,1-1.839-2.185,5.062,5.062,0,0,1,.977-3.77c0.955-1.554,1.816-1.706,2.1-1.756a5.054,5.054,0,0,1,3.327,1.1c1.144,0.909,2.287.344,3.208-.789s1.292-2.4.162-3.324C97.069,403.513,93.777,400.927,89.867,401.584Zm-37.356-9.62-0.04,26.552c0.015,1.446.827,1.943,2.772,1.939,1.471,0,2.556-.245,2.6-1.824l-0.005-26.469c0-1.45-1.1-1.678-2.57-1.7S52.532,390.643,52.51,391.964Zm-4.551,14.271a9.313,9.313,0,0,0-3.91-4.606l0.488-.417a9.023,9.023,0,0,0,2.515-6.457,10.264,10.264,0,0,0-6.138-9.4c-8.375-4.008-17.974,3.572-18.378,3.9-1.241,1-.855,2.406.144,3.646s2.244,1.855,3.492.86a17.845,17.845,0,0,1,1.572-1.09c0.01,5.605.045,15.25,0.168,20.892a15.291,15.291,0,0,1-2.981-1.38c-1.358-.841-2.321.205-3.166,1.558s-1.255,2.511.1,3.352a25.5,25.5,0,0,0,18.849,2.643A10.934,10.934,0,0,0,47.8,414.3a9.082,9.082,0,0,0,.945-4.085,10.807,10.807,0,0,0-.788-3.983M33.543,390.213a7.548,7.548,0,0,1,4.86.356,4.6,4.6,0,0,1,2.791,3.476l0.057,0.721a3.378,3.378,0,0,1-.733,2.278C39,398.5,35.627,399.392,33.751,399.8l-0.181.018c0-.487-0.026-9.232-0.027-9.6m9.062,21.52a5.288,5.288,0,0,1-3.459,2.433,17.7,17.7,0,0,1-5.4.5c-0.055-1.972-.1-4.971-0.134-8.945l0.809-.15c3.09-.272,7.036-0.012,8.144,2.785a5.151,5.151,0,0,1,.386,1.863A3.36,3.36,0,0,1,42.605,411.733Zm76.236,2.961a69.351,69.351,0,0,1-7.148-4.593c3.742-2.438,6.9-4.214,6.943-4.238,1.283-.718,1.1-2.039.376-3.317s-1.708-2.028-2.989-1.31c-0.211.119-4.234,2.381-8.7,5.381L107.3,392.345c0-1.467-1.2-1.717-2.668-1.715s-2.662.257-2.66,1.724l0.044,26.485c0,1.466,1.2,1.7,2.668,1.695s2.662-.237,2.661-1.7l-0.009-5.4a69.252,69.252,0,0,0,8.913,5.9c1.286,0.714,2.3-.143,3.02-1.424S120.126,415.408,118.841,414.694Zm102.1-7.824c0.259-1.287-.253-1.838-1.806-2.29a5.181,5.181,0,0,0-1.319-.166c-2.352.072-5.8,0.5-7.366,3.566-0.055-2.905-.032-4.1-0.031-4.144,0.02-1.353-1.032-1.719-2.391-1.74s-2.506.309-2.527,1.662c-0.008.4,0.122,15.079,0.122,15.079,0,1.3.948,1.73,2.6,1.651,1.355-.065,2.285-0.353,2.285-1.651,0-.2.031-1.471,0-1.692,0.031-.246.045-0.511,0.06-0.659,0.736-6.65,4.6-7.573,7.332-7.593,0.66,0,.8.12,1.322,0.128C220.337,409.036,220.668,408.207,220.937,406.87Z" transform="translate(-21 -384)"/>
</svg>
