<svg xmlns="http://www.w3.org/2000/svg" width="426" height="23" viewBox="0 0 426 23">
  <defs>
    <style>
      .cls-1 {
        fill: #e60012;
        fill-rule: evenodd;
      }
    </style>
  </defs>
  <path data-name="© MIKI HOUSE Co.,Ltd. All rights reserved." class="cls-1" d="M18.77,7678.77a8.063,8.063,0,0,1,1.793-2.22,8.622,8.622,0,0,1,2.409-1.47,7.333,7.333,0,0,1,2.783-.54,6.46,6.46,0,0,1,2.64.52,5.593,5.593,0,0,1,1.991,1.47,5.743,5.743,0,0,1,1.166,2.21,6.7,6.7,0,0,1,.165,2.75,8.1,8.1,0,0,1-.935,2.78,8.422,8.422,0,0,1-4.2,3.72,7.334,7.334,0,0,1-2.783.54,6.307,6.307,0,0,1-2.64-.54,5.712,5.712,0,0,1-1.991-1.47,5.844,5.844,0,0,1-1.166-2.2,6.656,6.656,0,0,1-.165-2.74A8.1,8.1,0,0,1,18.77,7678.77Zm-2.046,6.03a6.721,6.721,0,0,0,1.419,2.57,6.855,6.855,0,0,0,2.376,1.72,7.508,7.508,0,0,0,3.1.63,8.822,8.822,0,0,0,3.267-.63,10.021,10.021,0,0,0,5.038-4.33,8.977,8.977,0,0,0,1.111-3.27,7.438,7.438,0,0,0-.209-3.22,6.643,6.643,0,0,0-3.806-4.29,7.532,7.532,0,0,0-3.091-.63,8.792,8.792,0,0,0-3.278.63,9.838,9.838,0,0,0-2.86,1.72,10.219,10.219,0,0,0-2.145,2.61,9.151,9.151,0,0,0-1.133,3.27A7.429,7.429,0,0,0,16.724,7684.8Zm11.033-1.68a3.187,3.187,0,0,1-1.177,1.59,3.291,3.291,0,0,1-2.013.65,3.1,3.1,0,0,1-1.43-.32,2.847,2.847,0,0,1-1.012-.86,3.249,3.249,0,0,1-.55-1.23,4.033,4.033,0,0,1-.044-1.46,4.979,4.979,0,0,1,.44-1.48,3.943,3.943,0,0,1,3.63-2.28,2.706,2.706,0,0,1,1.848.61,2.114,2.114,0,0,1,.748,1.54h1.232a3.635,3.635,0,0,0-.275-1.46,2.85,2.85,0,0,0-.77-1.05,3.453,3.453,0,0,0-1.166-.62,4.878,4.878,0,0,0-1.463-.21,5.647,5.647,0,0,0-2.079.37A5.285,5.285,0,0,0,22,7677.95a5.371,5.371,0,0,0-1.177,1.58,6.5,6.5,0,0,0-.616,2,5.263,5.263,0,0,0,.066,1.99,3.93,3.93,0,0,0,.77,1.59,3.806,3.806,0,0,0,1.4,1.05,4.664,4.664,0,0,0,1.969.39,4.5,4.5,0,0,0,2.761-.93,5.379,5.379,0,0,0,1.837-2.5H27.757Zm18.04-9.38H43.355l-2.2,15.58h1.584l1.911-13.46h0.044l3.72,13.46h0.836l7.524-13.46h0.044l-1.892,13.46h1.584l2.178-15.58h-2.4l-7.04,12.68Zm18.806,0H63.018l-2.2,15.58H62.4Zm5.892,0H68.91l-2.2,15.58h1.584l1.122-8.03H69.68l6.534,8.03h2.332l-7.106-8.51,8.866-7.07H78.04l-8.294,6.76h-0.22Zm13.873,0H82.783l-2.2,15.58h1.584Zm8.58,15.58h1.584l1.034-7.37h8.492l-1.034,7.37h1.584l2.2-15.58h-1.584l-0.968,6.76H95.763l0.968-6.76H95.147Zm29.724-5.22a7.809,7.809,0,0,1-1.562,2.14,7.232,7.232,0,0,1-2.222,1.47,6.794,6.794,0,0,1-2.761.55,5.768,5.768,0,0,1-2.607-.55,4.847,4.847,0,0,1-1.8-1.47,5.591,5.591,0,0,1-.968-2.14,7,7,0,0,1-.077-2.57,8.546,8.546,0,0,1,.8-2.56,7.857,7.857,0,0,1,1.562-2.15,7.611,7.611,0,0,1,2.222-1.47,6.8,6.8,0,0,1,2.761-.55,5.765,5.765,0,0,1,2.607.55,5.048,5.048,0,0,1,1.8,1.47,5.635,5.635,0,0,1,.968,2.15,6.948,6.948,0,0,1,.077,2.56A8.606,8.606,0,0,1,122.671,7684.1Zm2.354-5.85a6.6,6.6,0,0,0-1.342-2.58,6.53,6.53,0,0,0-2.332-1.71,7.7,7.7,0,0,0-3.135-.61,9.008,9.008,0,0,0-3.311.61,9.495,9.495,0,0,0-4.884,4.29,9.329,9.329,0,0,0-1.067,3.28,8.361,8.361,0,0,0,.154,3.28,6.275,6.275,0,0,0,3.663,4.29,7.707,7.707,0,0,0,3.135.62,9.016,9.016,0,0,0,3.311-.62,9.585,9.585,0,0,0,2.816-1.7,9.718,9.718,0,0,0,2.079-2.59,9.2,9.2,0,0,0,1.078-3.28A8.223,8.223,0,0,0,125.025,7678.25Zm15.691-4.51h-1.584l-1.364,9.6a6.938,6.938,0,0,1-.85,2.67,4.805,4.805,0,0,1-1.334,1.47,3.878,3.878,0,0,1-1.456.64,5.957,5.957,0,0,1-1.169.14,4.858,4.858,0,0,1-.717-0.05,3.424,3.424,0,0,1-1.677-.73,2.556,2.556,0,0,1-.694-0.87,4.034,4.034,0,0,1-.4-1.35,7.125,7.125,0,0,1,.044-1.92l1.386-9.6H129.32l-1.386,9.77a9.982,9.982,0,0,0-.055,2.06,4.768,4.768,0,0,0,.584,2.01,4,4,0,0,0,1.52,1.53,5.45,5.45,0,0,0,2.778.61,6.533,6.533,0,0,0,2.942-.61,6,6,0,0,0,1.973-1.53,6.4,6.4,0,0,0,1.158-2.01,10.5,10.5,0,0,0,.518-2.06Zm12.467,1.5a4.228,4.228,0,0,0-1.793-1.47,6.128,6.128,0,0,0-2.343-.42,7.244,7.244,0,0,0-1.892.26,5.6,5.6,0,0,0-1.727.82,5.093,5.093,0,0,0-1.331,1.38,4.664,4.664,0,0,0-.7,1.96,3.894,3.894,0,0,0,.088,1.79,2.842,2.842,0,0,0,.737,1.19,4,4,0,0,0,1.166.78,12.891,12.891,0,0,0,1.386.55c0.477,0.16.942,0.33,1.4,0.49a5,5,0,0,1,1.2.6,2.333,2.333,0,0,1,.781.9,2.356,2.356,0,0,1,.154,1.36,2.913,2.913,0,0,1-.484,1.21,3.6,3.6,0,0,1-.9.89,4.164,4.164,0,0,1-2.354.73,3.9,3.9,0,0,1-2.068-.51,3.051,3.051,0,0,1-1.21-1.38l-1.584,1.04a4.217,4.217,0,0,0,1.936,1.77,6.4,6.4,0,0,0,2.64.54,6.286,6.286,0,0,0,1.881-.31,6.738,6.738,0,0,0,1.771-.88,5.492,5.492,0,0,0,1.386-1.42,4.511,4.511,0,0,0,.726-1.9,3.815,3.815,0,0,0-.089-1.77,2.947,2.947,0,0,0-.739-1.2,4.072,4.072,0,0,0-1.17-.8c-0.449-.2-0.912-0.39-1.39-0.56s-0.945-.33-1.4-0.49a4.99,4.99,0,0,1-1.2-.6,2.294,2.294,0,0,1-.783-0.86,2.2,2.2,0,0,1-.155-1.31,2.759,2.759,0,0,1,.463-1.27,3.326,3.326,0,0,1,.9-0.88,3.778,3.778,0,0,1,1.136-.5,4.783,4.783,0,0,1,1.237-.17,2.894,2.894,0,0,1,2.8,1.52Zm4.03,6.71h7.535l0.2-1.45h-7.533l0.755-5.3h8.055l0.219-1.46h-9.658l-2.2,15.58h9.922l0.2-1.45h-8.335Zm28.985,3.98a6.262,6.262,0,0,1-1.122,1.14,6.045,6.045,0,0,1-1.2.71,5.05,5.05,0,0,1-1.232.37,6.579,6.579,0,0,1-1.243.11,5.768,5.768,0,0,1-2.607-.55,4.855,4.855,0,0,1-1.8-1.47,5.606,5.606,0,0,1-.968-2.14,7,7,0,0,1-.077-2.57,8.546,8.546,0,0,1,.8-2.56,7.878,7.878,0,0,1,1.562-2.15,7.611,7.611,0,0,1,2.222-1.47,6.8,6.8,0,0,1,2.761-.55,4.149,4.149,0,0,1,1.21.18,4.7,4.7,0,0,1,1.089.46,4.118,4.118,0,0,1,.869.66,2.7,2.7,0,0,1,.55.75l1.518-1.04a4.571,4.571,0,0,0-.99-1.12,5.629,5.629,0,0,0-1.232-.76,6.542,6.542,0,0,0-1.375-.44,7.75,7.75,0,0,0-1.441-.14,9.012,9.012,0,0,0-3.311.61,9.495,9.495,0,0,0-4.884,4.29,9.35,9.35,0,0,0-1.067,3.28,8.361,8.361,0,0,0,.154,3.28,6.275,6.275,0,0,0,3.663,4.29,7.707,7.707,0,0,0,3.135.62,8.216,8.216,0,0,0,1.87-.22,8.688,8.688,0,0,0,1.705-.61,7.806,7.806,0,0,0,1.463-.91,7.7,7.7,0,0,0,1.144-1.12Zm12.01-.15a4.611,4.611,0,0,1-.957,1.3,4.741,4.741,0,0,1-1.342.87,4.291,4.291,0,0,1-1.661.31,3.668,3.668,0,0,1-1.573-.31,3.165,3.165,0,0,1-1.1-.87,3.219,3.219,0,0,1-.594-1.3,4.369,4.369,0,0,1-.033-1.61,5.408,5.408,0,0,1,.506-1.6,4.736,4.736,0,0,1,.946-1.3,4.2,4.2,0,0,1,1.331-.87,4.294,4.294,0,0,1,1.661-.32,3.667,3.667,0,0,1,1.573.32,2.951,2.951,0,0,1,1.1.87,3.331,3.331,0,0,1,.6,1.3,4.164,4.164,0,0,1,.044,1.6A5.47,5.47,0,0,1,198.208,7685.78Zm1.98-3.76a4.16,4.16,0,0,0-2.464-2.85,5.432,5.432,0,0,0-2.156-.41,6.245,6.245,0,0,0-4.125,1.54,6.378,6.378,0,0,0-1.375,1.72,6.037,6.037,0,0,0-.7,2.15,5.282,5.282,0,0,0,.088,2.16,4.215,4.215,0,0,0,2.464,2.85,5.374,5.374,0,0,0,2.134.4,6.357,6.357,0,0,0,2.277-.4,6.04,6.04,0,0,0,1.892-1.14,6.146,6.146,0,0,0,1.364-1.71,6.5,6.5,0,0,0,.715-2.16A5.482,5.482,0,0,0,200.188,7682.02Zm4.253,5.42a0.98,0.98,0,0,0-.814-0.36,1.253,1.253,0,0,0-.9.36,1.413,1.413,0,0,0-.44.82,1.07,1.07,0,0,0,.209.83,0.948,0.948,0,0,0,.8.36,1.292,1.292,0,0,0,.913-0.36,1.394,1.394,0,0,0,.451-0.83A1.04,1.04,0,0,0,204.441,7687.44Zm5.982-.21h-1.782l-2.2,5.17h1.474Zm7.33-13.49h-1.584l-2.2,15.58h8.844l0.2-1.45h-7.26Zm13.213,5.28H228l0.39-2.9H226.94l-0.4,2.9h-2.178l-0.2,1.32h2.178l-0.9,6.49a3.035,3.035,0,0,0,.044,1.39,2.023,2.023,0,0,0,.506.84,1.729,1.729,0,0,0,.759.41,3.114,3.114,0,0,0,.847.11,5.125,5.125,0,0,0,2.024-.37l0.11-1.34a3.631,3.631,0,0,1-.753.28,2.7,2.7,0,0,1-.775.11,2.266,2.266,0,0,1-.6-0.07,0.861,0.861,0,0,1-.437-0.28,1.126,1.126,0,0,1-.218-0.56,3.177,3.177,0,0,1,.032-0.93l0.824-6.08h2.962Zm2.554,3.55a4.65,4.65,0,0,1,.957-1.3,4.345,4.345,0,0,1,1.342-.87,4.294,4.294,0,0,1,1.661-.32,3.913,3.913,0,0,1,1.595.32,3.256,3.256,0,0,1,1.188.87,3.348,3.348,0,0,1,.682,1.3,3.742,3.742,0,0,1,.077,1.6,4.922,4.922,0,0,1-.539,1.61,4.73,4.73,0,0,1-1.034,1.3,5.2,5.2,0,0,1-1.43.87,4.561,4.561,0,0,1-1.683.31,3.745,3.745,0,0,1-1.584-.31,3.143,3.143,0,0,1-1.111-.87,3.219,3.219,0,0,1-.594-1.3,4.369,4.369,0,0,1-.033-1.61A5.408,5.408,0,0,1,233.52,7682.57Zm10.494-9.88h-1.452l-1.122,8.05H241.4a3.231,3.231,0,0,0-.715-0.9,4.147,4.147,0,0,0-1.969-.97,5.641,5.641,0,0,0-1.056-.11,6.246,6.246,0,0,0-4.147,1.54,6.378,6.378,0,0,0-1.375,1.72,6.056,6.056,0,0,0-.7,2.15,5.282,5.282,0,0,0,.088,2.16,4.215,4.215,0,0,0,2.464,2.85,5.436,5.436,0,0,0,2.156.4,5.211,5.211,0,0,0,1.078-.11,5.539,5.539,0,0,0,1.144-.35,5.672,5.672,0,0,0,1.1-.61,4.9,4.9,0,0,0,.968-0.91h0.044l-0.242,1.72h1.452Zm3.347,14.75a0.98,0.98,0,0,0-.814-0.36,1.253,1.253,0,0,0-.9.36,1.413,1.413,0,0,0-.44.82,1.07,1.07,0,0,0,.209.83,0.948,0.948,0,0,0,.8.36,1.292,1.292,0,0,0,.913-0.36,1.394,1.394,0,0,0,.451-0.83A1.04,1.04,0,0,0,247.361,7687.44Zm17.974-11.85,2.2,8.19h-6.754Zm-5.346,9.64h7.964l1.144,4.09h1.848l-4.576-15.58h-1.54l-8.976,15.58H257.7Zm16.836-12.54h-1.452l-2.332,16.63h1.452Zm5.23,0H280.6l-2.332,16.63h1.452Zm7.876,16.63h1.452l0.827-5.81a3.581,3.581,0,0,1,.34-1.1,4.277,4.277,0,0,1,.735-1.06,3.794,3.794,0,0,1,1.1-.82,3.272,3.272,0,0,1,1.47-.32,2.315,2.315,0,0,1,.812.11l0.5-1.43a3.844,3.844,0,0,0-1.074-.13,3.746,3.746,0,0,0-1.239.19,4.109,4.109,0,0,0-2.334,1.99h-0.044l0.269-1.92H291.3q-0.132,1.125-.209,1.83c-0.052.47-.107,0.93-0.165,1.39Zm11.316-15.01a0.909,0.909,0,0,0-.682-0.3,1.222,1.222,0,0,0-.77.3,1.128,1.128,0,0,0-.44.75,0.855,0.855,0,0,0,.22.76,0.911,0.911,0,0,0,.682.3,1.22,1.22,0,0,0,.77-0.3,1.123,1.123,0,0,0,.44-0.76A0.841,0.841,0,0,0,301.247,7674.31Zm-0.66,4.71h-1.452l-1.452,10.3h1.452Zm4.319,3.49a4.8,4.8,0,0,1,.99-1.25,4.734,4.734,0,0,1,1.331-.86,3.908,3.908,0,0,1,1.551-.32,3.744,3.744,0,0,1,1.584.32,3.011,3.011,0,0,1,1.111.86,3.072,3.072,0,0,1,.594,1.25,4.254,4.254,0,0,1,.055,1.53,4.06,4.06,0,0,1-.506,1.63,4.618,4.618,0,0,1-2.409,2.04,4.174,4.174,0,0,1-1.551.29,3.306,3.306,0,0,1-1.463-.32,3.21,3.21,0,0,1-1.716-2.11,3.913,3.913,0,0,1-.077-1.53A4.362,4.362,0,0,1,304.906,7682.51Zm-3.058,10.02a5.621,5.621,0,0,0,4.664,2.07,6.994,6.994,0,0,0,2.893-.53,5.575,5.575,0,0,0,1.87-1.32,5.182,5.182,0,0,0,1.056-1.74,9.722,9.722,0,0,0,.473-1.78l1.43-10.21h-1.452l-0.242,1.72H312.5a4.276,4.276,0,0,0-.825-0.98,4.034,4.034,0,0,0-1.925-.91,5.537,5.537,0,0,0-.968-0.09,5.748,5.748,0,0,0-2.156.41,5.948,5.948,0,0,0-1.8,1.13,6.7,6.7,0,0,0-1.331,1.69,5.966,5.966,0,0,0-.693,2.09,4.918,4.918,0,0,0,.132,2.09,4.268,4.268,0,0,0,.913,1.67,4.345,4.345,0,0,0,1.551,1.08,5.041,5.041,0,0,0,2.046.4,5.839,5.839,0,0,0,2.2-.44,4.665,4.665,0,0,0,1.914-1.5h0.044l-0.242,1.85a6.984,6.984,0,0,1-.44,1.58,3.894,3.894,0,0,1-.858,1.28,3.85,3.85,0,0,1-1.364.87,5.291,5.291,0,0,1-1.914.32,4.521,4.521,0,0,1-2.211-.52,3.652,3.652,0,0,1-1.463-1.37Zm14.43-3.21h1.452l0.748-5.28a5.094,5.094,0,0,1,.748-2.2,4.341,4.341,0,0,1,1.166-1.19,3.186,3.186,0,0,1,1.133-.48,5.687,5.687,0,0,1,.627-0.09,3.277,3.277,0,0,1,1.32.23,1.64,1.64,0,0,1,.759.68,2.618,2.618,0,0,1,.3,1.11,7.059,7.059,0,0,1-.088,1.52l-0.792,5.7H325.1l0.924-6.53a3.9,3.9,0,0,0-.539-2.98,3.3,3.3,0,0,0-2.783-1.05,4.3,4.3,0,0,0-1.045.14,5.4,5.4,0,0,0-1.034.4,5.46,5.46,0,0,0-.924.6,4.068,4.068,0,0,0-.715.77H318.94l1.122-7.98H318.61Zm18.823-10.3h-2.964l0.39-2.9h-1.452l-0.4,2.9H328.5l-0.2,1.32h2.178l-0.9,6.49a3.021,3.021,0,0,0,.044,1.39,2.023,2.023,0,0,0,.506.84,1.729,1.729,0,0,0,.759.41,3.114,3.114,0,0,0,.847.11,5.128,5.128,0,0,0,2.024-.37l0.11-1.34a3.631,3.631,0,0,1-.753.28,2.7,2.7,0,0,1-.775.11,2.269,2.269,0,0,1-.6-0.07,0.858,0.858,0,0,1-.436-0.28,1.126,1.126,0,0,1-.218-0.56,3.177,3.177,0,0,1,.032-0.93l0.824-6.08H334.9Zm9.031,1.59a2.436,2.436,0,0,0-1.243-1.43,4.42,4.42,0,0,0-1.947-.42,5.444,5.444,0,0,0-1.441.19,4.336,4.336,0,0,0-1.3.56,3.291,3.291,0,0,0-.979.97,3.2,3.2,0,0,0-.506,1.38,2.027,2.027,0,0,0,.133,1.22,2.361,2.361,0,0,0,.629.81,2.968,2.968,0,0,0,.806.46c0.28,0.1.509,0.17,0.685,0.22l1.37,0.33c0.265,0.07.512,0.15,0.74,0.23a1.957,1.957,0,0,1,.585.31,1.048,1.048,0,0,1,.354.45,1.324,1.324,0,0,1,.066.66,1.655,1.655,0,0,1-.32.77,2.044,2.044,0,0,1-.63.54,3.117,3.117,0,0,1-.827.31,4.58,4.58,0,0,1-.894.09,2.707,2.707,0,0,1-1.534-.41,2.948,2.948,0,0,1-.96-1.13l-1.391.86a3.3,3.3,0,0,0,1.529,1.55,4.98,4.98,0,0,0,2.145.45,6.366,6.366,0,0,0,1.5-.17,4.755,4.755,0,0,0,1.364-.56,3.73,3.73,0,0,0,1.045-.99,3.425,3.425,0,0,0,.561-1.44,2.246,2.246,0,0,0-.464-1.84,2.977,2.977,0,0,0-1.657-.98l-1.436-.35a4.363,4.363,0,0,1-1.457-.57,1.01,1.01,0,0,1-.354-1.06,1.428,1.428,0,0,1,.3-0.7,2.078,2.078,0,0,1,.563-0.48,2.828,2.828,0,0,1,.729-0.27,3.5,3.5,0,0,1,.773-0.09,2.155,2.155,0,0,1,1.292.37,2.218,2.218,0,0,1,.739,1.02Zm8.1,8.71h1.452l0.827-5.81a3.581,3.581,0,0,1,.34-1.1,4.277,4.277,0,0,1,.735-1.06,3.807,3.807,0,0,1,1.1-.82,3.278,3.278,0,0,1,1.47-.32,2.311,2.311,0,0,1,.812.11l0.5-1.43a3.844,3.844,0,0,0-1.074-.13,3.736,3.736,0,0,0-1.238.19,4.108,4.108,0,0,0-2.335,1.99h-0.044l0.269-1.92h-1.452q-0.132,1.125-.209,1.83c-0.052.47-.107,0.93-0.165,1.39Zm9.013-5.94a2.985,2.985,0,0,1,.475-1.23,4.565,4.565,0,0,1,.949-1.06,4.518,4.518,0,0,1,1.258-.73,3.656,3.656,0,0,1,1.4-.28,2.878,2.878,0,0,1,2.339.91,2.988,2.988,0,0,1,.552,2.39h-6.974Zm8.382,1.19,0.11-.66a5.424,5.424,0,0,0-.055-1.99,4.085,4.085,0,0,0-.737-1.63,3.8,3.8,0,0,0-1.4-1.11,4.625,4.625,0,0,0-2.035-.42,5.557,5.557,0,0,0-2.1.41,6.149,6.149,0,0,0-1.8,1.13,6.425,6.425,0,0,0-1.342,1.72,6.183,6.183,0,0,0-.693,2.15,5.282,5.282,0,0,0,.088,2.16,4.3,4.3,0,0,0,.88,1.71,4.177,4.177,0,0,0,1.529,1.14,5.024,5.024,0,0,0,2.057.4,6.173,6.173,0,0,0,2.464-.5,6.827,6.827,0,0,0,2.266-1.67l-0.992-.93a4.834,4.834,0,0,1-1.457,1.25,4.178,4.178,0,0,1-2.095.53,3.36,3.36,0,0,1-1.4-.28,3.054,3.054,0,0,1-1.059-.78,3.312,3.312,0,0,1-.65-1.18,3.941,3.941,0,0,1-.177-1.45h8.6Zm10.164-3.96a2.43,2.43,0,0,0-1.243-1.43,4.414,4.414,0,0,0-1.947-.42,5.449,5.449,0,0,0-1.441.19,4.358,4.358,0,0,0-1.3.56,3.3,3.3,0,0,0-.979.97,3.217,3.217,0,0,0-.506,1.38,2.035,2.035,0,0,0,.133,1.22,2.385,2.385,0,0,0,.629.81,2.958,2.958,0,0,0,.807.46c0.28,0.1.508,0.17,0.685,0.22L376,7684.9c0.265,0.07.512,0.15,0.74,0.23a1.975,1.975,0,0,1,.586.31,1.053,1.053,0,0,1,.353.45,1.3,1.3,0,0,1,.066.66,1.655,1.655,0,0,1-.32.77,2.04,2.04,0,0,1-.629.54,3.124,3.124,0,0,1-.828.31,4.572,4.572,0,0,1-.894.09,2.71,2.71,0,0,1-1.534-.41,2.948,2.948,0,0,1-.96-1.13l-1.391.86a3.3,3.3,0,0,0,1.529,1.55,4.98,4.98,0,0,0,2.145.45,6.354,6.354,0,0,0,1.5-.17,4.732,4.732,0,0,0,1.364-.56,3.717,3.717,0,0,0,1.045-.99,3.425,3.425,0,0,0,.561-1.44,2.242,2.242,0,0,0-.464-1.84,2.971,2.971,0,0,0-1.656-.98l-1.436-.35a4.361,4.361,0,0,1-1.458-.57,1.014,1.014,0,0,1-.354-1.06,1.437,1.437,0,0,1,.3-0.7,2.094,2.094,0,0,1,.563-0.48,2.828,2.828,0,0,1,.729-0.27,3.5,3.5,0,0,1,.773-0.09,2.152,2.152,0,0,1,1.292.37,2.227,2.227,0,0,1,.74,1.02Zm3.443,2.77a2.985,2.985,0,0,1,.475-1.23,4.565,4.565,0,0,1,.949-1.06,4.518,4.518,0,0,1,1.258-.73,3.656,3.656,0,0,1,1.4-.28,2.878,2.878,0,0,1,2.339.91,2.988,2.988,0,0,1,.552,2.39H383.23Zm8.382,1.19,0.11-.66a5.424,5.424,0,0,0-.055-1.99,4.085,4.085,0,0,0-.737-1.63,3.8,3.8,0,0,0-1.4-1.11,4.625,4.625,0,0,0-2.035-.42,5.557,5.557,0,0,0-2.1.41,6.149,6.149,0,0,0-1.8,1.13,6.425,6.425,0,0,0-1.342,1.72,6.183,6.183,0,0,0-.693,2.15,5.282,5.282,0,0,0,.088,2.16,4.3,4.3,0,0,0,.88,1.71,4.177,4.177,0,0,0,1.529,1.14,5.024,5.024,0,0,0,2.057.4,6.173,6.173,0,0,0,2.464-.5,6.827,6.827,0,0,0,2.266-1.67l-0.992-.93a4.834,4.834,0,0,1-1.457,1.25,4.178,4.178,0,0,1-2.095.53,3.352,3.352,0,0,1-1.4-.28,3.049,3.049,0,0,1-1.06-.78,3.312,3.312,0,0,1-.65-1.18,3.941,3.941,0,0,1-.177-1.45h8.6Zm2.26,4.75h1.452l0.827-5.81a3.581,3.581,0,0,1,.34-1.1,4.277,4.277,0,0,1,.735-1.06,3.794,3.794,0,0,1,1.1-.82,3.272,3.272,0,0,1,1.47-.32,2.315,2.315,0,0,1,.812.11l0.5-1.43a3.844,3.844,0,0,0-1.074-.13,3.746,3.746,0,0,0-1.239.19,4.109,4.109,0,0,0-2.334,1.99h-0.044l0.269-1.92h-1.452q-0.132,1.125-.209,1.83c-0.052.47-.107,0.93-0.165,1.39Zm18.357-10.3h-1.651l-4.509,8.67h-0.044l-2.068-8.67h-1.716l2.728,10.3H406.6Zm2.129,4.36a3,3,0,0,1,.474-1.23,4.593,4.593,0,0,1,.95-1.06,4.526,4.526,0,0,1,1.257-.73,3.664,3.664,0,0,1,1.4-.28,2.878,2.878,0,0,1,2.339.91,2.988,2.988,0,0,1,.552,2.39h-6.974Zm8.382,1.19,0.11-.66a5.446,5.446,0,0,0-.055-1.99,4.085,4.085,0,0,0-.737-1.63,3.811,3.811,0,0,0-1.4-1.11,4.628,4.628,0,0,0-2.035-.42,5.553,5.553,0,0,0-2.1.41,6.136,6.136,0,0,0-1.8,1.13,6.4,6.4,0,0,0-1.342,1.72,6.183,6.183,0,0,0-.693,2.15,5.282,5.282,0,0,0,.088,2.16,4.285,4.285,0,0,0,.88,1.71,4.169,4.169,0,0,0,1.529,1.14,5.02,5.02,0,0,0,2.057.4,6.173,6.173,0,0,0,2.464-.5,6.837,6.837,0,0,0,2.266-1.67l-0.993-.93a4.829,4.829,0,0,1-1.456,1.25,4.179,4.179,0,0,1-2.1.53,3.356,3.356,0,0,1-1.4-.28,3.054,3.054,0,0,1-1.059-.78,3.314,3.314,0,0,1-.651-1.18,3.941,3.941,0,0,1-.176-1.45h8.6Zm4.352-2a4.611,4.611,0,0,1,.957-1.3,4.3,4.3,0,0,1,3-1.19,3.919,3.919,0,0,1,1.595.32,3.273,3.273,0,0,1,1.188.87,3.375,3.375,0,0,1,.682,1.3,3.757,3.757,0,0,1,.077,1.6,4.945,4.945,0,0,1-.539,1.61,4.748,4.748,0,0,1-1.034,1.3,5.21,5.21,0,0,1-1.43.87,4.568,4.568,0,0,1-1.683.31,3.738,3.738,0,0,1-1.584-.31,3.134,3.134,0,0,1-1.111-.87,3.219,3.219,0,0,1-.594-1.3,4.369,4.369,0,0,1-.033-1.61A5.379,5.379,0,0,1,427.092,7682.57Zm10.494-9.88h-1.452l-1.122,8.05h-0.044a3.249,3.249,0,0,0-.715-0.9,4.147,4.147,0,0,0-1.969-.97,5.658,5.658,0,0,0-1.056-.11,6.246,6.246,0,0,0-4.147,1.54,6.359,6.359,0,0,0-1.375,1.72,6.017,6.017,0,0,0-.7,2.15,5.265,5.265,0,0,0,.088,2.16,4.215,4.215,0,0,0,2.464,2.85,5.429,5.429,0,0,0,2.156.4,5.224,5.224,0,0,0,1.078-.11,5.577,5.577,0,0,0,1.144-.35,5.7,5.7,0,0,0,1.1-.61,4.929,4.929,0,0,0,.968-0.91h0.044l-0.242,1.72h1.452Zm3.348,14.75a0.98,0.98,0,0,0-.814-0.36,1.253,1.253,0,0,0-.9.36,1.419,1.419,0,0,0-.44.82,1.074,1.074,0,0,0,.209.83,0.948,0.948,0,0,0,.8.36,1.292,1.292,0,0,0,.913-0.36,1.389,1.389,0,0,0,.451-0.83A1.04,1.04,0,0,0,440.934,7687.44Z" transform="translate(-16 -7672)"/>
</svg>
