<svg xmlns="http://www.w3.org/2000/svg" width="240" height="61" viewBox="0 0 240 61">
  <defs>
    <style>
      .cls-1 {
        fill: #102a8d;
      }

      .cls-1, .cls-2 {
        fill-rule: evenodd;
      }
      .cls-2 {
        fill: #e60012;
      }
    </style>
  </defs>
  <path class="cls-1" d="M202.741,420.585c4.921,0.349,5.217-5.92,5.217-5.92l3.74-.019v11.559H190.086l-0.044-5.526,2.6-.035-0.019-24.419h-2.535l-0.044-4.788,21.072,0.017v9.728s-3.522.006-3.522,0c-1.059-5.191-4.885-4.957-4.885-4.957L199.4,396.2l0.018,8.988h8.632l0,4.937-8.651.02,0.016,10.47,3.333-.026M163.8,391.446l11.184,0.028-0.016,4.67-2.363.029L172.6,420.679l4.557-.035s3.818,0.459,4.27-5.758c0.014-.131.079-0.114,0.079-0.114l3.947,0.04,0,11.366H163.833v-5.5l2.551-.048,0.025-24.451h-2.582Zm-63.761.073,10.816-.01v4.716l-2.316-.015v17.4s0.069,7.256,6.269,7.256c5.906,0,6.572-4.927,6.876-6.165,0.29-1.259.142-14.974,0.142-18.416a12.488,12.488,0,0,0-2.125-.079v-4.691h10.282v4.717h-2.008l0.034,18.049s-0.177,13.052-12.963,13.015h-0.4s-11.046.334-12.1-12.779c-0.24-2.028-.089-18.3-0.089-18.3h-2.42v-4.7Zm132.734,34.686V420.67h-12.26v5.535h12.26Zm-194.254-.3s16.932-1.737,15.264-19.419C52.672,394.642,41.414,392.4,41.414,392.4a36.581,36.581,0,0,0-6.824-.821v5.016c9.308,0.358,13.033,7.5,12.754,12.044-0.877,14.253-16.036,12.217-16.036,12.217l0.02-24.37a20.353,20.353,0,0,1,3.262.109v-5.016C29.037,391.465,22,391.519,22,391.519v4.934l2.676,0.028,0.035,24.437L22,420.934l0.019,5.257S33.119,426.4,38.523,425.908ZM77.219,390h-0.08v5.97h0.08a12.391,12.391,0,1,1-.08,0V390A18.4,18.4,0,1,0,77.219,390Zm81.066,25.6a9.665,9.665,0,0,0-5.449-8.118l0.012-.227s3.878-1.861,3.778-7.295c-0.086-5.275-3.507-7.991-6.925-8.4-0.9-.105-2.791-0.08-5.123-0.094v4.7a5.575,5.575,0,0,0,1-.017c0.04,0.081,4.417-.345,4.417,4.278,0,4.746-3.749,4.865-3.749,4.865h-3.738l-0.019-9.143s1.063,0.011,2.085.017v-4.7c-4.943-.041-11.282-0.019-11.282-0.019v4.7l2.543,0.011v24.284h-2.513l0.024,5.744,11.807,0.008V420.4l-2.624-.023,0.007-10.27s3.385-.062,3.42.026,5.576-.176,5.576,5.267a5.166,5.166,0,0,1-3.476,4.753,8.754,8.754,0,0,1-2.187.272l-0.716-.025v5.787l2.334-.088S158.892,426.712,158.285,415.6Zm103.7,0a9.662,9.662,0,0,0-5.463-8.118l0.026-.227s3.875-1.861,3.786-7.295c-0.1-5.275-3.519-7.991-6.94-8.4-0.9-.105-2.784-0.08-5.116-0.094v4.7a5.314,5.314,0,0,0,1-.017c0.051,0.081,4.428-.345,4.428,4.278,0,4.746-3.761,4.865-3.761,4.865h-3.726l-0.022-9.143s1.067,0.011,2.086.017v-4.7c-4.957-.041-11.291-0.019-11.291-0.019v4.7l2.549,0.011v24.284h-2.517l0.035,5.744,11.783,0.008V420.4l-2.612-.023,0.015-10.27s3.382-.062,3.419.026,5.567-.176,5.567,5.267a5.145,5.145,0,0,1-3.466,4.753,8.781,8.781,0,0,1-2.187.272l-0.736-.025v5.787l2.353-.088S262.572,426.712,261.98,415.6Z" transform="translate(-22 -390)"/>
  <path class="cls-2" d="M189.977,432.832l-1.582,3.645a5.105,5.105,0,0,0-3.265-.11c-0.2.09-.792,0.712,0.219,1.479,2.186,1.664,3.453,2.841,3.7,3.021a5.487,5.487,0,0,1,1.48,5.673c-0.822,3.2-6.25,5.729-11.784,2.564-0.049-.029,1.616-3.546,1.616-3.546a5.528,5.528,0,0,0,4.792.289,0.979,0.979,0,0,0,.293-1.492c-0.56-.85-3.938-2.55-5.42-4.826a5.091,5.091,0,0,1,1.078-6.224C183.121,431.5,186.957,431.14,189.977,432.832Zm-21.547,4.191h-5.045s-3.59,11.69,2.892,13.448a6.651,6.651,0,0,0,5.648-1.457l0.081,0.061,0.014,1.5,5.4-.01-0.154-13.58-5.367.028,0.1,7.442s0.086,1.812-2.041,1.523c-0.872-.125-2.026-1.585-1.826-5.307A24.352,24.352,0,0,1,168.43,437.023ZM132.5,432.256h5.195v5.5L137.8,437.8s4.5-3.286,7.628,1.131c2.415,3.388.059,11.648,0.059,11.648l-5.075,0a16.876,16.876,0,0,0,.692-6.818c-0.085-1.453-1.984-3.486-3.246-1.5a3.764,3.764,0,0,0-.164,1.418l0.006,6.9-5.214.009Zm-10.558,5.39h5.15v12.935h-5.134Zm-15.56-5.39h5.361v5.549l0.069,0.014,5.215-6.4,4.02,3.666-5.019,5.8,0,0.076,5.194,6.419-4.13,3.628-5.228-7-0.107.024,0.007,6.538h-5.387Zm-26.293,0h6.331l1.344,6.624h0.059l1.485-6.629h6.4l2.668,18.316-5.848,0-0.753-7.5H91.665l-1.538,7.5H85.672l-1.55-7.486L84,443.069l-0.663,7.5H77.522Zm21.969,4.792a2.914,2.914,0,1,0-2.885-2.915A2.9,2.9,0,0,0,102.054,437.048Zm22.38-.042a2.914,2.914,0,1,0-2.886-2.92A2.9,2.9,0,0,0,124.434,437.006Zm-19.792,13.565V437.642H99.451v12.929h5.191ZM154.4,436.347c-0.09,0-.188.006-0.269,0.006v4.754a1.525,1.525,0,0,1,.269-0.02,2.282,2.282,0,1,1-.269.02v-4.754A7.018,7.018,0,1,0,154.4,436.347Zm44.9,9.979-0.19-.075,7.425-4.686a6.915,6.915,0,0,0-7.28-5.416c-0.122.007-.249,0.011-0.375,0.022v4.053a1.828,1.828,0,0,1,2.058.4l-3.676,2.281s-0.087.042-.09,0a2.683,2.683,0,0,1,1.022-2.388,4.254,4.254,0,0,1,.686-0.294v-4.053a7.044,7.044,0,0,0-6.5,7.4c0.006,6.084,7.046,9.445,13.944,5.575,0.021-.012-1.512-3.682-1.512-3.682A7.79,7.79,0,0,1,199.3,446.326Z" transform="translate(-22 -390)"/>
</svg>
