<svg xmlns="http://www.w3.org/2000/svg" width="15" height="15" viewBox="0 0 15 15">
  <defs>
    <style>
      .cls-2 {
        fill: #e60012;
        fill-rule: evenodd;
      }
    </style>
  </defs>
  <path class="cls-2" d="M288.563,51h1.59l2.265,8.606a0.552,0.552,0,0,0,.537.39h6.959a0.556,0.556,0,0,0,.508-0.317l2.533-5.944a0.511,0.511,0,0,0-.047-0.5,0.555,0.555,0,0,0-.462-0.238h-7.693a0.5,0.5,0,1,0-.031,1l6.925,0-2.107,5h-6.173l-2.262-8.6a0.551,0.551,0,0,0-.536-0.39h-2.006a0.511,0.511,0,0,0-.561.473,0.489,0.489,0,0,0,.454.523C288.492,51,288.528,51,288.563,51Zm4.066,13A1.507,1.507,0,1,0,291,62.5,1.569,1.569,0,0,0,292.629,64Zm8,0A1.507,1.507,0,1,0,299,62.5,1.569,1.569,0,0,0,300.629,64ZM8487,63.982m-16383,0M291,8247m0-16383M8487,63.982m-16383,0" transform="translate(-288 -49)"/>
</svg>
