<svg xmlns="http://www.w3.org/2000/svg" width="14" height="12" viewBox="0 0 14 12">
  <defs>
    <style>
      .cls-2 {
        fill: #fff;
        stroke: #fff;
        stroke-width: 0.5px;
        fill-rule: evenodd;
      }
    </style>
  </defs>
  <path class="cls-2" d="M289.444,85.814h1.273l1.813,6.016a0.441,0.441,0,0,0,.43.3h5.573a0.448,0.448,0,0,0,.407-0.244l2.028-4.278a0.38,0.38,0,0,0-.037-0.387,0.451,0.451,0,0,0-.37-0.183H294.4a0.409,0.409,0,1,0,0,.815h5.477l-1.643,3.463h-4.944L291.479,85.3a0.439,0.439,0,0,0-.429-0.3h-1.606A0.409,0.409,0,1,0,289.444,85.814ZM292.538,95a0.927,0.927,0,1,0-1.007-.924A0.968,0.968,0,0,0,292.538,95Zm6.291,0H298.9a1.039,1.039,0,0,0,.689-0.319A0.875,0.875,0,0,0,299.836,94a0.984,0.984,0,0,0-1.073-.856,0.956,0.956,0,0,0-.933.985A0.977,0.977,0,0,0,298.829,95Z" transform="translate(-288 -84)"/>
</svg>
