<svg xmlns="http://www.w3.org/2000/svg" width="13" height="10" viewBox="0 0 13 10">
  <defs>
    <style>
      .cls-2 {
        fill: #fff;
        stroke: #fff;
        stroke-width: 0.5px;
        fill-rule: evenodd;
      }
    </style>
  </defs>
  <path class="cls-2" d="M267.8,90.186l-2.662-2.6V85.95a0.308,0.308,0,0,0-.313-0.3h0a0.3,0.3,0,0,0-.3.3h0v1.037L262.694,85.2a0.3,0.3,0,0,0-.212-0.1,0.313,0.313,0,0,0-.221.094l-5.1,4.955a0.291,0.291,0,0,0,0,.419,0.31,0.31,0,0,0,.43,0h0l4.888-4.737,4.874,4.785a0.309,0.309,0,0,0,.222.078,0.349,0.349,0,0,0,.22-0.078A0.306,0.306,0,0,0,267.8,90.186Zm-1.563.095a0.3,0.3,0,0,0-.312.293V94.3h-2.095l0-1.744a0.3,0.3,0,0,0-.3-0.3h-2.08a0.313,0.313,0,0,0-.318.3l0,1.744h-2.093V90.56a0.307,0.307,0,0,0-.609,0v4.046a0.3,0.3,0,0,0,.3.293h2.721a0.3,0.3,0,0,0,.3-0.293l0-1.744h1.468l0,1.744a0.3,0.3,0,0,0,.31.293h2.709a0.3,0.3,0,0,0,.3-0.293V90.584a0.3,0.3,0,0,0-.3-0.3h0Z" transform="translate(-256 -85)"/>
</svg>
