<svg xmlns="http://www.w3.org/2000/svg" width="16" height="15" viewBox="0 0 16 15">
  <defs>
    <style>
      .cls-2 {
        fill: #e60012;
        fill-rule: evenodd;
      }
    </style>
  </defs>
  <path class="cls-2" d="M271.829,56.778l-3.918-3.971V50.3a0.462,0.462,0,0,0-.461-0.463h-0.006A0.451,0.451,0,0,0,267,50.3v1.588l-2.693-2.734A0.437,0.437,0,0,0,264,49a0.451,0.451,0,0,0-.326.144l-7.5,7.575a0.457,0.457,0,0,0,0,.641,0.444,0.444,0,0,0,.633,0h0l7.2-7.242,7.173,7.315a0.444,0.444,0,0,0,.326.119,0.5,0.5,0,0,0,.325-0.119A0.482,0.482,0,0,0,271.829,56.778Zm-2.3.145a0.454,0.454,0,0,0-.459.449v5.7h-3.083l0-2.666a0.456,0.456,0,0,0-.443-0.455h-3.062a0.466,0.466,0,0,0-.467.455l0,2.666h-3.08V57.35a0.45,0.45,0,0,0-.9,0v6.186a0.449,0.449,0,0,0,.443.448h4.006a0.448,0.448,0,0,0,.442-0.448l0-2.666h2.161l0,2.666a0.452,0.452,0,0,0,.456.448h3.988a0.45,0.45,0,0,0,.443-0.448V57.387a0.452,0.452,0,0,0-.439-0.464h-0.008Z" transform="translate(-256 -49)"/>
</svg>
