<svg xmlns="http://www.w3.org/2000/svg" width="15" height="11" viewBox="0 0 15 11">
  <defs>
    <style>
      .cls-1 {
        fill: #e60012;
        fill-rule: evenodd;
      }
    </style>
  </defs>
  <path class="cls-1" d="M334.5,53H320.51a0.51,0.51,0,0,0-.508.513v9.974a0.51,0.51,0,0,0,.508.513H334.5a0.511,0.511,0,0,0,.509-0.513V53.509A0.511,0.511,0,0,0,334.5,53Zm-0.509,9.974H321.019V54.022h12.969v8.948Zm-11.636-6.531,4.885,3.035a0.5,0.5,0,0,0,.533,0l4.885-3.035a0.516,0.516,0,0,0,.166-0.706,0.506,0.506,0,0,0-.7-0.167L327.5,58.434l-4.618-2.869a0.506,0.506,0,0,0-.7.167A0.516,0.516,0,0,0,322.352,56.438Z" transform="translate(-320 -53)"/>
</svg>
