<svg xmlns="http://www.w3.org/2000/svg" width="144" height="18" viewBox="0 0 144 18">
  <defs>
    <style>
      .cls-2 {
        fill: #252525;
        fill-rule: evenodd;
      }
    </style>
  </defs>
  <path class="cls-2" d="M1585.71,34.185a0.147,0.147,0,0,1-.13-0.088l-1.17-2.9h-5.54l-1.15,2.9a0.161,0.161,0,0,1-.14.089h-1.9a0.146,0.146,0,0,1-.12-0.065,0.16,0.16,0,0,1-.01-0.135l5.31-12.079a0.136,0.136,0,0,1,.13-0.084h1.48a0.159,0.159,0,0,1,.13.086l5.15,12.079a0.158,0.158,0,0,1-.01.134,0.145,0.145,0,0,1-.12.064h-1.91Zm-2.01-4.7-2.05-5.069-2.09,5.069h4.14Zm10.14,4.908a3.913,3.913,0,0,1-1.65-.371,3.227,3.227,0,0,1-1.05-.766v0.791a0.139,0.139,0,0,1-.14.142h-1.53a0.139,0.139,0,0,1-.14-0.142v-12.9a0.139,0.139,0,0,1,.14-0.142H1591a0.139,0.139,0,0,1,.14.142v5.592a3.112,3.112,0,0,1,1.01-.748,3.9,3.9,0,0,1,1.69-.38,4.448,4.448,0,0,1,1.75.334,3.936,3.936,0,0,1,2.19,2.326,4.9,4.9,0,0,1,.3,1.73,4.829,4.829,0,0,1-.3,1.722,4.076,4.076,0,0,1-.85,1.4,3.9,3.9,0,0,1-1.34.938A4.43,4.43,0,0,1,1593.84,34.39Zm-0.19-7.063a2.6,2.6,0,0,0-1.04.2,2.3,2.3,0,0,0-.79.546,2.516,2.516,0,0,0-.5.839,3.368,3.368,0,0,0,0,2.173,2.5,2.5,0,0,0,.5.838,2.3,2.3,0,0,0,.79.547,2.6,2.6,0,0,0,1.04.2,2.634,2.634,0,0,0,1.05-.2,2.317,2.317,0,0,0,.79-0.547,2.5,2.5,0,0,0,.5-0.838,3.368,3.368,0,0,0,0-2.173,2.516,2.516,0,0,0-.5-0.839,2.313,2.313,0,0,0-.79-0.546A2.634,2.634,0,0,0,1593.65,27.327Zm10.6,7.063a4.421,4.421,0,0,1-1.74-.344,4.327,4.327,0,0,1-1.4-.934,4.217,4.217,0,0,1-.94-1.393,4.316,4.316,0,0,1-.35-1.72,4.256,4.256,0,0,1,.35-1.711,4.479,4.479,0,0,1,5.82-2.335,4.4,4.4,0,0,1,1.4.943,4.3,4.3,0,0,1,.94,1.393,4.256,4.256,0,0,1,.35,1.711,4.316,4.316,0,0,1-.35,1.72,4.159,4.159,0,0,1-.94,1.393,4.375,4.375,0,0,1-1.4.934A4.421,4.421,0,0,1,1604.25,34.39Zm0-7.063a2.617,2.617,0,0,0-1.05.2,2.4,2.4,0,0,0-.79.546,2.341,2.341,0,0,0-.49.839,3.368,3.368,0,0,0,0,2.173,2.329,2.329,0,0,0,.49.838,2.4,2.4,0,0,0,.79.547,2.617,2.617,0,0,0,1.05.2,2.669,2.669,0,0,0,1.05-.2,2.275,2.275,0,0,0,.78-0.547,2.348,2.348,0,0,0,.5-0.838,3.368,3.368,0,0,0,0-2.173,2.361,2.361,0,0,0-.5-0.839,2.271,2.271,0,0,0-.78-0.546A2.669,2.669,0,0,0,1604.25,27.327Zm9.59,7.063a3.644,3.644,0,0,1-1.17-.187,2.679,2.679,0,0,1-.98-0.585,2.889,2.889,0,0,1-.67-1.015,3.946,3.946,0,0,1-.25-1.443v-5.2a0.148,0.148,0,0,1,.15-0.142h1.53a0.146,0.146,0,0,1,.14.142v4.777a2.7,2.7,0,0,0,.14.912,1.627,1.627,0,0,0,.38.6,1.343,1.343,0,0,0,.53.324,1.963,1.963,0,0,0,.64.1,2.407,2.407,0,0,0,.84-0.145,1.7,1.7,0,0,0,.66-0.45,2.168,2.168,0,0,0,.44-0.793,3.684,3.684,0,0,0,.17-1.166V25.957a0.14,0.14,0,0,1,.14-0.142h1.53a0.14,0.14,0,0,1,.14.142v8.086a0.139,0.139,0,0,1-.14.142h-1.53a0.139,0.139,0,0,1-.14-0.142V33.261a2.69,2.69,0,0,1-.83.71A3.505,3.505,0,0,1,1613.84,34.39Zm10.55,0a3.124,3.124,0,0,1-1.43-.264,1.767,1.767,0,0,1-.77-0.693,2.142,2.142,0,0,1-.29-0.939c-0.03-.329-0.05-0.66-0.05-0.994V27.429h-1.62a0.148,0.148,0,0,1-.15-0.142v-1.33a0.148,0.148,0,0,1,.15-0.142h1.62V23.687a0.146,0.146,0,0,1,.14-0.142h1.54a0.146,0.146,0,0,1,.14.142v2.128h2.05a0.14,0.14,0,0,1,.14.142v1.33a0.139,0.139,0,0,1-.14.142h-2.05v3.526c0,0.225,0,.447.01,0.667a1.547,1.547,0,0,0,.12.549,0.8,0.8,0,0,0,.29.364,1.039,1.039,0,0,0,.59.137,3.133,3.133,0,0,0,.54-0.05,1.455,1.455,0,0,0,.48-0.171,0.141,0.141,0,0,1,.14,0,0.13,0.13,0,0,1,.07.123v1.4a0.149,0.149,0,0,1-.07.124,2.14,2.14,0,0,1-.76.231A5.343,5.343,0,0,1,1624.39,34.39Zm20.03-.2a0.146,0.146,0,0,1-.14-0.142v-4.5a6.093,6.093,0,0,0-.06-0.867,1.878,1.878,0,0,0-.22-0.7,1.386,1.386,0,0,0-.48-0.468,2.027,2.027,0,0,0-2.29.444,2.881,2.881,0,0,0-.46,1.676v4.419a0.139,0.139,0,0,1-.14.142h-1.53a0.139,0.139,0,0,1-.14-0.142V29.812a8.231,8.231,0,0,0-.06-1.04,2.435,2.435,0,0,0-.22-0.781,1.2,1.2,0,0,0-.46-0.488,1.594,1.594,0,0,0-.82-0.177,1.836,1.836,0,0,0-.73.151,1.751,1.751,0,0,0-.63.45,2.424,2.424,0,0,0-.43.779,3.822,3.822,0,0,0-.16,1.14v4.2a0.139,0.139,0,0,1-.14.142h-1.53a0.139,0.139,0,0,1-.14-0.142V25.957a0.14,0.14,0,0,1,.14-0.142h1.43a0.14,0.14,0,0,1,.14.142v0.8a0.259,0.259,0,0,1,.05-0.059,2.919,2.919,0,0,1,.57-0.513,3.605,3.605,0,0,1,.81-0.41,3.141,3.141,0,0,1,1.05-.169,2.962,2.962,0,0,1,1.58.4,2.766,2.766,0,0,1,.93.96,2.817,2.817,0,0,1,1.04-.965,3.27,3.27,0,0,1,1.51-.391,3.507,3.507,0,0,1,1.6.322,2.611,2.611,0,0,1,.99.858,3.4,3.4,0,0,1,.49,1.195,7.419,7.419,0,0,1,.13,1.349v4.709a0.146,0.146,0,0,1-.14.142h-1.54Zm4.76,0a0.139,0.139,0,0,1-.14-0.142V25.957a0.14,0.14,0,0,1,.14-0.142h1.53a0.14,0.14,0,0,1,.14.142v8.086a0.139,0.139,0,0,1-.14.142h-1.53Zm0.77-9.861a1.234,1.234,0,0,1-.9-0.373,1.258,1.258,0,0,1-.37-0.895,1.224,1.224,0,0,1,.38-0.894,1.2,1.2,0,0,1,.89-0.374,1.229,1.229,0,0,1,.89.374,1.265,1.265,0,0,1,0,1.788A1.225,1.225,0,0,1,1649.95,24.324Zm9.98,9.861a0.156,0.156,0,0,1-.11-0.047l-3.49-3.919v3.824a0.146,0.146,0,0,1-.14.142h-1.53a0.148,0.148,0,0,1-.15-0.142v-12.9a0.148,0.148,0,0,1,.15-0.142h1.53a0.146,0.146,0,0,1,.14.142v7.981l3.22-3.253a0.164,0.164,0,0,1,.11-0.042h2.12a0.136,0.136,0,0,1,.13.088,0.148,0.148,0,0,1-.03.156l-3.66,3.571,3.99,4.3a0.127,0.127,0,0,1,.02.154,0.135,0.135,0,0,1-.13.085h-2.17Zm4.52,0a0.139,0.139,0,0,1-.14-0.142V25.957a0.14,0.14,0,0,1,.14-0.142h1.53a0.14,0.14,0,0,1,.14.142v8.086a0.139,0.139,0,0,1-.14.142h-1.53Zm0.77-9.861a1.234,1.234,0,0,1-.9-0.373,1.258,1.258,0,0,1-.37-0.895,1.224,1.224,0,0,1,.38-0.894,1.2,1.2,0,0,1,.89-0.374,1.229,1.229,0,0,1,.89.374,1.265,1.265,0,0,1,0,1.788A1.225,1.225,0,0,1,1665.22,24.324Zm9.98,9.861a0.139,0.139,0,0,1-.14-0.142V29.266a2.486,2.486,0,0,0-.15-0.913,1.632,1.632,0,0,0-.37-0.6,1.43,1.43,0,0,0-.53-0.326,2.1,2.1,0,0,0-.65-0.1,2.309,2.309,0,0,0-.83.145,1.728,1.728,0,0,0-.66.449,2.213,2.213,0,0,0-.45.793,3.683,3.683,0,0,0-.16,1.166v4.163a0.139,0.139,0,0,1-.14.142h-1.53a0.148,0.148,0,0,1-.15-0.142v-12.9a0.148,0.148,0,0,1,.15-0.142h1.53a0.139,0.139,0,0,1,.14.142v5.591a2.6,2.6,0,0,1,.83-0.709,3.439,3.439,0,0,1,1.71-.418,3.68,3.68,0,0,1,1.16.185,2.627,2.627,0,0,1,.99.586,2.79,2.79,0,0,1,.67,1.014,3.757,3.757,0,0,1,.25,1.445v5.2a0.139,0.139,0,0,1-.14.142h-1.53Zm8.23,0.2a4.421,4.421,0,0,1-1.74-.344,4.359,4.359,0,0,1-1.4-.934,4.179,4.179,0,0,1-.94-1.393A4.309,4.309,0,0,1,1679,30a4.249,4.249,0,0,1,.35-1.711,4.479,4.479,0,0,1,5.82-2.335,4.408,4.408,0,0,1,2.34,2.335,4.249,4.249,0,0,1,.35,1.711,4.309,4.309,0,0,1-.35,1.72,4.217,4.217,0,0,1-.94,1.393A4.425,4.425,0,0,1,1683.43,34.39Zm0-7.063a2.634,2.634,0,0,0-1.05.2,2.414,2.414,0,0,0-.79.546,2.358,2.358,0,0,0-.49.839,3.368,3.368,0,0,0,0,2.173,2.336,2.336,0,0,0,.49.838,2.418,2.418,0,0,0,.79.547,2.831,2.831,0,0,0,2.1,0,2.262,2.262,0,0,0,.78-0.547,2.348,2.348,0,0,0,.5-0.838,3.368,3.368,0,0,0,0-2.173,2.361,2.361,0,0,0-.5-0.839,2.258,2.258,0,0,0-.78-0.546A2.651,2.651,0,0,0,1683.43,27.327Zm9.93,7.063a3.644,3.644,0,0,1-1.17-.187,2.679,2.679,0,0,1-.98-0.585,2.889,2.889,0,0,1-.67-1.015,3.946,3.946,0,0,1-.25-1.443v-5.2a0.148,0.148,0,0,1,.15-0.142h1.53a0.146,0.146,0,0,1,.14.142v4.777a2.7,2.7,0,0,0,.14.912,1.627,1.627,0,0,0,.38.6,1.343,1.343,0,0,0,.53.324,1.963,1.963,0,0,0,.64.1,2.407,2.407,0,0,0,.84-0.145,1.7,1.7,0,0,0,.66-0.45,2.168,2.168,0,0,0,.44-0.793,3.684,3.684,0,0,0,.17-1.166V25.957a0.14,0.14,0,0,1,.14-0.142h1.53a0.14,0.14,0,0,1,.14.142v8.086a0.139,0.139,0,0,1-.14.142h-1.53a0.139,0.139,0,0,1-.14-0.142V33.261a2.69,2.69,0,0,1-.83.71A3.505,3.505,0,0,1,1693.36,34.39Zm10.19,0a4.856,4.856,0,0,1-1.82-.316,3.357,3.357,0,0,1-1.41-1.175,0.155,0.155,0,0,1,.02-0.193l1.16-.956a0.154,0.154,0,0,1,.09-0.032,0.139,0.139,0,0,1,.1.041,4.5,4.5,0,0,0,.81.646,1.918,1.918,0,0,0,1.05.269,2.94,2.94,0,0,0,.56-0.057,1.7,1.7,0,0,0,.48-0.173,0.94,0.94,0,0,0,.33-0.284,0.593,0.593,0,0,0,.12-0.367,0.628,0.628,0,0,0-.18-0.464,1.3,1.3,0,0,0-.46-0.318,3.588,3.588,0,0,0-.6-0.2c-0.22-.05-0.42-0.093-0.59-0.127-0.34-.081-0.65-0.173-0.95-0.277a2.886,2.886,0,0,1-.82-0.43,2,2,0,0,1-.59-0.7,2.532,2.532,0,0,1,.07-2.209,2.484,2.484,0,0,1,.73-0.823,3.344,3.344,0,0,1,1.03-.481,4.358,4.358,0,0,1,1.16-.158,4.189,4.189,0,0,1,1.61.317,2.616,2.616,0,0,1,1.26,1.081,0.149,0.149,0,0,1-.03.188l-1.19.9a0.161,0.161,0,0,1-.09.028,0.147,0.147,0,0,1-.11-0.053,2.212,2.212,0,0,0-.63-0.537,1.826,1.826,0,0,0-.91-0.212,1.7,1.7,0,0,0-.87.212,0.581,0.581,0,0,0-.33.551,0.638,0.638,0,0,0,.18.476,1.878,1.878,0,0,0,.51.331,2.885,2.885,0,0,0,.64.2l0.61,0.121a6.667,6.667,0,0,1,.95.3,2.593,2.593,0,0,1,.79.468,1.93,1.93,0,0,1,.53.714,2.4,2.4,0,0,1,.19,1.014,2.355,2.355,0,0,1-.31,1.242,2.576,2.576,0,0,1-.79.839,3.336,3.336,0,0,1-1.09.464A5.371,5.371,0,0,1,1703.55,34.39Zm9.64,0a4.581,4.581,0,0,1-1.78-.335,3.905,3.905,0,0,1-1.36-.93,3.974,3.974,0,0,1-.85-1.395,4.9,4.9,0,0,1-.3-1.731,4.7,4.7,0,0,1,.32-1.734,4.4,4.4,0,0,1,.9-1.394,4.167,4.167,0,0,1,1.36-.928,4.454,4.454,0,0,1,1.73-.334,4.118,4.118,0,0,1,1.87.39,3.639,3.639,0,0,1,1.26,1.02,4.078,4.078,0,0,1,.72,1.413,6.06,6.06,0,0,1,.22,1.584v0.546a0.148,0.148,0,0,1-.15.142h-6.31a1.92,1.92,0,0,0,.21.755,2.245,2.245,0,0,0,.56.7,2.768,2.768,0,0,0,.83.453,2.962,2.962,0,0,0,.97.163,2.167,2.167,0,0,0,1.17-.311,3.8,3.8,0,0,0,.93-0.848,0.144,0.144,0,0,1,.11-0.053,0.164,0.164,0,0,1,.09.029l1.16,0.887a0.119,0.119,0,0,1,.05.094,0.137,0.137,0,0,1-.03.106A4.39,4.39,0,0,1,1713.19,34.39Zm2.16-5.2a3.447,3.447,0,0,0-.14-0.751,1.944,1.944,0,0,0-.41-0.691,1.861,1.861,0,0,0-.67-0.46,2.5,2.5,0,0,0-.96-0.169,2.318,2.318,0,0,0-.97.2,2.379,2.379,0,0,0-.74.522,2.293,2.293,0,0,0-.48.717,2.12,2.12,0,0,0-.16.629h4.53Z" transform="translate(-1575 -21)"/>
</svg>
