<svg xmlns="http://www.w3.org/2000/svg" width="64" height="18" viewBox="0 0 64 18">
  <defs>
    <style>
      .cls-2 {
        fill: #252525;
        fill-rule: evenodd;
      }
    </style>
  </defs>
  <path class="cls-2" d="M1769.71,35.492a6.1,6.1,0,0,1-2.64-.56,6.412,6.412,0,0,1-2-1.465,6.511,6.511,0,0,1-1.69-4.361,7.3,7.3,0,0,1,.47-2.636,6.276,6.276,0,0,1,1.31-2.094A5.95,5.95,0,0,1,1767.19,23a6.772,6.772,0,0,1,2.61-.488,6.4,6.4,0,0,1,2.39.47,4.559,4.559,0,0,1,1.94,1.462,0.129,0.129,0,0,1,.02.1,0.119,0.119,0,0,1-.05.094l-1.36,1.041a0.163,0.163,0,0,1-.09.029,0.141,0.141,0,0,1-.11-0.056,3.208,3.208,0,0,0-1.24-.981,3.718,3.718,0,0,0-1.56-.345,4.2,4.2,0,0,0-1.78.37,4.027,4.027,0,0,0-1.36,1.014,4.637,4.637,0,0,0-.89,1.515,5.47,5.47,0,0,0-.31,1.871,5.131,5.131,0,0,0,.3,1.76,4.282,4.282,0,0,0,.85,1.454,3.97,3.97,0,0,0,1.37.99,4.41,4.41,0,0,0,1.82.363,3.643,3.643,0,0,0,1.76-.41,3.8,3.8,0,0,0,1.28-1.152,0.124,0.124,0,0,1,.09-0.058l0.02,0a0.171,0.171,0,0,1,.09.029l1.37,1.041a0.132,0.132,0,0,1,.03.2,4.459,4.459,0,0,1-.49.553,4.752,4.752,0,0,1-.92.721,6.54,6.54,0,0,1-1.39.629A5.958,5.958,0,0,1,1769.71,35.492Zm10.46-.1a4.425,4.425,0,0,1-3.14-1.278,4.217,4.217,0,0,1-.94-1.393,4.316,4.316,0,0,1-.35-1.72,4.256,4.256,0,0,1,.35-1.711,4.479,4.479,0,0,1,5.82-2.335,4.4,4.4,0,0,1,1.4.943,4.3,4.3,0,0,1,.94,1.393A4.256,4.256,0,0,1,1784.6,31a4.316,4.316,0,0,1-.35,1.72,4.159,4.159,0,0,1-.94,1.393,4.375,4.375,0,0,1-1.4.934A4.421,4.421,0,0,1,1780.17,35.39Zm0-7.063a2.617,2.617,0,0,0-1.05.2,2.4,2.4,0,0,0-.79.546,2.341,2.341,0,0,0-.49.839,3.368,3.368,0,0,0,0,2.173,2.329,2.329,0,0,0,.49.838,2.4,2.4,0,0,0,.79.547,2.831,2.831,0,0,0,2.1,0,2.275,2.275,0,0,0,.78-0.547,2.348,2.348,0,0,0,.5-0.838,3.368,3.368,0,0,0,0-2.173,2.361,2.361,0,0,0-.5-0.839,2.271,2.271,0,0,0-.78-0.546A2.634,2.634,0,0,0,1780.17,28.327Zm12.01,6.859a0.148,0.148,0,0,1-.15-0.142V30.266a2.708,2.708,0,0,0-.14-0.913,1.615,1.615,0,0,0-.37-0.6,1.5,1.5,0,0,0-.54-0.326,1.992,1.992,0,0,0-.64-0.1,2.4,2.4,0,0,0-.84.145,1.674,1.674,0,0,0-.65.449,1.966,1.966,0,0,0-.45.793,3.683,3.683,0,0,0-.16,1.166v4.163a0.148,0.148,0,0,1-.15.142h-1.53a0.139,0.139,0,0,1-.14-0.142V26.957a0.14,0.14,0,0,1,.14-0.142h1.53a0.148,0.148,0,0,1,.15.142v0.78a2.559,2.559,0,0,1,.82-0.709,3.505,3.505,0,0,1,1.72-.418,3.68,3.68,0,0,1,1.16.185,2.652,2.652,0,0,1,.99.586,2.887,2.887,0,0,1,.67,1.014,3.948,3.948,0,0,1,.25,1.445v5.2a0.146,0.146,0,0,1-.14.142h-1.53Zm7.76,0.2a3.2,3.2,0,0,1-1.44-.264,1.886,1.886,0,0,1-.77-0.693,2.282,2.282,0,0,1-.29-0.939c-0.03-.329-0.04-0.66-0.04-0.994V28.429h-1.63a0.139,0.139,0,0,1-.14-0.142v-1.33a0.14,0.14,0,0,1,.14-0.142h1.63V24.687a0.139,0.139,0,0,1,.14-0.142h1.53a0.139,0.139,0,0,1,.14.142v2.128h2.06a0.146,0.146,0,0,1,.14.142v1.33a0.146,0.146,0,0,1-.14.142h-2.06v3.526c0,0.225.01,0.447,0.02,0.667a1.547,1.547,0,0,0,.12.549,0.8,0.8,0,0,0,.29.364,1.017,1.017,0,0,0,.59.137,2.938,2.938,0,0,0,.53-0.05,1.511,1.511,0,0,0,.49-0.171,0.12,0.12,0,0,1,.07-0.019,0.179,0.179,0,0,1,.07.019,0.151,0.151,0,0,1,.07.123v1.4a0.149,0.149,0,0,1-.07.124,2.14,2.14,0,0,1-.76.231A5.645,5.645,0,0,1,1799.94,35.39Zm6.17,0a3.813,3.813,0,0,1-1.11-.16,2.783,2.783,0,0,1-.94-0.486,2.275,2.275,0,0,1-.64-0.807,2.463,2.463,0,0,1-.24-1.112,2.537,2.537,0,0,1,.37-1.392,2.8,2.8,0,0,1,1.01-.909,4.719,4.719,0,0,1,1.45-.493,10.036,10.036,0,0,1,1.75-.147h0.98v-0.2a1.426,1.426,0,0,0-.11-0.564,1.458,1.458,0,0,0-.33-0.508,1.49,1.49,0,0,0-.54-0.359,2.142,2.142,0,0,0-.8-0.134,3.016,3.016,0,0,0-.74.081,3.515,3.515,0,0,0-.58.2,2.432,2.432,0,0,0-.46.282c-0.15.115-.29,0.224-0.43,0.326a0.118,0.118,0,0,1-.08.027,0.16,0.16,0,0,1-.11-0.043l-0.91-.956a0.134,0.134,0,0,1-.04-0.1,0.128,0.128,0,0,1,.04-0.1,4.387,4.387,0,0,1,1.55-.925,5.256,5.256,0,0,1,1.75-.306,4.746,4.746,0,0,1,1.56.229,3.206,3.206,0,0,1,1.1.626,2.515,2.515,0,0,1,.64.912,2.994,2.994,0,0,1,.2,1.069v4.129c0,0.282.01,0.541,0.02,0.778s0.03,0.461.05,0.674a0.142,0.142,0,0,1-.03.11,0.156,0.156,0,0,1-.11.047h-1.36a0.146,0.146,0,0,1-.14-0.13c-0.03-.284-0.04-0.569-0.05-0.854a2.842,2.842,0,0,1-1.04.852A4.009,4.009,0,0,1,1806.11,35.39Zm1.96-4.095a10.51,10.51,0,0,0-1.1.059,4.113,4.113,0,0,0-1,.223,1.833,1.833,0,0,0-.72.443,0.944,0.944,0,0,0-.25.686,0.972,0.972,0,0,0,.4.887,2.167,2.167,0,0,0,1.19.285,2.357,2.357,0,0,0,1.01-.2,1.847,1.847,0,0,0,.66-0.514,2.1,2.1,0,0,0,.37-0.71,3.122,3.122,0,0,0,.11-0.789V31.3h-0.67Zm8.84,4.095a4.758,4.758,0,0,1-1.76-.316,4.038,4.038,0,0,1-1.38-.894,3.909,3.909,0,0,1-.9-1.379,4.783,4.783,0,0,1-.32-1.767,4.855,4.855,0,0,1,.32-1.775,4.118,4.118,0,0,1,.89-1.4,4.05,4.05,0,0,1,1.37-.91,4.692,4.692,0,0,1,1.78-.326,4.767,4.767,0,0,1,1.74.325,3.874,3.874,0,0,1,1.46,1,0.133,0.133,0,0,1,.04.1,0.178,0.178,0,0,1-.05.1l-1.16,1.058a0.121,0.121,0,0,1-.09.037,0.122,0.122,0,0,1-.1-0.043,3.074,3.074,0,0,0-.86-0.646,2.353,2.353,0,0,0-1.05-.216,2.324,2.324,0,0,0-1.03.216,2.193,2.193,0,0,0-.74.592,2.844,2.844,0,0,0-.45.876,3.6,3.6,0,0,0-.15,1.041,3.082,3.082,0,0,0,.17,1.016,2.648,2.648,0,0,0,.5.832,2.337,2.337,0,0,0,1.79.757,2.338,2.338,0,0,0,1.04-.216,2.739,2.739,0,0,0,.81-0.641,0.126,0.126,0,0,1,.1-0.048h0a0.127,0.127,0,0,1,.1.041l1.09,1.092a0.147,0.147,0,0,1,.01.2,3.568,3.568,0,0,1-1.45.994A4.964,4.964,0,0,1,1816.91,35.39Zm8.57,0a3.124,3.124,0,0,1-1.43-.264,1.763,1.763,0,0,1-.77-0.694,2.136,2.136,0,0,1-.3-0.938c-0.02-.329-0.04-0.66-0.04-0.994V28.429h-1.63a0.146,0.146,0,0,1-.14-0.142v-1.33a0.146,0.146,0,0,1,.14-0.142h1.63V24.687a0.146,0.146,0,0,1,.14-0.142h1.53a0.139,0.139,0,0,1,.14.142v2.128h2.06a0.14,0.14,0,0,1,.14.142v1.33a0.139,0.139,0,0,1-.14.142h-2.06v3.526c0,0.224.01,0.447,0.02,0.666a1.577,1.577,0,0,0,.12.55,0.8,0.8,0,0,0,.29.364,1.039,1.039,0,0,0,.59.137,3.133,3.133,0,0,0,.54-0.05,1.54,1.54,0,0,0,.48-0.171,0.12,0.12,0,0,1,.07-0.019,0.145,0.145,0,0,1,.07.019,0.151,0.151,0,0,1,.07.123v1.4a0.151,0.151,0,0,1-.07.124,2.161,2.161,0,0,1-.76.231A5.645,5.645,0,0,1,1825.48,35.39Z" transform="translate(-1763 -21)"/>
</svg>
