<svg xmlns="http://www.w3.org/2000/svg" width="170" height="18" viewBox="0 0 170 18">
  <defs>
    <style>
      .cls-2 {
        fill: #252525;
        fill-rule: evenodd;
      }
    </style>
  </defs>
  <path class="cls-2" d="M1365.14,34.979a0.138,0.138,0,0,1-.14-0.14v-11.9a0.138,0.138,0,0,1,.14-0.14h4.23a5.214,5.214,0,0,1,1.96.322,3.434,3.434,0,0,1,1.23.826,2.75,2.75,0,0,1,.63,1.131,4.021,4.021,0,0,1,0,2.379,2.737,2.737,0,0,1-.63,1.132,3.438,3.438,0,0,1-1.23.827,5.144,5.144,0,0,1-1.96.322h-2.46v5.1a0.138,0.138,0,0,1-.14.14h-1.63Zm3.77-6.937a5.81,5.81,0,0,0,.92-0.073,2.39,2.39,0,0,0,.79-0.262,1.351,1.351,0,0,0,.53-0.528,2.182,2.182,0,0,0,0-1.825,1.346,1.346,0,0,0-.53-0.528,2.39,2.39,0,0,0-.79-0.262,5.7,5.7,0,0,0-.92-0.074h-2v3.553h2Zm5.69,6.937a0.145,0.145,0,0,1-.14-0.14V26.871a0.145,0.145,0,0,1,.14-0.14h1.53a0.138,0.138,0,0,1,.14.14V27.65c0.07-.079.13-0.156,0.2-0.23a2.89,2.89,0,0,1,.6-0.468,3.1,3.1,0,0,1,.72-0.308,2.827,2.827,0,0,1,.79-0.115,2.273,2.273,0,0,1,.72.107,0.147,0.147,0,0,1,.1.139l-0.07,1.631a0.141,0.141,0,0,1-.05.107,0.17,0.17,0,0,1-.09.027,0.314,0.314,0,0,1-.04,0q-0.18-.049-0.36-0.081a1.882,1.882,0,0,0-.35-0.032,2.142,2.142,0,0,0-1.61.579,2.59,2.59,0,0,0-.56,1.837v4a0.138,0.138,0,0,1-.14.14h-1.53Zm9.62,0.2a4.641,4.641,0,0,1-1.78-.33,3.921,3.921,0,0,1-1.36-.916,4.2,4.2,0,0,1-.85-1.374,4.759,4.759,0,0,1-.3-1.705,4.385,4.385,0,0,1,.33-1.708,4.061,4.061,0,0,1,2.26-2.288,4.426,4.426,0,0,1,1.72-.329,4.17,4.17,0,0,1,1.87.384,3.723,3.723,0,0,1,1.26,1.005,3.994,3.994,0,0,1,.72,1.393,5.884,5.884,0,0,1,.21,1.56V31.41a0.138,0.138,0,0,1-.14.14h-6.31a1.862,1.862,0,0,0,.21.744,2.247,2.247,0,0,0,.57.689,2.611,2.611,0,0,0,.82.446,3,3,0,0,0,.97.16,2.192,2.192,0,0,0,1.17-.306,3.784,3.784,0,0,0,.93-0.835,0.145,0.145,0,0,1,.11-0.052,0.166,0.166,0,0,1,.09.029l1.15,0.874a0.169,0.169,0,0,1,.06.093,0.19,0.19,0,0,1-.03.1A4.416,4.416,0,0,1,1384.22,35.18Zm2.16-5.122a3.322,3.322,0,0,0-.14-0.739,1.9,1.9,0,0,0-.41-0.682,1.872,1.872,0,0,0-.67-0.453,2.535,2.535,0,0,0-.96-0.166,2.343,2.343,0,0,0-1.71.713,2.671,2.671,0,0,0-.48.707,2.064,2.064,0,0,0-.16.62h4.53Zm7.81,8.954a6.9,6.9,0,0,1-2.16-.326,5.3,5.3,0,0,1-1.87-1.139,0.132,0.132,0,0,1-.02-0.191l1.04-1.278a0.122,0.122,0,0,1,.1-0.052h0.01a0.122,0.122,0,0,1,.1.045,4.285,4.285,0,0,0,1.25.935,3.584,3.584,0,0,0,1.52.315,3.4,3.4,0,0,0,1.35-.233,2.162,2.162,0,0,0,.84-0.593,2.026,2.026,0,0,0,.44-0.828,3.531,3.531,0,0,0,.13-0.964V33.89a2.609,2.609,0,0,1-1.04.832,3.972,3.972,0,0,1-1.65.356,4.449,4.449,0,0,1-1.7-.322,4.061,4.061,0,0,1-1.34-.888,3.969,3.969,0,0,1-.88-1.341,4.4,4.4,0,0,1-.32-1.674,4.709,4.709,0,0,1,.3-1.688,4.172,4.172,0,0,1,.85-1.383,3.912,3.912,0,0,1,1.34-.924,4.488,4.488,0,0,1,1.75-.33,3.994,3.994,0,0,1,1.65.365,3.183,3.183,0,0,1,1.04.756V26.871a0.147,0.147,0,0,1,.15-0.14h1.52a0.147,0.147,0,0,1,.15.14v7.9a4.32,4.32,0,0,1-.33,1.71,4.072,4.072,0,0,1-.92,1.341,4.255,4.255,0,0,1-1.45.88A5.279,5.279,0,0,1,1394.19,39.013Zm0.22-10.792a2.654,2.654,0,0,0-1.04.2,2.315,2.315,0,0,0-.79.538,2.481,2.481,0,0,0-.5.827,3.33,3.33,0,0,0-.17,1.07,2.523,2.523,0,0,0,.67,1.844,2.789,2.789,0,0,0,3.67,0,2.525,2.525,0,0,0,.67-1.844,3.338,3.338,0,0,0-.17-1.07,2.472,2.472,0,0,0-.5-0.827,2.315,2.315,0,0,0-.79-0.538A2.669,2.669,0,0,0,1394.41,28.221Zm12.65,6.758a0.147,0.147,0,0,1-.15-0.14V30.132a2.416,2.416,0,0,0-.14-0.9,1.6,1.6,0,0,0-.37-0.588,1.475,1.475,0,0,0-.54-0.321,2.019,2.019,0,0,0-.64-0.1,2.339,2.339,0,0,0-.83.143,1.73,1.73,0,0,0-.66.442,2.174,2.174,0,0,0-.45.781,3.58,3.58,0,0,0-.16,1.149v4.1a0.138,0.138,0,0,1-.14.14h-1.53a0.138,0.138,0,0,1-.14-0.14V26.871a0.138,0.138,0,0,1,.14-0.14h1.53a0.138,0.138,0,0,1,.14.14V27.64a2.589,2.589,0,0,1,.83-0.7,3.48,3.48,0,0,1,1.71-.412,3.73,3.73,0,0,1,1.16.183,2.732,2.732,0,0,1,.99.577,2.862,2.862,0,0,1,.67,1,3.843,3.843,0,0,1,.25,1.423v5.127a0.145,0.145,0,0,1-.14.14h-1.53Zm6.33,0.2a3.918,3.918,0,0,1-1.11-.157,2.82,2.82,0,0,1-.94-0.479,2.363,2.363,0,0,1-.64-0.795,2.726,2.726,0,0,1,.14-2.467,2.751,2.751,0,0,1,1-.9,4.789,4.789,0,0,1,1.45-.486,10.178,10.178,0,0,1,1.75-.145h0.98v-0.2a1.584,1.584,0,0,0-.11-0.555,1.444,1.444,0,0,0-.33-0.5,1.52,1.52,0,0,0-.54-0.353,2.17,2.17,0,0,0-.8-0.132,3.06,3.06,0,0,0-.74.08,3.137,3.137,0,0,0-.57.2,2.428,2.428,0,0,0-.47.278l-0.43.321a0.115,0.115,0,0,1-.08.028,0.123,0.123,0,0,1-.1-0.043l-0.92-.941a0.131,0.131,0,0,1-.04-0.1,0.135,0.135,0,0,1,.05-0.1,4.446,4.446,0,0,1,1.54-.912,5.327,5.327,0,0,1,1.75-.3,4.81,4.81,0,0,1,1.56.226,3.218,3.218,0,0,1,1.1.617,2.6,2.6,0,0,1,.64.9,2.9,2.9,0,0,1,.2,1.052v4.068c0,0.278.01,0.533,0.02,0.767s0.03,0.455.05,0.664a0.145,0.145,0,0,1-.04.108,0.121,0.121,0,0,1-.1.046h-1.36a0.132,0.132,0,0,1-.14-0.129c-0.03-.28-0.04-0.561-0.05-0.841a2.834,2.834,0,0,1-1.04.839A4.061,4.061,0,0,1,1413.39,35.18Zm1.96-4.034a10.672,10.672,0,0,0-1.1.058,4.164,4.164,0,0,0-1,.219,2,2,0,0,0-.72.436,0.925,0.925,0,0,0-.25.676,0.957,0.957,0,0,0,.4.875,2.2,2.2,0,0,0,1.19.28,2.388,2.388,0,0,0,1.01-.2,1.834,1.834,0,0,0,.66-0.508,2.067,2.067,0,0,0,.37-0.7,3.035,3.035,0,0,0,.11-0.777V31.146h-0.67Zm10.99,3.833a0.138,0.138,0,0,1-.14-0.14V30.132a2.406,2.406,0,0,0-.15-0.9,1.6,1.6,0,0,0-.37-0.588,1.361,1.361,0,0,0-.53-0.321,2.128,2.128,0,0,0-.65-0.1,2.339,2.339,0,0,0-.83.143,1.73,1.73,0,0,0-.66.442,2.174,2.174,0,0,0-.45.781,3.882,3.882,0,0,0-.16,1.149v4.1a0.138,0.138,0,0,1-.14.14h-1.53a0.138,0.138,0,0,1-.14-0.14V26.871a0.138,0.138,0,0,1,.14-0.14h1.53a0.138,0.138,0,0,1,.14.14V27.64a2.589,2.589,0,0,1,.83-0.7,3.48,3.48,0,0,1,1.71-.412,3.73,3.73,0,0,1,1.16.183,2.651,2.651,0,0,1,.99.577,2.733,2.733,0,0,1,.67,1,3.65,3.65,0,0,1,.25,1.423v5.127a0.138,0.138,0,0,1-.14.14h-1.53Zm8.15,0.2a4.9,4.9,0,0,1-1.76-.312,4.158,4.158,0,0,1-1.38-.881,3.986,3.986,0,0,1-.9-1.359,4.659,4.659,0,0,1-.31-1.741,4.727,4.727,0,0,1,.31-1.749,4.031,4.031,0,0,1,.89-1.375,4.1,4.1,0,0,1,1.38-.9,4.737,4.737,0,0,1,1.77-.322,4.882,4.882,0,0,1,1.75.321,3.908,3.908,0,0,1,1.45.986,0.132,0.132,0,0,1-.01.2l-1.15,1.042a0.164,0.164,0,0,1-.1.037,0.138,0.138,0,0,1-.1-0.042,3.182,3.182,0,0,0-.85-0.636,2.445,2.445,0,0,0-1.05-.212,2.368,2.368,0,0,0-1.04.212,2.152,2.152,0,0,0-.73.583,2.572,2.572,0,0,0-.45.863,3.5,3.5,0,0,0-.16,1.026,2.778,2.778,0,0,0,.18,1,2.6,2.6,0,0,0,.5.82,2.245,2.245,0,0,0,.77.547,2.489,2.489,0,0,0,1.01.2,2.308,2.308,0,0,0,1.04-.212,2.734,2.734,0,0,0,.81-0.631,0.127,0.127,0,0,1,.1-0.047h0a0.128,0.128,0,0,1,.1.041l1.09,1.076a0.134,0.134,0,0,1,.01.193,3.6,3.6,0,0,1-1.44.979A5.046,5.046,0,0,1,1434.49,35.18Zm5.89,3.833a5.793,5.793,0,0,1-.7-0.044,2.592,2.592,0,0,1-.7-0.185,0.14,0.14,0,0,1-.09-0.148l0.19-1.379a0.124,0.124,0,0,1,.07-0.1,0.122,0.122,0,0,1,.07-0.018,0.117,0.117,0,0,1,.05.011,2.281,2.281,0,0,0,.86.175,1.567,1.567,0,0,0,.55-0.084,1.046,1.046,0,0,0,.37-0.237,1.306,1.306,0,0,0,.27-0.376c0.07-.153.15-0.328,0.23-0.525l0.47-1.209-3.31-7.966a0.127,0.127,0,0,1,.02-0.131,0.13,0.13,0,0,1,.11-0.062h1.77a0.136,0.136,0,0,1,.13.091l2.27,5.914,2.17-5.913a0.15,0.15,0,0,1,.14-0.092h1.63a0.131,0.131,0,0,1,.11.061,0.125,0.125,0,0,1,.02.13l-3.82,9.683c-0.14.35-.28,0.672-0.43,0.962a2.986,2.986,0,0,1-.55.767,2.287,2.287,0,0,1-.79.5A3.049,3.049,0,0,1,1440.38,39.013Zm6.98-1.815a0.153,0.153,0,0,1-.12-0.055,0.173,0.173,0,0,1-.02-0.123l1.17-4.136a0.142,0.142,0,0,1,.14-0.1h1.63a0.131,0.131,0,0,1,.11.058,0.118,0.118,0,0,1,.02.127l-1.41,4.136a0.138,0.138,0,0,1-.13.1h-1.39Zm13.57-1.917a6.1,6.1,0,0,1-2.63-.551,6.376,6.376,0,0,1-2-1.444,6.438,6.438,0,0,1-1.7-4.3,7.1,7.1,0,0,1,.47-2.6,6.175,6.175,0,0,1,1.32-2.064,5.887,5.887,0,0,1,2.02-1.352,6.9,6.9,0,0,1,2.61-.481,6.507,6.507,0,0,1,2.39.463,4.508,4.508,0,0,1,1.93,1.441,0.1,0.1,0,0,1,.03.1,0.117,0.117,0,0,1-.05.093l-1.36,1.026a0.165,0.165,0,0,1-.09.029,0.144,0.144,0,0,1-.11-0.054,3.27,3.27,0,0,0-1.24-.968,3.754,3.754,0,0,0-1.55-.34,4.269,4.269,0,0,0-1.79.365,4.011,4.011,0,0,0-1.36,1,4.421,4.421,0,0,0-.88,1.493,5.313,5.313,0,0,0-.32,1.843,4.989,4.989,0,0,0,.3,1.734,4.231,4.231,0,0,0,.85,1.433,3.982,3.982,0,0,0,1.37.975,4.481,4.481,0,0,0,1.83.357,3.518,3.518,0,0,0,3.02-1.538,0.145,0.145,0,0,1,.1-0.057,0.04,0.04,0,0,1,.02,0,0.12,0.12,0,0,1,.08.028l1.38,1.026a0.146,0.146,0,0,1,.03.194,5.46,5.46,0,0,1-.49.544,4.617,4.617,0,0,1-.93.711,6.443,6.443,0,0,1-1.38.62A6.042,6.042,0,0,1,1460.93,35.281Zm12.56-.3a0.147,0.147,0,0,1-.15-0.14V30.132a2.426,2.426,0,0,0-.14-0.9,1.6,1.6,0,0,0-.37-0.588,1.475,1.475,0,0,0-.54-0.321,2.019,2.019,0,0,0-.64-0.1,2.339,2.339,0,0,0-.83.143,1.657,1.657,0,0,0-.66.442,2.174,2.174,0,0,0-.45.781,3.58,3.58,0,0,0-.16,1.149v4.1a0.138,0.138,0,0,1-.14.14h-1.53a0.138,0.138,0,0,1-.14-0.14V22.131a0.138,0.138,0,0,1,.14-0.14h1.53a0.138,0.138,0,0,1,.14.14V27.64a2.589,2.589,0,0,1,.83-0.7,3.48,3.48,0,0,1,1.71-.412,3.73,3.73,0,0,1,1.16.183,2.718,2.718,0,0,1,.99.577,2.88,2.88,0,0,1,.67,1,3.847,3.847,0,0,1,.25,1.423v5.127a0.147,0.147,0,0,1-.15.14h-1.52Zm4.75,0a0.147,0.147,0,0,1-.15-0.14V26.871a0.147,0.147,0,0,1,.15-0.14h1.53a0.145,0.145,0,0,1,.14.14v7.967a0.145,0.145,0,0,1-.14.14h-1.53Zm0.76-9.716a1.237,1.237,0,0,1-.89-0.368,1.234,1.234,0,0,1,0-1.762,1.258,1.258,0,0,1,1.78,0,1.233,1.233,0,0,1,0,1.761A1.234,1.234,0,0,1,1479,25.262Zm4.08,9.716a0.138,0.138,0,0,1-.14-0.14V22.131a0.138,0.138,0,0,1,.14-0.14h1.53a0.138,0.138,0,0,1,.14.14V34.839a0.138,0.138,0,0,1-.14.14h-1.53Zm7.83,0.2a4.488,4.488,0,0,1-1.75-.33,3.858,3.858,0,0,1-1.33-.924,4.191,4.191,0,0,1-.86-1.375,4.9,4.9,0,0,1-.3-1.7,4.968,4.968,0,0,1,.3-1.7,4.056,4.056,0,0,1,.86-1.375,3.821,3.821,0,0,1,1.33-.915,4.488,4.488,0,0,1,1.75-.33,3.881,3.881,0,0,1,1.69.375,3.121,3.121,0,0,1,1.01.737v-5.51a0.138,0.138,0,0,1,.14-0.14h1.53a0.138,0.138,0,0,1,.14.14V34.839a0.138,0.138,0,0,1-.14.14h-1.53a0.138,0.138,0,0,1-.14-0.14v-0.78a3.2,3.2,0,0,1-1.05.756A3.961,3.961,0,0,1,1490.91,35.18Zm0.19-6.959a2.651,2.651,0,0,0-1.05.2,2.4,2.4,0,0,0-.79.538,2.3,2.3,0,0,0-.49.827,3.273,3.273,0,0,0,0,2.141,2.288,2.288,0,0,0,.49.826,2.4,2.4,0,0,0,.79.539,2.651,2.651,0,0,0,1.05.2,2.7,2.7,0,0,0,1.05-.2,2.276,2.276,0,0,0,.78-0.539,2.459,2.459,0,0,0,.5-0.826,3.273,3.273,0,0,0,0-2.141,2.472,2.472,0,0,0-.5-0.827,2.272,2.272,0,0,0-.78-0.538A2.7,2.7,0,0,0,1491.1,28.221Zm11.74,6.959a3.917,3.917,0,0,1-1.64-.366,3.122,3.122,0,0,1-1.05-.755v0.779a0.138,0.138,0,0,1-.14.14h-1.53a0.138,0.138,0,0,1-.14-0.14V22.131a0.138,0.138,0,0,1,.14-0.14h1.53a0.138,0.138,0,0,1,.14.14v5.51a3.063,3.063,0,0,1,1-.737,3.945,3.945,0,0,1,1.69-.375,4.507,4.507,0,0,1,1.75.329,3.985,3.985,0,0,1,1.34.915,4.045,4.045,0,0,1,.85,1.376,4.764,4.764,0,0,1,.3,1.7,4.7,4.7,0,0,1-.3,1.7,4.166,4.166,0,0,1-.85,1.375,3.9,3.9,0,0,1-1.34.924A4.488,4.488,0,0,1,1502.84,35.18Zm-0.18-6.959a2.651,2.651,0,0,0-1.05.2,2.4,2.4,0,0,0-.79.538,2.3,2.3,0,0,0-.49.827,3.273,3.273,0,0,0,0,2.141,2.288,2.288,0,0,0,.49.826,2.4,2.4,0,0,0,.79.539,2.651,2.651,0,0,0,1.05.2,2.7,2.7,0,0,0,1.05-.2,2.276,2.276,0,0,0,.78-0.539,2.459,2.459,0,0,0,.5-0.826,3.273,3.273,0,0,0,0-2.141,2.472,2.472,0,0,0-.5-0.827,2.372,2.372,0,0,0-.78-0.538A2.7,2.7,0,0,0,1502.66,28.221Zm6.73,6.758a0.147,0.147,0,0,1-.15-0.14V26.871a0.147,0.147,0,0,1,.15-0.14h1.52a0.147,0.147,0,0,1,.15.14v7.967a0.147,0.147,0,0,1-.15.14h-1.52Zm0.76-9.716a1.237,1.237,0,0,1-.89-0.368,1.234,1.234,0,0,1,0-1.762,1.258,1.258,0,0,1,1.78,0,1.233,1.233,0,0,1,0,1.761A1.234,1.234,0,0,1,1510.15,25.262Zm4.03,9.716a0.138,0.138,0,0,1-.14-0.14V26.871a0.138,0.138,0,0,1,.14-0.14h1.53a0.145,0.145,0,0,1,.14.14V27.65a1.591,1.591,0,0,1,.2-0.23,2.65,2.65,0,0,1,.59-0.468,3.176,3.176,0,0,1,.73-0.308,2.759,2.759,0,0,1,.78-0.115,2.383,2.383,0,0,1,.73.107,0.127,0.127,0,0,1,.09.139l-0.06,1.631a0.2,0.2,0,0,1-.06.107,0.17,0.17,0,0,1-.09.027,0.108,0.108,0,0,1-.03,0,3.578,3.578,0,0,0-.37-0.081,1.854,1.854,0,0,0-.34-0.032,2.151,2.151,0,0,0-1.62.579,2.637,2.637,0,0,0-.55,1.837v4a0.145,0.145,0,0,1-.14.14h-1.53Zm9.61,0.2a3.222,3.222,0,0,1-1.43-.26,1.875,1.875,0,0,1-.77-0.683,2.224,2.224,0,0,1-.29-0.925c-0.03-.324-0.04-0.65-0.04-0.979V28.322h-1.63a0.138,0.138,0,0,1-.14-0.14v-1.31a0.138,0.138,0,0,1,.14-0.14h1.63v-2.1a0.138,0.138,0,0,1,.14-0.14h1.53a0.145,0.145,0,0,1,.14.14v2.1h2.05a0.138,0.138,0,0,1,.14.14v1.31a0.138,0.138,0,0,1-.14.14h-2.05V31.8c0,0.222,0,.44.01,0.658a1.752,1.752,0,0,0,.12.541,0.864,0.864,0,0,0,.29.359,1.051,1.051,0,0,0,.59.135,3.091,3.091,0,0,0,.54-0.049,1.472,1.472,0,0,0,.48-0.168,0.143,0.143,0,0,1,.14,0,0.148,0.148,0,0,1,.07.122v1.378a0.147,0.147,0,0,1-.07.122,2.161,2.161,0,0,1-.76.228A5.408,5.408,0,0,1,1523.79,35.18Zm9.54-.2a0.138,0.138,0,0,1-.14-0.14V30.132a2.416,2.416,0,0,0-.15-0.9,1.485,1.485,0,0,0-.37-0.588,1.361,1.361,0,0,0-.53-0.321,2.113,2.113,0,0,0-.64-0.1,2.436,2.436,0,0,0-.84.143,1.73,1.73,0,0,0-.66.442,2.023,2.023,0,0,0-.44.781,3.564,3.564,0,0,0-.17,1.149v4.1a0.138,0.138,0,0,1-.14.14h-1.53a0.138,0.138,0,0,1-.14-0.14V22.131a0.138,0.138,0,0,1,.14-0.14h1.53a0.138,0.138,0,0,1,.14.14V27.64a2.7,2.7,0,0,1,.83-0.7,3.492,3.492,0,0,1,1.72-.412,3.714,3.714,0,0,1,1.15.183,2.638,2.638,0,0,1,.99.577,2.749,2.749,0,0,1,.67,1,3.654,3.654,0,0,1,.25,1.423v5.127a0.138,0.138,0,0,1-.14.14h-1.53Z" transform="translate(-1365 -21)"/>
</svg>
