<?xml version="1.0" encoding="utf-8"?>
<!-- Generator: Adobe Illustrator 19.2.1, SVG Export Plug-In . SVG Version: 6.00 Build 0)  -->
<!DOCTYPE svg PUBLIC "-//W3C//DTD SVG 1.1//EN" "http://www.w3.org/Graphics/SVG/1.1/DTD/svg11.dtd">
<svg version="1.1" id="Menu_menu" xmlns="http://www.w3.org/2000/svg" xmlns:xlink="http://www.w3.org/1999/xlink" x="0px" y="0px"
	 width="100px" height="100px" viewBox="0 0 100 100" style="enable-background:new 0 0 100 100;" xml:space="preserve">
<style type="text/css">
	.st1{fill:none;enable-background:new    ;}
	.st2{fill:#252525;stroke:#252525;stroke-width:0.2;}
</style>
<path class="st1" d="z"/>
<path id="Menu_header" class="st2" d="M28.9,65.9h-2.8v13.4h1.7V68.1h0l4.2,11.2h1.1l4.2-11.2h0v11.2h1.8V65.9h-2.8l-3.8,10.3h0
	L28.9,65.9z M43.5,74c0-0.3,0.1-0.7,0.3-1c0.1-0.3,0.3-0.6,0.6-0.8c0.5-0.5,1.2-0.7,1.8-0.7c0.4,0,0.7,0.1,1,0.2
	c0.3,0.1,0.5,0.3,0.7,0.5c0.2,0.2,0.4,0.5,0.5,0.8c0.1,0.3,0.2,0.7,0.2,1L43.5,74L43.5,74z M50,72.8c-0.2-0.5-0.5-1-0.8-1.5
	c-0.4-0.4-0.8-0.7-1.3-0.9c-1.1-0.4-2.3-0.4-3.5,0c-0.5,0.2-1,0.6-1.4,1c-0.4,0.4-0.7,0.9-0.9,1.5c-0.2,0.6-0.3,1.3-0.3,1.9
	c0,0.7,0.1,1.3,0.3,1.9c0.2,0.6,0.5,1.1,0.9,1.5c0.4,0.4,0.9,0.7,1.4,1c1.2,0.5,2.6,0.4,3.9-0.1c0.6-0.3,1.2-0.8,1.6-1.4l-1.2-1
	c-0.3,0.4-0.6,0.7-1,1c-0.4,0.3-1,0.4-1.5,0.4c-0.4,0-0.7-0.1-1.1-0.2c-1-0.4-1.7-1.4-1.7-2.5h6.8c0-0.1,0-0.2,0-0.3v-0.3
	C50.3,74.1,50.2,73.4,50,72.8z M52.5,70.3c0,0.3,0,0.6,0.1,1s0,0.7,0,0.9v7h1.7v-4.8c0-0.8,0.2-1.5,0.6-2.1c0.4-0.5,1-0.8,1.6-0.8
	c0.3,0,0.7,0.1,1,0.2c0.2,0.1,0.5,0.4,0.6,0.6c0.2,0.3,0.3,0.6,0.3,0.9c0.1,0.3,0.1,0.7,0.1,1v5h1.7v-5.6c0-0.5-0.1-1-0.2-1.4
	c-0.1-0.4-0.3-0.8-0.6-1.2c-0.3-0.3-0.6-0.6-1-0.8c-0.4-0.2-0.9-0.3-1.4-0.3c-0.6,0-1.2,0.2-1.7,0.5c-0.2,0.2-0.5,0.3-0.6,0.5
	c-0.2,0.2-0.3,0.4-0.4,0.7h-0.1c0-0.2,0-0.4,0-0.7s0-0.5-0.1-0.8L52.5,70.3L52.5,70.3z M70.5,79.3c0-0.3,0-0.6-0.1-1
	c0-0.4,0-0.7,0-0.9v-7h-1.7v4.8c0,0.8-0.2,1.5-0.6,2.1c-0.4,0.5-1,0.8-1.7,0.8c-0.3,0-0.7-0.1-1-0.2c-0.2-0.1-0.5-0.4-0.6-0.6
	c-0.2-0.3-0.3-0.6-0.3-0.9c-0.1-0.3-0.1-0.7-0.1-1v-5h-1.7v5.6c0,0.5,0.1,1,0.2,1.4c0.1,0.4,0.3,0.8,0.6,1.2c0.3,0.3,0.6,0.6,1,0.8
	c0.5,0.2,0.9,0.3,1.4,0.3c0.6,0,1.2-0.2,1.7-0.5c0.5-0.3,0.9-0.7,1.1-1.2h0c0,0.2,0,0.4,0,0.7c0,0.3,0,0.5,0.1,0.8L70.5,79.3
	L70.5,79.3z"/>
</svg>
