<svg xmlns="http://www.w3.org/2000/svg" width="72" height="18" viewBox="0 0 72 18">
  <defs>
    <style>
      .cls-2 {
        fill: #252525;
        fill-rule: evenodd;
      }
    </style>
  </defs>
  <path class="cls-2" d="M1257.9,34.185a0.139,0.139,0,0,1-.14-0.142V24.752l-3.83,9.345a0.135,0.135,0,0,1-.13.088h-1.09a0.145,0.145,0,0,1-.13-0.088l-3.82-9.346v9.292a0.146,0.146,0,0,1-.14.142h-1.64a0.139,0.139,0,0,1-.14-0.142V21.964a0.139,0.139,0,0,1,.14-0.142h2.43a0.16,0.16,0,0,1,.14.087l3.72,8.913,3.7-8.913a0.136,0.136,0,0,1,.13-0.087h2.43a0.139,0.139,0,0,1,.14.142V34.043a0.139,0.139,0,0,1-.14.142h-1.63Zm8.78,0.2a4.581,4.581,0,0,1-1.78-.335,3.919,3.919,0,0,1-1.36-.93,4.108,4.108,0,0,1-.85-1.395,4.894,4.894,0,0,1-.3-1.731,4.509,4.509,0,0,1,.33-1.734,4.218,4.218,0,0,1,.89-1.394,4.106,4.106,0,0,1,1.37-.928,4.369,4.369,0,0,1,1.72-.334,4.118,4.118,0,0,1,1.87.39,3.772,3.772,0,0,1,1.27,1.02,4.232,4.232,0,0,1,.71,1.414,5.67,5.67,0,0,1,.22,1.583v0.546a0.139,0.139,0,0,1-.14.142h-6.32a1.911,1.911,0,0,0,.21.755,2.141,2.141,0,0,0,.57.7,2.6,2.6,0,0,0,.82.453,2.977,2.977,0,0,0,.98.163,2.157,2.157,0,0,0,1.16-.311,4.031,4.031,0,0,0,.94-0.848,0.13,0.13,0,0,1,.11-0.053,0.115,0.115,0,0,1,.08.029l1.16,0.887a0.119,0.119,0,0,1,.05.094,0.132,0.132,0,0,1-.02.106A4.422,4.422,0,0,1,1266.68,34.39Zm2.17-5.2a2.915,2.915,0,0,0-.15-0.75,1.931,1.931,0,0,0-.41-0.692,1.79,1.79,0,0,0-.67-0.46,2.5,2.5,0,0,0-.96-0.169,2.351,2.351,0,0,0-.97.2,2.379,2.379,0,0,0-.74.522,2.493,2.493,0,0,0-.48.717,2.12,2.12,0,0,0-.16.629h4.54Zm6.9,5.2a4.856,4.856,0,0,1-1.82-.316,3.357,3.357,0,0,1-1.41-1.175,0.155,0.155,0,0,1,.02-0.193l1.16-.956a0.154,0.154,0,0,1,.09-0.032,0.139,0.139,0,0,1,.1.041,4.593,4.593,0,0,0,.81.646,1.918,1.918,0,0,0,1.05.269,2.94,2.94,0,0,0,.56-0.057,1.7,1.7,0,0,0,.48-0.173,1.015,1.015,0,0,0,.33-0.284,0.591,0.591,0,0,0,.12-0.367,0.628,0.628,0,0,0-.18-0.464,1.3,1.3,0,0,0-.46-0.318,3.588,3.588,0,0,0-.6-0.2c-0.22-.05-0.42-0.093-0.59-0.127-0.34-.081-0.65-0.173-0.95-0.277a2.886,2.886,0,0,1-.82-0.43,2.022,2.022,0,0,1-.59-0.7,2.318,2.318,0,0,1-.22-1.039,2.439,2.439,0,0,1,.28-1.17,2.629,2.629,0,0,1,.74-0.823,3.456,3.456,0,0,1,1.03-.481,4.358,4.358,0,0,1,1.16-.158,4.189,4.189,0,0,1,1.61.317,2.616,2.616,0,0,1,1.26,1.081,0.149,0.149,0,0,1-.03.188l-1.19.9a0.161,0.161,0,0,1-.09.028,0.147,0.147,0,0,1-.11-0.053,2.245,2.245,0,0,0-.63-0.537,1.826,1.826,0,0,0-.91-0.212,1.7,1.7,0,0,0-.87.212,0.581,0.581,0,0,0-.33.551,0.638,0.638,0,0,0,.18.476,1.632,1.632,0,0,0,.51.331,2.885,2.885,0,0,0,.64.2l0.61,0.121a6.8,6.8,0,0,1,.95.3,2.719,2.719,0,0,1,.79.468,1.946,1.946,0,0,1,.53.714,2.4,2.4,0,0,1,.19,1.014,2.355,2.355,0,0,1-.31,1.242,2.576,2.576,0,0,1-.79.839,3.247,3.247,0,0,1-1.09.464A5.371,5.371,0,0,1,1275.75,34.39Zm7.82,0a4.839,4.839,0,0,1-1.81-.316,3.322,3.322,0,0,1-1.42-1.175,0.145,0.145,0,0,1,.03-0.193l1.15-.956a0.154,0.154,0,0,1,.09-0.032,0.124,0.124,0,0,1,.1.041,4.593,4.593,0,0,0,.81.646,1.942,1.942,0,0,0,1.05.269,2.94,2.94,0,0,0,.56-0.057,1.7,1.7,0,0,0,.48-0.173,0.921,0.921,0,0,0,.33-0.284,0.591,0.591,0,0,0,.12-0.367,0.663,0.663,0,0,0-.17-0.464,1.443,1.443,0,0,0-.47-0.318,3.588,3.588,0,0,0-.6-0.2c-0.22-.05-0.42-0.093-0.59-0.127-0.33-.081-0.65-0.173-0.95-0.277a3.027,3.027,0,0,1-.82-0.43,2,2,0,0,1-.58-0.7,2.19,2.19,0,0,1-.23-1.039,2.334,2.334,0,0,1,.29-1.17,2.407,2.407,0,0,1,.74-0.823,3.24,3.24,0,0,1,1.03-.481,4.231,4.231,0,0,1,1.15-.158,4.276,4.276,0,0,1,1.62.317,2.639,2.639,0,0,1,1.25,1.081,0.138,0.138,0,0,1-.03.188l-1.19.9a0.161,0.161,0,0,1-.09.028,0.147,0.147,0,0,1-.11-0.053,2.245,2.245,0,0,0-.63-0.537,1.8,1.8,0,0,0-.91-0.212,1.723,1.723,0,0,0-.87.212,0.6,0.6,0,0,0-.33.551,0.608,0.608,0,0,0,.19.476,1.706,1.706,0,0,0,.5.331,3.056,3.056,0,0,0,.64.2l0.61,0.121a7.4,7.4,0,0,1,.96.3,2.664,2.664,0,0,1,.78.468,1.946,1.946,0,0,1,.53.714,2.4,2.4,0,0,1,.2,1.014,2.452,2.452,0,0,1-.31,1.242,2.606,2.606,0,0,1-.8.839,3.162,3.162,0,0,1-1.09.464A5.371,5.371,0,0,1,1283.57,34.39Zm7.7,0a3.813,3.813,0,0,1-1.11-.16,2.71,2.71,0,0,1-.94-0.486,2.275,2.275,0,0,1-.64-0.807,2.463,2.463,0,0,1-.24-1.112,2.537,2.537,0,0,1,.37-1.392,2.8,2.8,0,0,1,1.01-.909,4.743,4.743,0,0,1,1.45-.493,10.036,10.036,0,0,1,1.75-.147h0.98v-0.2a1.628,1.628,0,0,0-.11-0.564,1.467,1.467,0,0,0-.33-0.508,1.518,1.518,0,0,0-.54-0.359,2.142,2.142,0,0,0-.8-0.134,3.016,3.016,0,0,0-.74.081,3.515,3.515,0,0,0-.58.2,2.338,2.338,0,0,0-.46.282l-0.43.326a0.114,0.114,0,0,1-.08.028,0.16,0.16,0,0,1-.11-0.043l-0.91-.956a0.134,0.134,0,0,1-.04-0.1,0.128,0.128,0,0,1,.04-0.1,4.387,4.387,0,0,1,1.55-.925,5.242,5.242,0,0,1,1.74-.306,4.767,4.767,0,0,1,1.57.229,3.206,3.206,0,0,1,1.1.626,2.51,2.51,0,0,1,.64.913,2.984,2.984,0,0,1,.2,1.068v4.129c0,0.282.01,0.541,0.02,0.778s0.03,0.462.05,0.674a0.2,0.2,0,0,1-.03.11,0.156,0.156,0,0,1-.11.047h-1.36a0.139,0.139,0,0,1-.14-0.13c-0.03-.284-0.04-0.569-0.05-0.854a2.842,2.842,0,0,1-1.04.852A4.009,4.009,0,0,1,1291.27,34.39Zm1.96-4.095a10.51,10.51,0,0,0-1.1.059,4.308,4.308,0,0,0-1.01.223,1.866,1.866,0,0,0-.71.443,0.953,0.953,0,0,0-.26.686,0.982,0.982,0,0,0,.41.888,2.176,2.176,0,0,0,1.19.284,2.357,2.357,0,0,0,1.01-.2,1.838,1.838,0,0,0,.66-0.515,2.108,2.108,0,0,0,.37-0.709,3.122,3.122,0,0,0,.11-0.789V30.3h-0.67Zm8.69,7.985a6.76,6.76,0,0,1-2.16-.331,5.241,5.241,0,0,1-1.88-1.156,0.136,0.136,0,0,1-.02-0.194l1.04-1.3a0.122,0.122,0,0,1,.1-0.053h0.01a0.122,0.122,0,0,1,.1.046,4.29,4.29,0,0,0,1.25.949,3.539,3.539,0,0,0,1.52.32,3.406,3.406,0,0,0,1.36-.236,2.324,2.324,0,0,0,.84-0.6,2.2,2.2,0,0,0,.44-0.84,3.633,3.633,0,0,0,.13-0.978V33.08a2.65,2.65,0,0,1-1.05.845,3.891,3.891,0,0,1-1.65.362,4.3,4.3,0,0,1-1.69-.326,4,4,0,0,1-2.23-2.262,4.523,4.523,0,0,1-.32-1.7,4.843,4.843,0,0,1,.3-1.713,4.244,4.244,0,0,1,.85-1.4,3.91,3.91,0,0,1,1.34-.938,4.43,4.43,0,0,1,1.75-.335,3.913,3.913,0,0,1,1.65.37,3.124,3.124,0,0,1,1.05.767V25.957a0.14,0.14,0,0,1,.14-0.142h1.53a0.14,0.14,0,0,1,.14.142v8.018a4.627,4.627,0,0,1-.32,1.736,4.013,4.013,0,0,1-.93,1.361,4.2,4.2,0,0,1-1.44.893A5.251,5.251,0,0,1,1301.92,38.28Zm0.22-10.953a2.634,2.634,0,0,0-1.05.2,2.414,2.414,0,0,0-.79.546,2.35,2.35,0,0,0-.49.839,3.165,3.165,0,0,0-.18,1.086,2.583,2.583,0,0,0,.67,1.872,2.457,2.457,0,0,0,1.84.7,2.419,2.419,0,0,0,1.83-.7,2.59,2.59,0,0,0,.68-1.872,3.173,3.173,0,0,0-.18-1.086,2.361,2.361,0,0,0-.5-0.839,2.271,2.271,0,0,0-.78-0.546A2.669,2.669,0,0,0,1302.14,27.327Zm11.08,7.063a4.581,4.581,0,0,1-1.78-.335,3.9,3.9,0,0,1-2.21-2.325,4.894,4.894,0,0,1-.3-1.731,4.7,4.7,0,0,1,.32-1.734,4.409,4.409,0,0,1,.9-1.394,4.167,4.167,0,0,1,1.36-.928,4.454,4.454,0,0,1,1.73-.334,4.118,4.118,0,0,1,1.87.39,3.639,3.639,0,0,1,1.26,1.02,4.075,4.075,0,0,1,.72,1.414,6.065,6.065,0,0,1,.22,1.583v0.546a0.148,0.148,0,0,1-.15.142h-6.31a1.911,1.911,0,0,0,.21.755,2.141,2.141,0,0,0,.57.7,2.6,2.6,0,0,0,.82.453,2.962,2.962,0,0,0,.97.163,2.167,2.167,0,0,0,1.17-.311,3.8,3.8,0,0,0,.93-0.848,0.144,0.144,0,0,1,.11-0.053,0.164,0.164,0,0,1,.09.029l1.16,0.887a0.119,0.119,0,0,1,.05.094,0.108,0.108,0,0,1-.03.106A4.39,4.39,0,0,1,1313.22,34.39Zm2.16-5.2a3.417,3.417,0,0,0-.14-0.75,1.931,1.931,0,0,0-.41-0.692,1.874,1.874,0,0,0-.67-0.46,2.5,2.5,0,0,0-.96-0.169,2.318,2.318,0,0,0-.97.2,2.379,2.379,0,0,0-.74.522,2.3,2.3,0,0,0-.48.717,2.12,2.12,0,0,0-.16.629h4.53Z" transform="translate(-1246 -21)"/>
</svg>
