<svg xmlns="http://www.w3.org/2000/svg" width="72" height="18" viewBox="0 0 72 18">
  <defs>
    <style>
      .cls-2 {
        fill: #252525;
        fill-rule: evenodd;
      }
    </style>
  </defs>
  <path class="cls-2" d="M1042.53,34.185a0.139,0.139,0,0,1-.14-0.142V21.964a0.139,0.139,0,0,1,.14-0.142h4.23a5.074,5.074,0,0,1,1.96.326,3.476,3.476,0,0,1,1.24.838,2.924,2.924,0,0,1,.63,1.148,4.139,4.139,0,0,1,0,2.415,2.908,2.908,0,0,1-.63,1.149,3.478,3.478,0,0,1-1.24.839,5.076,5.076,0,0,1-1.96.326h-2.46v5.181a0.139,0.139,0,0,1-.14.142h-1.63Zm3.77-7.041a5.949,5.949,0,0,0,.93-0.075,2.392,2.392,0,0,0,.78-0.266,1.455,1.455,0,0,0,.54-0.536,2.244,2.244,0,0,0,0-1.852,1.38,1.38,0,0,0-.54-0.536,2.392,2.392,0,0,0-.78-0.265,5.832,5.832,0,0,0-.93-0.076h-2v3.606h2Zm6.73,7.041a0.139,0.139,0,0,1-.14-0.142V25.957a0.14,0.14,0,0,1,.14-0.142h1.53a0.14,0.14,0,0,1,.14.142v0.791a2.772,2.772,0,0,1,.2-0.233,2.9,2.9,0,0,1,.6-0.475,3.076,3.076,0,0,1,.72-0.313,2.79,2.79,0,0,1,.79-0.117,2.286,2.286,0,0,1,.72.109,0.149,0.149,0,0,1,.1.141l-0.07,1.655a0.126,0.126,0,0,1-.06.109,0.118,0.118,0,0,1-.08.027,0.314,0.314,0,0,1-.04,0q-0.18-.05-0.36-0.082a1.848,1.848,0,0,0-.35-0.032,2.124,2.124,0,0,0-1.61.587,2.654,2.654,0,0,0-.56,1.864v4.06a0.139,0.139,0,0,1-.14.142h-1.53Zm10.12,0.2a4.386,4.386,0,0,1-1.74-.344A4.333,4.333,0,0,1,1058.72,30a4.422,4.422,0,0,1,.34-1.711A4.666,4.666,0,0,1,1060,26.9a4.424,4.424,0,0,1,3.15-1.286,4.4,4.4,0,0,1,4.08,2.678,4.246,4.246,0,0,1,.34,1.711,4.336,4.336,0,0,1-1.28,3.113A4.425,4.425,0,0,1,1063.15,34.39Zm0-7.063a2.617,2.617,0,0,0-1.05.2,2.313,2.313,0,0,0-.79.546,2.526,2.526,0,0,0-.5.839,3.556,3.556,0,0,0,0,2.173,2.5,2.5,0,0,0,.5.838,2.3,2.3,0,0,0,.79.547,2.634,2.634,0,0,0,1.05.2,2.669,2.669,0,0,0,1.05-.2,2.262,2.262,0,0,0,.78-0.547,2.5,2.5,0,0,0,.5-0.838,3.368,3.368,0,0,0,0-2.173,2.516,2.516,0,0,0-.5-0.839,2.271,2.271,0,0,0-.78-0.546A2.651,2.651,0,0,0,1063.15,27.327Zm10.73,7.063a4.43,4.43,0,0,1-1.75-.335,3.9,3.9,0,0,1-1.34-.938,4.1,4.1,0,0,1-.85-1.4,4.814,4.814,0,0,1-.3-1.722,4.889,4.889,0,0,1,.3-1.73,3.938,3.938,0,0,1,2.19-2.325,4.43,4.43,0,0,1,1.75-.335,3.9,3.9,0,0,1,1.69.38,3.112,3.112,0,0,1,1.01.748V21.145a0.139,0.139,0,0,1,.14-0.142h1.53a0.139,0.139,0,0,1,.14.142v12.9a0.139,0.139,0,0,1-.14.142h-1.53a0.139,0.139,0,0,1-.14-0.142V33.251a3.2,3.2,0,0,1-1.05.767A3.946,3.946,0,0,1,1073.88,34.39Zm0.18-7.063a2.6,2.6,0,0,0-1.04.2,2.313,2.313,0,0,0-.79.546,2.526,2.526,0,0,0-.5.839,3.368,3.368,0,0,0,0,2.173,2.5,2.5,0,0,0,.5.838,2.3,2.3,0,0,0,.79.547,2.805,2.805,0,0,0,2.09,0,2.3,2.3,0,0,0,.79-0.547,2.5,2.5,0,0,0,.5-0.838,3.368,3.368,0,0,0,0-2.173,2.516,2.516,0,0,0-.5-0.839,2.313,2.313,0,0,0-.79-0.546A2.617,2.617,0,0,0,1074.06,27.327Zm10.31,7.063a3.644,3.644,0,0,1-1.17-.187,2.679,2.679,0,0,1-.98-0.585,2.876,2.876,0,0,1-.67-1.013,3.964,3.964,0,0,1-.25-1.445v-5.2a0.148,0.148,0,0,1,.15-0.142h1.53a0.146,0.146,0,0,1,.14.142v4.777a2.7,2.7,0,0,0,.14.912,1.644,1.644,0,0,0,.38.6,1.343,1.343,0,0,0,.53.324,1.963,1.963,0,0,0,.64.1,2.407,2.407,0,0,0,.84-0.145,1.7,1.7,0,0,0,.66-0.45,2.033,2.033,0,0,0,.44-0.793,3.671,3.671,0,0,0,.17-1.166V25.957a0.14,0.14,0,0,1,.14-0.142h1.53a0.14,0.14,0,0,1,.14.142v8.086a0.139,0.139,0,0,1-.14.142h-1.53a0.139,0.139,0,0,1-.14-0.142V33.262a2.7,2.7,0,0,1-.83.709A3.505,3.505,0,0,1,1084.37,34.39Zm10.92,0a4.758,4.758,0,0,1-1.76-.316,4.1,4.1,0,0,1-1.39-.894,4.05,4.05,0,0,1-.9-1.379,4.792,4.792,0,0,1-.31-1.767,4.861,4.861,0,0,1,.31-1.775,3.969,3.969,0,0,1,2.27-2.306,4.692,4.692,0,0,1,1.78-.326,4.767,4.767,0,0,1,1.74.325,3.864,3.864,0,0,1,1.46,1,0.125,0.125,0,0,1,.03.1,0.123,0.123,0,0,1-.04.1l-1.16,1.058a0.138,0.138,0,0,1-.09.037,0.16,0.16,0,0,1-.11-0.043,3.036,3.036,0,0,0-.85-0.646,2.353,2.353,0,0,0-1.05-.216,2.324,2.324,0,0,0-1.03.216,2.1,2.1,0,0,0-.74.592,2.623,2.623,0,0,0-.45.876,3.6,3.6,0,0,0-.16,1.041,2.856,2.856,0,0,0,.18,1.016,2.648,2.648,0,0,0,.5.832,2.245,2.245,0,0,0,.77.555,2.457,2.457,0,0,0,1.01.2,2.353,2.353,0,0,0,1.05-.216,2.584,2.584,0,0,0,.8-0.641,0.165,0.165,0,0,1,.11-0.048h0a0.143,0.143,0,0,1,.1.041l1.09,1.092a0.147,0.147,0,0,1,0,.2,3.536,3.536,0,0,1-1.44.994A4.964,4.964,0,0,1,1095.29,34.39Zm8.23,0a3.124,3.124,0,0,1-1.43-.264,1.849,1.849,0,0,1-.78-0.694,2.268,2.268,0,0,1-.29-0.938c-0.03-.329-0.04-0.66-0.04-0.994V27.429h-1.63a0.139,0.139,0,0,1-.14-0.142v-1.33a0.14,0.14,0,0,1,.14-0.142h1.63V23.687a0.139,0.139,0,0,1,.14-0.142h1.53a0.139,0.139,0,0,1,.14.142v2.128h2.06a0.146,0.146,0,0,1,.14.142v1.33a0.146,0.146,0,0,1-.14.142h-2.06v3.526c0,0.225.01,0.447,0.02,0.667a1.562,1.562,0,0,0,.12.549,0.8,0.8,0,0,0,.29.364,1.017,1.017,0,0,0,.59.137,2.938,2.938,0,0,0,.53-0.05,1.511,1.511,0,0,0,.49-0.171,0.12,0.12,0,0,1,.07-0.019,0.145,0.145,0,0,1,.07.019,0.151,0.151,0,0,1,.07.123v1.4a0.149,0.149,0,0,1-.07.124,2.14,2.14,0,0,1-.76.231A5.645,5.645,0,0,1,1103.52,34.39Zm6.04,0a4.856,4.856,0,0,1-1.82-.316,3.3,3.3,0,0,1-1.41-1.175,0.144,0.144,0,0,1,.02-0.193l1.16-.956a0.154,0.154,0,0,1,.09-0.032,0.139,0.139,0,0,1,.1.041,4.593,4.593,0,0,0,.81.646,1.918,1.918,0,0,0,1.05.269,2.761,2.761,0,0,0,.55-0.057,1.656,1.656,0,0,0,.49-0.173,1.015,1.015,0,0,0,.33-0.284,0.591,0.591,0,0,0,.12-0.367,0.628,0.628,0,0,0-.18-0.464,1.3,1.3,0,0,0-.46-0.318,3.418,3.418,0,0,0-.61-0.2c-0.22-.05-0.41-0.093-0.58-0.127-0.34-.081-0.65-0.173-0.95-0.277a2.886,2.886,0,0,1-.82-0.43,2.022,2.022,0,0,1-.59-0.7,2.318,2.318,0,0,1-.22-1.039,2.439,2.439,0,0,1,.28-1.17,2.629,2.629,0,0,1,.74-0.823,3.344,3.344,0,0,1,1.03-.481,4.341,4.341,0,0,1,1.15-.158,4.2,4.2,0,0,1,1.62.317,2.616,2.616,0,0,1,1.26,1.081,0.141,0.141,0,0,1-.04.188l-1.19.9a0.114,0.114,0,0,1-.08.028,0.147,0.147,0,0,1-.11-0.053,2.245,2.245,0,0,0-.63-0.537,1.826,1.826,0,0,0-.91-0.212,1.7,1.7,0,0,0-.87.212,0.581,0.581,0,0,0-.33.551,0.638,0.638,0,0,0,.18.476,1.632,1.632,0,0,0,.51.331,2.885,2.885,0,0,0,.64.2l0.61,0.121a6.8,6.8,0,0,1,.95.3,2.719,2.719,0,0,1,.79.468,2.064,2.064,0,0,1,.53.714,2.4,2.4,0,0,1,.19,1.014,2.355,2.355,0,0,1-.31,1.242,2.576,2.576,0,0,1-.79.839,3.247,3.247,0,0,1-1.09.464A5.371,5.371,0,0,1,1109.56,34.39Z" transform="translate(-1042 -21)"/>
</svg>
