<?xml version="1.0" encoding="utf-8"?>
<!-- Generator: Adobe Illustrator 19.2.1, SVG Export Plug-In . SVG Version: 6.00 Build 0)  -->
<!DOCTYPE svg PUBLIC "-//W3C//DTD SVG 1.1//EN" "http://www.w3.org/Graphics/SVG/1.1/DTD/svg11.dtd">
<svg version="1.1" id="Shop_menu" xmlns="http://www.w3.org/2000/svg" xmlns:xlink="http://www.w3.org/1999/xlink" x="0px" y="0px"
	 width="100px" height="100px" viewBox="0 0 100 100" style="enable-background:new 0 0 100 100;" xml:space="preserve">
<style type="text/css">
	.st0{fill:#252525;}
</style>
<path id="icon" class="st0" d="M60.7,30.7c-0.5,0-0.9,0.4-0.9,0.9c0,0,0,0,0,0v12.6h-6.5v-5.1c0-0.5-0.4-0.9-0.9-0.9h-4.7
	c-0.5,0-0.9,0.4-0.9,0.9v5.1h-6.5V32c0-0.5-0.4-0.9-0.9-0.9c-0.5,0-0.9,0.4-0.9,0.9v13.1c0,0.5,0.4,0.9,0.9,0.9h8.4
	c0.5,0,0.9-0.4,0.9-0.9V40h2.9v5.1c0,0.5,0.4,0.9,0.9,0.9c0,0,0,0,0,0h8.3c0.5,0,0.9-0.4,0.9-0.9V31.6
	C61.6,31.1,61.2,30.7,60.7,30.7C60.7,30.7,60.7,30.7,60.7,30.7z M65.7,31.4l-7.3-7.3v-5c0-0.5-0.4-0.9-0.9-0.9c0,0,0,0,0,0
	c-0.5,0-0.9,0.4-0.9,0.9c0,0,0,0,0,0v3.1l-6-6C50.5,16.1,50.2,16,50,16c-0.2,0-0.5,0.1-0.7,0.3l-15.1,15c-0.3,0.4-0.3,0.9,0,1.3
	c0.3,0.3,0.9,0.3,1.2,0L50,18.2l14.4,14.5c0.2,0.2,0.4,0.2,0.7,0.2c0.2,0,0.5-0.1,0.7-0.2C66.1,32.4,66.1,31.8,65.7,31.4L65.7,31.4z
	 M60.7,30.7c-0.5,0-0.9,0.4-0.9,0.9c0,0,0,0,0,0v12.6h-6.5v-5.1c0-0.5-0.4-0.9-0.9-0.9h-4.7c-0.5,0-0.9,0.4-0.9,0.9v5.1h-6.5V32
	c0-0.5-0.4-0.9-0.9-0.9c-0.5,0-0.9,0.4-0.9,0.9v13.1c0,0.5,0.4,0.9,0.9,0.9h8.4c0.5,0,0.9-0.4,0.9-0.9V40h2.9v5.1
	c0,0.5,0.4,0.9,0.9,0.9c0,0,0,0,0,0h8.3c0.5,0,0.9-0.4,0.9-0.9V31.6C61.6,31.1,61.2,30.7,60.7,30.7C60.7,30.7,60.7,30.7,60.7,30.7z
	 M65.7,31.4l-7.3-7.3v-5c0-0.5-0.4-0.9-0.9-0.9c0,0,0,0,0,0c-0.5,0-0.9,0.4-0.9,0.9c0,0,0,0,0,0v3.1l-6-6C50.5,16.1,50.2,16,50,16
	c-0.2,0-0.5,0.1-0.7,0.3l-15.1,15c-0.3,0.4-0.3,0.9,0,1.3c0.3,0.3,0.9,0.3,1.2,0L50,18.2l14.4,14.5c0.2,0.2,0.4,0.2,0.7,0.2
	c0.2,0,0.5-0.1,0.7-0.2C66.1,32.4,66.1,31.8,65.7,31.4L65.7,31.4z"/>
<path id="icon-2" class="st0" d="M60.7,30.7c-0.5,0-0.9,0.4-0.9,0.9c0,0,0,0,0,0v12.6h-6.5v-5.1c0-0.5-0.4-0.9-0.9-0.9h-4.7
	c-0.5,0-0.9,0.4-0.9,0.9v5.1h-6.5V32c0-0.5-0.4-0.9-0.9-0.9c-0.5,0-0.9,0.4-0.9,0.9v13.1c0,0.5,0.4,0.9,0.9,0.9h8.4
	c0.5,0,0.9-0.4,0.9-0.9V40h2.9v5.1c0,0.5,0.4,0.9,0.9,0.9c0,0,0,0,0,0h8.3c0.5,0,0.9-0.4,0.9-0.9V31.6
	C61.6,31.1,61.2,30.7,60.7,30.7C60.7,30.7,60.7,30.7,60.7,30.7z M65.7,31.4l-7.3-7.3v-5c0-0.5-0.4-0.9-0.9-0.9c0,0,0,0,0,0
	c-0.5,0-0.9,0.4-0.9,0.9c0,0,0,0,0,0v3.1l-6-6C50.5,16.1,50.2,16,50,16c-0.2,0-0.5,0.1-0.7,0.3l-15.1,15c-0.3,0.4-0.3,0.9,0,1.3
	c0.3,0.3,0.9,0.3,1.2,0L50,18.2l14.4,14.5c0.2,0.2,0.4,0.2,0.7,0.2c0.2,0,0.5-0.1,0.7-0.2C66.1,32.4,66.1,31.8,65.7,31.4L65.7,31.4z
	 M60.7,30.7c-0.5,0-0.9,0.4-0.9,0.9c0,0,0,0,0,0v12.6h-6.5v-5.1c0-0.5-0.4-0.9-0.9-0.9h-4.7c-0.5,0-0.9,0.4-0.9,0.9v5.1h-6.5V32
	c0-0.5-0.4-0.9-0.9-0.9c-0.5,0-0.9,0.4-0.9,0.9v13.1c0,0.5,0.4,0.9,0.9,0.9h8.4c0.5,0,0.9-0.4,0.9-0.9V40h2.9v5.1
	c0,0.5,0.4,0.9,0.9,0.9c0,0,0,0,0,0h8.3c0.5,0,0.9-0.4,0.9-0.9V31.6C61.6,31.1,61.2,30.7,60.7,30.7C60.7,30.7,60.7,30.7,60.7,30.7z
	 M65.7,31.4l-7.3-7.3v-5c0-0.5-0.4-0.9-0.9-0.9c0,0,0,0,0,0c-0.5,0-0.9,0.4-0.9,0.9c0,0,0,0,0,0v3.1l-6-6C50.5,16.1,50.2,16,50,16
	c-0.2,0-0.5,0.1-0.7,0.3l-15.1,15c-0.3,0.4-0.3,0.9,0,1.3c0.3,0.3,0.9,0.3,1.2,0L50,18.2l14.4,14.5c0.2,0.2,0.4,0.2,0.7,0.2
	c0.2,0,0.5-0.1,0.7-0.2C66.1,32.4,66.1,31.8,65.7,31.4L65.7,31.4z"/>
<path id="Shop_header" class="st0" d="M39,66.1c-0.4-0.5-1-0.9-1.6-1.1c-0.7-0.3-1.4-0.4-2.1-0.4c-0.5,0-1.1,0.1-1.6,0.2
	c-0.5,0.1-1,0.4-1.4,0.7c-0.4,0.3-0.8,0.7-1,1.2c-0.3,0.5-0.4,1.1-0.4,1.7c0,0.5,0.1,1.1,0.3,1.5c0.2,0.4,0.4,0.8,0.8,1
	c0.3,0.3,0.7,0.5,1.1,0.7c0.4,0.2,0.8,0.3,1.2,0.5c0.4,0.1,0.8,0.3,1.2,0.4c0.3,0.1,0.7,0.3,1,0.5c0.3,0.2,0.5,0.4,0.7,0.7
	c0.2,0.3,0.3,0.7,0.2,1c0,0.4-0.1,0.7-0.2,1c-0.1,0.3-0.4,0.5-0.6,0.7c-0.2,0.2-0.5,0.3-0.8,0.4C35.3,77,35,77,34.7,77
	c-0.6,0-1.1-0.1-1.6-0.4c-0.5-0.3-0.9-0.7-1.2-1.1l-1.4,1.2c0.5,0.6,1.1,1.1,1.9,1.5c0.7,0.3,1.5,0.5,2.3,0.5c0.6,0,1.1-0.1,1.6-0.2
	c0.5-0.2,1-0.4,1.4-0.7c0.4-0.3,0.8-0.8,1-1.3c0.3-0.6,0.4-1.2,0.4-1.8c0-0.6-0.1-1.1-0.3-1.7c-0.2-0.4-0.5-0.8-0.9-1.1
	c-0.4-0.3-0.8-0.5-1.2-0.7c-0.4-0.2-0.9-0.3-1.3-0.5c-0.4-0.1-0.7-0.2-1-0.4c-0.3-0.1-0.6-0.3-0.8-0.4c-0.2-0.2-0.4-0.4-0.6-0.6
	c-0.1-0.3-0.2-0.6-0.2-0.9c0-0.3,0.1-0.7,0.2-1c0.1-0.3,0.3-0.5,0.6-0.7c0.2-0.2,0.5-0.3,0.8-0.4c0.3-0.1,0.6-0.1,0.9-0.1
	c0.5,0,1,0.1,1.5,0.3c0.4,0.2,0.8,0.5,1,0.9L39,66.1z M43.1,70.7V64h-1.7v14.3h1.7v-4.8c0-0.8,0.2-1.5,0.6-2.2
	c0.4-0.5,1-0.8,1.7-0.8c0.3,0,0.7,0.1,1,0.2c0.2,0.1,0.4,0.4,0.6,0.6c0.2,0.3,0.3,0.6,0.3,0.9c0.1,0.3,0.1,0.7,0.1,1v5h1.7v-5.6
	c0-0.5-0.1-1-0.2-1.4c-0.1-0.4-0.3-0.8-0.6-1.2c-0.3-0.3-0.6-0.6-1-0.8c-0.4-0.2-0.9-0.3-1.4-0.3c-0.6,0-1.2,0.2-1.7,0.5
	C43.8,69.8,43.4,70.2,43.1,70.7L43.1,70.7L43.1,70.7z M60.1,71.9c-0.4-1.1-1.3-2-2.4-2.5c-1.2-0.5-2.5-0.5-3.6,0
	c-0.5,0.2-1,0.6-1.5,1c-0.4,0.4-0.7,0.9-1,1.5c-0.2,0.6-0.4,1.2-0.4,1.9c0,0.7,0.1,1.3,0.4,1.9c0.2,0.6,0.5,1.1,1,1.5
	c0.4,0.4,0.9,0.8,1.5,1c1.2,0.5,2.5,0.5,3.6,0c0.6-0.2,1.1-0.6,1.5-1c0.4-0.4,0.8-0.9,1-1.5c0.2-0.6,0.4-1.3,0.4-1.9
	C60.5,73.1,60.4,72.5,60.1,71.9z M58.5,75c-0.1,0.4-0.3,0.7-0.6,1c-0.2,0.3-0.5,0.5-0.9,0.7c-0.8,0.4-1.7,0.4-2.4,0
	c-0.3-0.2-0.7-0.4-0.9-0.7c-0.2-0.3-0.4-0.7-0.6-1c-0.3-0.8-0.3-1.7,0-2.5c0.1-0.4,0.3-0.7,0.6-1c0.2-0.3,0.5-0.5,0.9-0.7
	c0.8-0.4,1.7-0.4,2.4,0c0.3,0.2,0.7,0.4,0.9,0.7c0.2,0.3,0.4,0.7,0.6,1C58.8,73.4,58.8,74.2,58.5,75L58.5,75z M64.4,76.9L64.4,76.9
	c0.4,0.5,0.8,0.9,1.3,1.2c0.5,0.3,1.1,0.4,1.7,0.4c0.6,0,1.2-0.1,1.8-0.4c0.5-0.2,1-0.6,1.3-1c0.4-0.4,0.7-1,0.9-1.5
	c0.2-0.6,0.3-1.2,0.3-1.9c0-0.6-0.1-1.3-0.3-1.8c-0.2-0.6-0.5-1.1-0.9-1.5c-0.4-0.4-0.8-0.8-1.3-1c-0.5-0.2-1.1-0.4-1.7-0.4
	c-0.6,0-1.3,0.1-1.9,0.5c-0.5,0.3-0.9,0.7-1.2,1.2h-0.1v-1.4h-1.7v13.5h1.7L64.4,76.9L64.4,76.9z M69.8,75c-0.1,0.4-0.3,0.7-0.5,1
	c-0.2,0.3-0.5,0.6-0.9,0.7C68,76.9,67.6,77,67.2,77c-0.4,0-0.8-0.1-1.2-0.3c-0.3-0.2-0.7-0.4-0.9-0.7c-0.3-0.3-0.5-0.7-0.6-1
	c-0.3-0.8-0.3-1.7,0-2.5c0.1-0.4,0.3-0.7,0.6-1c0.2-0.3,0.6-0.5,0.9-0.7c0.4-0.2,0.8-0.3,1.2-0.3c0.4,0,0.8,0.1,1.2,0.3
	c0.3,0.2,0.7,0.4,0.9,0.7c0.2,0.3,0.4,0.7,0.5,1C70.1,73.4,70.1,74.2,69.8,75L69.8,75z"/>
</svg>
