<svg xmlns="http://www.w3.org/2000/svg" width="42" height="18" viewBox="0 0 42 18">
  <defs>
    <style>
      .cls-2 {
        fill: #252525;
        fill-rule: evenodd;
      }
    </style>
  </defs>
  <path class="cls-2" d="M1163.43,35.492a6.131,6.131,0,0,1-2.25-.418,3.773,3.773,0,0,1-1.71-1.312,0.153,0.153,0,0,1,.02-0.191l1.35-1.159a0.114,0.114,0,0,1,.09-0.034h0.02a0.166,0.166,0,0,1,.1.062,2.575,2.575,0,0,0,1.07.931,3.265,3.265,0,0,0,1.36.3,2.717,2.717,0,0,0,.79-0.123,2.372,2.372,0,0,0,.73-0.363,1.826,1.826,0,0,0,.53-0.589,1.493,1.493,0,0,0,.21-0.8,1.171,1.171,0,0,0-.39-0.956,3.815,3.815,0,0,0-1.06-.59c-0.44-.164-0.91-0.322-1.42-0.475a5.855,5.855,0,0,1-1.46-.655,3.353,3.353,0,0,1-1.61-3.089,3.4,3.4,0,0,1,.99-2.319,4.1,4.1,0,0,1,1.32-.858,4.822,4.822,0,0,1,1.91-.344,6.641,6.641,0,0,1,1.93.278,3.388,3.388,0,0,1,1.65,1.156,0.146,0.146,0,0,1-.01.2l-1.33,1.211a0.125,0.125,0,0,1-.09.037h-0.02a0.141,0.141,0,0,1-.1-0.064,2.1,2.1,0,0,0-.82-0.719,2.585,2.585,0,0,0-1.21-.273,2.927,2.927,0,0,0-1.07.168,1.957,1.957,0,0,0-.68.427,1.635,1.635,0,0,0-.35.553,1.671,1.671,0,0,0-.1.552,1.368,1.368,0,0,0,.4,1.072,3.242,3.242,0,0,0,1.05.638,13.347,13.347,0,0,0,1.41.456,6.074,6.074,0,0,1,1.46.584,3.5,3.5,0,0,1,1.15,1.031,3.076,3.076,0,0,1,.46,1.8,3.762,3.762,0,0,1-.34,1.631,3.645,3.645,0,0,1-.93,1.225,4.207,4.207,0,0,1-1.37.76A5.335,5.335,0,0,1,1163.43,35.492Zm12.67-.307a0.139,0.139,0,0,1-.14-0.142V30.266a2.475,2.475,0,0,0-.15-0.913,1.632,1.632,0,0,0-.37-0.6,1.468,1.468,0,0,0-.54-0.326,1.992,1.992,0,0,0-.64-0.1,2.309,2.309,0,0,0-.83.145,1.656,1.656,0,0,0-.66.449,2.213,2.213,0,0,0-.45.793,3.683,3.683,0,0,0-.16,1.166v4.163a0.146,0.146,0,0,1-.14.142h-1.53a0.148,0.148,0,0,1-.15-0.142v-12.9a0.148,0.148,0,0,1,.15-0.142h1.53a0.146,0.146,0,0,1,.14.142v5.591a2.559,2.559,0,0,1,.82-0.709,3.505,3.505,0,0,1,1.72-.418,3.68,3.68,0,0,1,1.16.185,2.64,2.64,0,0,1,.99.586,2.774,2.774,0,0,1,.67,1.014,3.753,3.753,0,0,1,.25,1.445v5.2a0.139,0.139,0,0,1-.14.142h-1.53Zm8.58,0.2a4.386,4.386,0,0,1-1.74-.344,4.5,4.5,0,0,1-1.41-.934,4.353,4.353,0,0,1-.94-1.393,4.306,4.306,0,0,1-.34-1.72,4.246,4.246,0,0,1,.34-1.711,4.487,4.487,0,0,1,.94-1.393,4.471,4.471,0,0,1,6.29,0,4.487,4.487,0,0,1,.94,1.393A4.246,4.246,0,0,1,1189.1,31a4.336,4.336,0,0,1-1.28,3.113,4.5,4.5,0,0,1-1.41.934A4.372,4.372,0,0,1,1184.68,35.39Zm0-7.063a2.617,2.617,0,0,0-1.05.2,2.313,2.313,0,0,0-.79.546,2.526,2.526,0,0,0-.5.839,3.368,3.368,0,0,0,0,2.173,2.5,2.5,0,0,0,.5.838,2.3,2.3,0,0,0,.79.547,2.805,2.805,0,0,0,2.09,0,2.3,2.3,0,0,0,.79-0.547,2.5,2.5,0,0,0,.5-0.838,3.368,3.368,0,0,0,0-2.173,2.516,2.516,0,0,0-.5-0.839,2.313,2.313,0,0,0-.79-0.546A2.6,2.6,0,0,0,1184.68,28.327ZM1191.74,40a0.139,0.139,0,0,1-.14-0.142v-12.9a0.14,0.14,0,0,1,.14-0.142h1.53a0.148,0.148,0,0,1,.15.142v0.791a3.185,3.185,0,0,1,1.04-.767,3.947,3.947,0,0,1,1.65-.37,4.448,4.448,0,0,1,1.75.334,3.926,3.926,0,0,1,1.34.939,4.238,4.238,0,0,1,.86,1.4,5.081,5.081,0,0,1,.29,1.713,5.134,5.134,0,0,1-.29,1.731,4.106,4.106,0,0,1-.86,1.4,3.956,3.956,0,0,1-1.34.929,4.43,4.43,0,0,1-1.75.335,3.9,3.9,0,0,1-1.69-.38,2.968,2.968,0,0,1-1-.748v5.592a0.148,0.148,0,0,1-.15.142h-1.53Zm4.19-11.67a2.617,2.617,0,0,0-1.05.2,2.313,2.313,0,0,0-.79.546,2.526,2.526,0,0,0-.5.839,3.556,3.556,0,0,0,0,2.173,2.5,2.5,0,0,0,.5.838,2.3,2.3,0,0,0,.79.547,2.617,2.617,0,0,0,1.05.2,2.651,2.651,0,0,0,1.05-.2,2.262,2.262,0,0,0,.78-0.547,2.5,2.5,0,0,0,.5-0.838,3.368,3.368,0,0,0,0-2.173,2.516,2.516,0,0,0-.5-0.839,2.371,2.371,0,0,0-.78-0.546A2.651,2.651,0,0,0,1195.93,28.327Z" transform="translate(-1159 -22)"/>
</svg>
