<svg xmlns="http://www.w3.org/2000/svg" width="132" height="18" viewBox="0 0 132 18">
  <defs>
    <style>
      .cls-1, .cls-2 {
        fill-rule: evenodd;
      }

      .cls-2 {
        fill: #252525;
      }
    </style>
  </defs>
  <path class="cls-2" d="M1388.4,33.851a3.625,3.625,0,0,0,1.65,1.258,5.97,5.97,0,0,0,2.2.408,5.151,5.151,0,0,0,1.63-.255,3.89,3.89,0,0,0,1.32-.731,3.4,3.4,0,0,0,.9-1.173,3.609,3.609,0,0,0,.33-1.564,2.936,2.936,0,0,0-.44-1.709,3.351,3.351,0,0,0-1.1-.986,6.122,6.122,0,0,0-1.43-.569,13.983,13.983,0,0,1-1.43-.459,3.418,3.418,0,0,1-1.09-.663,1.5,1.5,0,0,1-.44-1.173,1.693,1.693,0,0,1,.11-0.595,1.587,1.587,0,0,1,.38-0.6,2.011,2.011,0,0,1,.72-0.459,3.1,3.1,0,0,1,1.13-.178,2.773,2.773,0,0,1,1.28.289,2.183,2.183,0,0,1,.86.765l1.33-1.207a3.23,3.23,0,0,0-1.58-1.105,6.506,6.506,0,0,0-1.89-.272,4.738,4.738,0,0,0-1.86.331,3.974,3.974,0,0,0-1.27.825,3.061,3.061,0,0,0-.72,1.088,3.193,3.193,0,0,0-.23,1.122,3.457,3.457,0,0,0,.44,1.861,3.519,3.519,0,0,0,1.1,1.1,5.81,5.81,0,0,0,1.43.637c0.51,0.153.99,0.312,1.43,0.476a3.807,3.807,0,0,1,1.09.612,1.283,1.283,0,0,1,.44,1.063,1.645,1.645,0,0,1-.22.867,1.908,1.908,0,0,1-.57.629,2.523,2.523,0,0,1-.77.383,2.864,2.864,0,0,1-.83.127,3.374,3.374,0,0,1-1.42-.314,2.646,2.646,0,0,1-1.13-.978ZM1398.32,40h1.53v-5.95h0.03a2.766,2.766,0,0,0,1.17.994,3.755,3.755,0,0,0,1.63.366,4.308,4.308,0,0,0,1.7-.323,3.792,3.792,0,0,0,2.11-2.236,4.586,4.586,0,0,0,.29-1.675,4.54,4.54,0,0,0-.29-1.657,3.954,3.954,0,0,0-.82-1.352,3.806,3.806,0,0,0-1.29-.9,4.31,4.31,0,0,0-1.7-.323,3.708,3.708,0,0,0-1.58.357,2.874,2.874,0,0,0-1.22,1h-0.03V27.153h-1.53V40Zm5.28-11.415a2.494,2.494,0,0,1,.84.578,2.57,2.57,0,0,1,.52.884,3.458,3.458,0,0,1,0,2.261,2.563,2.563,0,0,1-.52.884,2.483,2.483,0,0,1-.84.578,2.734,2.734,0,0,1-1.1.212,2.783,2.783,0,0,1-1.11-.212,2.441,2.441,0,0,1-.83-0.578,2.582,2.582,0,0,1-.53-0.884,3.64,3.64,0,0,1,0-2.261,2.59,2.59,0,0,1,.53-0.884,2.452,2.452,0,0,1,.83-0.578,2.79,2.79,0,0,1,1.11-.213A2.741,2.741,0,0,1,1403.6,28.589Zm13.59,3.153V31.2a5.728,5.728,0,0,0-.21-1.538,3.793,3.793,0,0,0-.69-1.36,3.617,3.617,0,0,0-1.21-.977,4.014,4.014,0,0,0-1.81-.374,4.23,4.23,0,0,0-1.67.323,3.947,3.947,0,0,0-2.18,2.236,4.4,4.4,0,0,0-.32,1.674,4.806,4.806,0,0,0,.29,1.675,4.013,4.013,0,0,0,.82,1.343,3.836,3.836,0,0,0,1.31.893,4.459,4.459,0,0,0,1.73.323,4.254,4.254,0,0,0,3.57-1.649l-1.16-.884a3.935,3.935,0,0,1-.97.875,2.266,2.266,0,0,1-1.24.332,3.114,3.114,0,0,1-1.02-.17,2.637,2.637,0,0,1-.86-0.476,2.5,2.5,0,0,1-.61-0.739,2.056,2.056,0,0,1-.23-0.961h6.46Zm-6.46-1.224a2.067,2.067,0,0,1,.18-0.824,2.681,2.681,0,0,1,.5-0.757,2.584,2.584,0,0,1,.79-0.552,2.474,2.474,0,0,1,1.03-.213,2.622,2.622,0,0,1,1.01.179,2.086,2.086,0,0,1,.73.493,2.149,2.149,0,0,1,.43.739,3.068,3.068,0,0,1,.16.935h-4.83Zm16.09-2.278a3.729,3.729,0,0,0-1.4-.96,4.619,4.619,0,0,0-1.69-.314,4.566,4.566,0,0,0-1.73.314,3.852,3.852,0,0,0-2.18,2.218,4.555,4.555,0,0,0-.31,1.717,4.487,4.487,0,0,0,.31,1.708,3.774,3.774,0,0,0,.86,1.326,3.984,3.984,0,0,0,1.34.858,4.568,4.568,0,0,0,1.71.306,4.824,4.824,0,0,0,1.67-.289,3.439,3.439,0,0,0,1.39-.952l-1.09-1.088a2.772,2.772,0,0,1-.85.671,2.484,2.484,0,0,1-1.11.23,2.622,2.622,0,0,1-1.07-.212,2.4,2.4,0,0,1-.81-0.587,2.55,2.55,0,0,1-.53-0.876,3.126,3.126,0,0,1-.19-1.062,3.872,3.872,0,0,1,.16-1.079,2.879,2.879,0,0,1,.48-0.918,2.247,2.247,0,0,1,.78-0.629,2.775,2.775,0,0,1,2.21,0,3.369,3.369,0,0,1,.9.671Zm2.29,6.97h1.53V27.153h-1.53v8.058Zm-0.02-10.158a1.107,1.107,0,0,0,1.58,0,1.112,1.112,0,0,0,0-1.581,1.107,1.107,0,0,0-1.58,0A1.112,1.112,0,0,0,1429.09,25.053Zm5.64,4.038c0.14-.1.28-0.21,0.43-0.323a2.453,2.453,0,0,1,.49-0.3,3.393,3.393,0,0,1,.6-0.213,3.162,3.162,0,0,1,.78-0.085,2.3,2.3,0,0,1,.85.145,1.774,1.774,0,0,1,.59.391,1.682,1.682,0,0,1,.48,1.165v0.34h-1.12a9.818,9.818,0,0,0-1.73.144,4.557,4.557,0,0,0-1.41.476,2.634,2.634,0,0,0-.95.858,2.265,2.265,0,0,0-.35,1.309,2.309,2.309,0,0,0,.22,1.045,2.272,2.272,0,0,0,.6.757,2.7,2.7,0,0,0,.9.459,3.671,3.671,0,0,0,1.07.153,3.774,3.774,0,0,0,1.61-.323,2.9,2.9,0,0,0,1.21-1.105h0.03c0,0.408.02,0.816,0.05,1.224h1.36c-0.02-.215-0.04-0.442-0.05-0.68s-0.01-.5-0.01-0.782V29.635a2.69,2.69,0,0,0-.2-1.011,2.36,2.36,0,0,0-.6-0.858,3.014,3.014,0,0,0-1.05-.6,4.634,4.634,0,0,0-1.52-.221,5.123,5.123,0,0,0-1.7.3,4.246,4.246,0,0,0-1.5.892Zm4.22,2.244v0.51a2.967,2.967,0,0,1-.12.825,2.169,2.169,0,0,1-.39.756,1.974,1.974,0,0,1-.72.553,2.431,2.431,0,0,1-1.07.212,2.267,2.267,0,0,1-1.26-.306,1.092,1.092,0,0,1-.47-1,1.071,1.071,0,0,1,.3-0.782,1.932,1.932,0,0,1,.76-0.476,4.378,4.378,0,0,1,1.04-.229,10.738,10.738,0,0,1,1.11-.059h0.82Zm4.63,3.876h1.53V22.359h-1.53V35.211Zm12.77,0h1.73l2.89-9.826h0.04l2.9,9.826h1.74l3.5-12.036h-1.7l-2.66,9.622h-0.04l-2.83-9.622h-1.87l-2.83,9.622h-0.03l-2.66-9.622h-1.7Zm21.97-3.468V31.2a5.728,5.728,0,0,0-.21-1.538,3.793,3.793,0,0,0-.69-1.36,3.559,3.559,0,0,0-1.22-.977,3.955,3.955,0,0,0-1.81-.374,4.216,4.216,0,0,0-1.66.323,3.989,3.989,0,0,0-1.32.893,4.142,4.142,0,0,0-.87,1.343,4.4,4.4,0,0,0-.31,1.674,4.586,4.586,0,0,0,.29,1.675,3.858,3.858,0,0,0,.82,1.343,3.743,3.743,0,0,0,1.31.893,4.459,4.459,0,0,0,1.73.323,4.254,4.254,0,0,0,3.57-1.649l-1.16-.884a4.121,4.121,0,0,1-.97.875,2.266,2.266,0,0,1-1.24.332,3.114,3.114,0,0,1-1.02-.17,2.8,2.8,0,0,1-.87-0.476,2.328,2.328,0,0,1-.6-0.739,2.056,2.056,0,0,1-.23-0.961h6.46Zm-6.46-1.224a2.067,2.067,0,0,1,.18-0.824,2.5,2.5,0,0,1,1.29-1.309,2.441,2.441,0,0,1,1.03-.213,2.658,2.658,0,0,1,1.01.179,1.958,1.958,0,0,1,.72.493,2.172,2.172,0,0,1,.44.739,3.406,3.406,0,0,1,.16.935h-4.83Zm9.21,4.692h1.53V34.055h0.03a2.933,2.933,0,0,0,1.22,1,3.718,3.718,0,0,0,1.59.357,4.293,4.293,0,0,0,1.69-.323,3.8,3.8,0,0,0,1.29-.9,3.966,3.966,0,0,0,.82-1.343,4.52,4.52,0,0,0,.29-1.666,4.589,4.589,0,0,0-.29-1.674,3.792,3.792,0,0,0-2.11-2.236,4.3,4.3,0,0,0-1.69-.323,3.768,3.768,0,0,0-1.64.366,2.771,2.771,0,0,0-1.17.995h-0.03v-5.95h-1.53V35.211Zm3.07-1.437a2.441,2.441,0,0,1-.83-0.578,2.582,2.582,0,0,1-.53-0.884,3.64,3.64,0,0,1,0-2.261,2.59,2.59,0,0,1,.53-0.884,2.452,2.452,0,0,1,.83-0.578,2.79,2.79,0,0,1,1.11-.213,2.741,2.741,0,0,1,1.1.213,2.494,2.494,0,0,1,.84.578,2.57,2.57,0,0,1,.52.884,3.458,3.458,0,0,1,0,2.261,2.563,2.563,0,0,1-.52.884,2.483,2.483,0,0,1-.84.578,2.734,2.734,0,0,1-1.1.212A2.783,2.783,0,0,1,1484.14,33.774Zm13.59-5.5a2.45,2.45,0,0,0-1.19-1.02,4.119,4.119,0,0,0-2.67-.153,3.168,3.168,0,0,0-.99.459,2.389,2.389,0,0,0-.7.773,2.258,2.258,0,0,0-.26,1.1,2.156,2.156,0,0,0,.2.969,1.906,1.906,0,0,0,.55.646,2.669,2.669,0,0,0,.78.408c0.29,0.1.61,0.193,0.93,0.272,0.17,0.034.37,0.076,0.59,0.128a3.8,3.8,0,0,1,.63.2,1.51,1.51,0,0,1,.51.349,0.827,0.827,0,0,1,.07,1.011,1.141,1.141,0,0,1-.38.323,1.712,1.712,0,0,1-.52.187,3.035,3.035,0,0,1-.59.059,2.046,2.046,0,0,1-1.12-.289,4.279,4.279,0,0,1-.83-0.663l-1.16.952a3.207,3.207,0,0,0,1.35,1.122,4.688,4.688,0,0,0,1.76.306,5.177,5.177,0,0,0,1.18-.136,3.214,3.214,0,0,0,1.05-.442,2.591,2.591,0,0,0,.75-0.791,2.256,2.256,0,0,0,.28-1.164,2.444,2.444,0,0,0-.17-0.952,1.947,1.947,0,0,0-.5-0.663,2.572,2.572,0,0,0-.75-0.442,6.593,6.593,0,0,0-.92-0.289l-0.61-.119a3.21,3.21,0,0,1-.68-0.2,1.873,1.873,0,0,1-.54-0.357,0.777,0.777,0,0,1-.23-0.578,0.726,0.726,0,0,1,.4-0.671,1.865,1.865,0,0,1,.94-0.23,1.916,1.916,0,0,1,.98.23,2.276,2.276,0,0,1,.67.569Zm2.64,6.936h1.53V27.153h-1.53v8.058Zm-0.03-10.158a1.086,1.086,0,0,0,.79.331,1.07,1.07,0,0,0,.79-0.331,1.089,1.089,0,0,0,0-1.581,1.07,1.07,0,0,0-.79-0.332A1.119,1.119,0,0,0,1500.34,25.053Zm9.27,2.1h-2.2V24.892h-1.53v2.261h-1.76v1.326h1.76v4.2c0,0.329.02,0.654,0.05,0.977a1.866,1.866,0,0,0,.27.876,1.666,1.666,0,0,0,.71.637,3.075,3.075,0,0,0,1.37.247,5.284,5.284,0,0,0,.67-0.059,2.011,2.011,0,0,0,.71-0.213V33.749a1.666,1.666,0,0,1-.53.187,3.2,3.2,0,0,1-.56.051,1.138,1.138,0,0,1-.67-0.161,0.9,0.9,0,0,1-.34-0.425,1.6,1.6,0,0,1-.13-0.595c-0.01-.221-0.02-0.445-0.02-0.672V28.479h2.2V27.153Zm10.16,4.59V31.2a5.728,5.728,0,0,0-.21-1.538,4.144,4.144,0,0,0-.69-1.36,3.559,3.559,0,0,0-1.22-.977,3.955,3.955,0,0,0-1.81-.374,4.216,4.216,0,0,0-1.66.323,3.989,3.989,0,0,0-1.32.893,4.142,4.142,0,0,0-.87,1.343,4.4,4.4,0,0,0-.31,1.674,4.586,4.586,0,0,0,.29,1.675,3.858,3.858,0,0,0,.82,1.343,3.743,3.743,0,0,0,1.31.893,4.408,4.408,0,0,0,1.72.323,4.254,4.254,0,0,0,3.57-1.649l-1.15-.884a4.121,4.121,0,0,1-.97.875,2.289,2.289,0,0,1-1.24.332,3.114,3.114,0,0,1-1.02-.17,2.8,2.8,0,0,1-.87-0.476,2.328,2.328,0,0,1-.6-0.739,2.056,2.056,0,0,1-.23-0.961h6.46Zm-6.46-1.224a2.067,2.067,0,0,1,.18-0.824,2.5,2.5,0,0,1,1.29-1.309,2.441,2.441,0,0,1,1.03-.213,2.658,2.658,0,0,1,1.01.179,1.958,1.958,0,0,1,.72.493,2.172,2.172,0,0,1,.44.739,3.406,3.406,0,0,1,.16.935h-4.83Z" transform="translate(-1388 -22)"/>
</svg>
