<svg xmlns="http://www.w3.org/2000/svg" width="30" height="18" viewBox="0 0 30 18">
  <defs>
    <style>
      .cls-2 {
        fill: #252525;
        fill-rule: evenodd;
      }
    </style>
  </defs>
  <path class="cls-2" d="M970.019,35.185a0.142,0.142,0,0,1-.141-0.142v-10.4h-3.736A0.142,0.142,0,0,1,966,24.5V22.964a0.142,0.142,0,0,1,.142-0.142h9.387a0.142,0.142,0,0,1,.142.142V24.5a0.142,0.142,0,0,1-.142.142h-3.736v10.4a0.142,0.142,0,0,1-.141.142h-1.633Zm9.864,0.2a4.406,4.406,0,0,1-1.739-.344,4.465,4.465,0,0,1-1.4-.934A4.355,4.355,0,0,1,975.456,31a4.282,4.282,0,0,1,.343-1.711,4.481,4.481,0,0,1,5.822-2.335,4.4,4.4,0,0,1,1.406.943,4.467,4.467,0,0,1,.939,1.393A4.266,4.266,0,0,1,984.31,31a4.35,4.35,0,0,1-1.284,3.113,4.454,4.454,0,0,1-1.4.934A4.4,4.4,0,0,1,979.883,35.39Zm0-7.063a2.634,2.634,0,0,0-1.05.2,2.326,2.326,0,0,0-.786.546,2.439,2.439,0,0,0-.5.839,3.386,3.386,0,0,0,0,2.173,2.432,2.432,0,0,0,.5.838,2.316,2.316,0,0,0,.786.547,2.829,2.829,0,0,0,2.1,0,2.3,2.3,0,0,0,.785-0.547,2.418,2.418,0,0,0,.5-0.838,3.386,3.386,0,0,0,0-2.173,2.417,2.417,0,0,0-.5-0.839,2.312,2.312,0,0,0-.785-0.546A2.629,2.629,0,0,0,979.883,28.327ZM986.95,40a0.142,0.142,0,0,1-.142-0.142v-12.9a0.142,0.142,0,0,1,.142-0.142h1.531a0.142,0.142,0,0,1,.141.142v0.791a3.16,3.16,0,0,1,1.049-.767,3.916,3.916,0,0,1,1.65-.37,4.436,4.436,0,0,1,1.747.334,3.93,3.93,0,0,1,1.341.939,4.24,4.24,0,0,1,.854,1.4,4.894,4.894,0,0,1,.3,1.713,4.946,4.946,0,0,1-.3,1.731,4.11,4.11,0,0,1-.855,1.4,3.947,3.947,0,0,1-1.34.929,4.429,4.429,0,0,1-1.747.335,3.886,3.886,0,0,1-1.694-.38,3.082,3.082,0,0,1-1-.748v5.592a0.141,0.141,0,0,1-.141.142H986.95Zm4.183-11.67a2.629,2.629,0,0,0-1.049.2,2.326,2.326,0,0,0-.786.546,2.439,2.439,0,0,0-.5.839,3.386,3.386,0,0,0,0,2.173,2.432,2.432,0,0,0,.5.838,2.316,2.316,0,0,0,.786.547,2.829,2.829,0,0,0,2.1,0,2.3,2.3,0,0,0,.785-0.547,2.434,2.434,0,0,0,.5-0.838,3.386,3.386,0,0,0,0-2.173,2.432,2.432,0,0,0-.5-0.839,2.312,2.312,0,0,0-.785-0.546A2.634,2.634,0,0,0,991.133,28.327Z" transform="translate(-966 -22)"/>
</svg>
