<svg xmlns="http://www.w3.org/2000/svg" width="602" height="102" viewBox="0 0 602 102">
  <defs>
    <style>
      .cls-1 {
        stroke: #252525;
        stroke-width: 0.3px;
        fill: #252525;
        fill-rule: evenodd;
      }
      .cls-2 {
        fill: #e60012;
        fill-rule: evenodd;
      }
    </style>
  </defs>
  <path class="cls-1" d="M307.842,3109.61a5.521,5.521,0,0,0-2.74-2.52,9.645,9.645,0,0,0-3.9-.8,10.725,10.725,0,0,0-8.149,3.59,11.976,11.976,0,0,0-2.281,3.89,13.7,13.7,0,0,0-.811,4.74,9.433,9.433,0,0,0,.608,3.45,7.429,7.429,0,0,0,1.761,2.66,7.952,7.952,0,0,0,2.752,1.73,10.186,10.186,0,0,0,3.6.61,9.28,9.28,0,0,0,4.2-.91,11.75,11.75,0,0,0,3.241-2.45l-1.721-1.56a8.191,8.191,0,0,1-2.36,1.85,6.654,6.654,0,0,1-3.16.71,6.443,6.443,0,0,1-2.56-.48,5.481,5.481,0,0,1-3.081-3.33,7.593,7.593,0,0,1-.4-2.5,11.085,11.085,0,0,1,.621-3.73,9.976,9.976,0,0,1,1.72-3.07,8.016,8.016,0,0,1,2.62-2.09,7.405,7.405,0,0,1,3.32-.76,5.005,5.005,0,0,1,2.7.74,4.041,4.041,0,0,1,1.661,1.87Zm12.6-14.91h-2.72l-5.321,31.75h2.72Zm17.277,31.29a11.052,11.052,0,0,0,3.521-2.6,11.82,11.82,0,0,0,2.3-3.87,13.586,13.586,0,0,0,.82-4.74,9.02,9.02,0,0,0-.64-3.45,8.207,8.207,0,0,0-1.78-2.69,7.9,7.9,0,0,0-2.721-1.74,9.573,9.573,0,0,0-3.5-.61,10.25,10.25,0,0,0-4.48.97,10.962,10.962,0,0,0-3.521,2.62,12.1,12.1,0,0,0-2.3,3.87,13.31,13.31,0,0,0-.82,4.68,9.089,9.089,0,0,0,.64,3.46,7.8,7.8,0,0,0,1.78,2.69,8.184,8.184,0,0,0,2.741,1.75,9.41,9.41,0,0,0,3.48.63A10.4,10.4,0,0,0,337.72,3125.99Zm3.242-7.3a9.722,9.722,0,0,1-1.675,3.05,8.11,8.11,0,0,1-2.573,2.08,7.014,7.014,0,0,1-3.291.78,6.159,6.159,0,0,1-2.493-.48,5.515,5.515,0,0,1-3.052-3.33,7.593,7.593,0,0,1-.4-2.5,11,11,0,0,1,.619-3.69,10.216,10.216,0,0,1,1.695-3.07,8.127,8.127,0,0,1,2.553-2.11,6.808,6.808,0,0,1,3.231-.78,6.138,6.138,0,0,1,2.513.49,5.511,5.511,0,0,1,1.9,1.32,5.678,5.678,0,0,1,1.177,2,7.723,7.723,0,0,1,.4,2.51A11.463,11.463,0,0,1,340.962,3118.69Zm24.6-9.16a5.545,5.545,0,0,0-2.46-2.36,8.358,8.358,0,0,0-3.86-.88,9.787,9.787,0,0,0-2.56.34,7.354,7.354,0,0,0-2.3,1.03,5.651,5.651,0,0,0-1.68,1.79,4.962,4.962,0,0,0-.66,2.61,4.7,4.7,0,0,0,.42,2.08,4.762,4.762,0,0,0,1.1,1.48,5.976,5.976,0,0,0,1.52.98c0.561,0.26,1.121.48,1.681,0.68a13.807,13.807,0,0,1,3.38,1.58,2.711,2.711,0,0,1,1.18,2.38,2.875,2.875,0,0,1-.4,1.53,3.019,3.019,0,0,1-1.06,1.05,4.75,4.75,0,0,1-1.5.59,7.583,7.583,0,0,1-1.72.19,5.914,5.914,0,0,1-5.2-2.94l-2.32,1.6a7.062,7.062,0,0,0,3.22,2.79,10.926,10.926,0,0,0,4.421.91,10.1,10.1,0,0,0,2.52-.34,7.037,7.037,0,0,0,2.32-1.07,6.028,6.028,0,0,0,1.72-1.89,5.336,5.336,0,0,0,.68-2.75,4.629,4.629,0,0,0-1.44-3.64,11.26,11.26,0,0,0-4.2-2.12,14.659,14.659,0,0,1-1.56-.52,4.987,4.987,0,0,1-1.16-.63,2.567,2.567,0,0,1-.741-0.86,2.85,2.85,0,0,1-.26-1.3,2.6,2.6,0,0,1,.42-1.5,3.287,3.287,0,0,1,1.081-.98,5,5,0,0,1,1.44-.55,7.264,7.264,0,0,1,1.5-.17,4.926,4.926,0,0,1,2.68.7,4.465,4.465,0,0,1,1.68,1.78Zm23.394,7.85a12.23,12.23,0,0,0,.28-1.87q0.079-1.035.08-1.53a7.859,7.859,0,0,0-1.98-5.55,7.568,7.568,0,0,0-5.821-2.14,9.394,9.394,0,0,0-4.26.99,11.388,11.388,0,0,0-3.44,2.62,12.415,12.415,0,0,0-2.3,3.83,12.6,12.6,0,0,0-.84,4.57,9.659,9.659,0,0,0,.66,3.68,7.573,7.573,0,0,0,4.5,4.39,9.494,9.494,0,0,0,3.36.59,10.517,10.517,0,0,0,4.6-1.04,10.717,10.717,0,0,0,3.8-3.08l-1.68-1.68a9.239,9.239,0,0,1-2.641,2.41,7.042,7.042,0,0,1-3.84,1.03,6.043,6.043,0,0,1-2.38-.46,5.822,5.822,0,0,1-1.92-1.31,6.079,6.079,0,0,1-1.281-1.99,6.7,6.7,0,0,1-.46-2.53c0-.14.007-0.29,0.02-0.45s0.034-.31.06-0.48H388.96Zm-15.121-2.1a8.646,8.646,0,0,1,.96-2.54,8.827,8.827,0,0,1,1.66-2.12,7.291,7.291,0,0,1,2.24-1.45,7.054,7.054,0,0,1,2.74-.53,5.006,5.006,0,0,1,3.88,1.45,5.32,5.32,0,0,1,1.321,3.72c0,0.22-.007.47-0.02,0.73s-0.034.52-.06,0.74H373.839Z" transform="translate(-19 -3061)"/>
  <path class="cls-2" d="M250,3105l10,10,10-10,2,2-10,10,10,10-2,2-10-10-10,10-2-2,10-10-10-10Z" transform="translate(-19 -3061)"/>
</svg>
