<svg xmlns="http://www.w3.org/2000/svg" width="99" height="23" viewBox="0 0 99 23">
  <defs>
    <style>
      .cls-1 {
        fill: #252525;
        fill-rule: evenodd;
      }
    </style>
  </defs>
  <path data-name="page top" class="cls-1" d="M275.78,6779.25l0.312-1.92h-2.161l-3.024,17.99h2.232l1.32-7.99h0.048a3.968,3.968,0,0,0,1.549,1.67,4.672,4.672,0,0,0,2.412.6,5.757,5.757,0,0,0,2.58-.58,6.251,6.251,0,0,0,2.052-1.58,7.665,7.665,0,0,0,1.356-2.36,8.361,8.361,0,0,0,.492-2.89,5.857,5.857,0,0,0-.36-2.1,4.891,4.891,0,0,0-1.008-1.63,4.51,4.51,0,0,0-1.56-1.05,5.137,5.137,0,0,0-2.04-.38,4.805,4.805,0,0,0-2.424.63,4.923,4.923,0,0,0-1.728,1.59H275.78Zm6.552,5.24a5.06,5.06,0,0,1-.888,1.66,4.331,4.331,0,0,1-1.392,1.12,3.875,3.875,0,0,1-1.8.42,3.323,3.323,0,0,1-1.356-.27,3.031,3.031,0,0,1-1.7-1.81,4.161,4.161,0,0,1-.228-1.4,5.844,5.844,0,0,1,.348-2.02,5.461,5.461,0,0,1,.96-1.67,4.613,4.613,0,0,1,1.44-1.14,3.967,3.967,0,0,1,1.764-.41,2.874,2.874,0,0,1,2.352.99,3.777,3.777,0,0,1,.816,2.46A6.66,6.66,0,0,1,282.332,6784.49Zm9.8-2.51a10.467,10.467,0,0,0-2.725.65,5.058,5.058,0,0,0-1.98,1.39,3.5,3.5,0,0,0-.768,2.36,3.078,3.078,0,0,0,.336,1.51,2.873,2.873,0,0,0,.852.97,3.56,3.56,0,0,0,1.14.52,4.9,4.9,0,0,0,5.233-1.77h0.048c-0.048.29-.084,0.57-0.108,0.86s-0.036.55-.036,0.8h2.04c0-.33.024-0.75,0.072-1.24s0.112-.98.192-1.45l0.84-4.84a5.129,5.129,0,0,0,.072-0.62c0.016-.24.024-0.44,0.024-0.59a3.483,3.483,0,0,0-.36-1.64,3.03,3.03,0,0,0-.948-1.09,4,4,0,0,0-1.344-.61,6.766,6.766,0,0,0-1.572-.19,7.4,7.4,0,0,0-2.5.44,7.283,7.283,0,0,0-2.137,1.2l0.912,1.56a6.114,6.114,0,0,1,1.585-.93,4.768,4.768,0,0,1,1.824-.38,2.929,2.929,0,0,1,1.776.47,1.776,1.776,0,0,1,.624,1.52,3.152,3.152,0,0,1-.024.38c-0.016.14-.04,0.32-0.072,0.56A27.623,27.623,0,0,0,292.129,6781.98Zm2.76,1.55-0.168.88a4.408,4.408,0,0,1-.444,1.29,4.324,4.324,0,0,1-.8,1.06,3.521,3.521,0,0,1-1.128.71,3.586,3.586,0,0,1-1.392.27,3.8,3.8,0,0,1-.756-0.08,1.757,1.757,0,0,1-.673-0.28,1.467,1.467,0,0,1-.48-0.51,1.634,1.634,0,0,1-.18-0.82,1.731,1.731,0,0,1,.528-1.31,3.449,3.449,0,0,1,1.357-.77,8.311,8.311,0,0,1,1.836-.35q1.008-.09,1.944-0.09h0.36Zm3.69,9.52a5.649,5.649,0,0,0,2.364,1.68,7.921,7.921,0,0,0,3.013.59,7.232,7.232,0,0,0,3.012-.55,5.578,5.578,0,0,0,1.992-1.48,6.547,6.547,0,0,0,1.2-2.11,15.184,15.184,0,0,0,.636-2.48l1.9-11.37h-2.16l-0.312,1.94h-0.072a3.5,3.5,0,0,0-1.488-1.66,4.644,4.644,0,0,0-2.424-.61,5.86,5.86,0,0,0-2.592.57,6.332,6.332,0,0,0-2.041,1.55,7.136,7.136,0,0,0-1.344,2.29,8.116,8.116,0,0,0-.48,2.8,6.062,6.062,0,0,0,.348,2.09,4.6,4.6,0,0,0,1,1.64,4.7,4.7,0,0,0,1.561,1.07,5.132,5.132,0,0,0,2.04.39,4.94,4.94,0,0,0,4.1-2.12h0.048l-0.288,1.59a11.051,11.051,0,0,1-.5,1.74,4.455,4.455,0,0,1-.852,1.4,3.777,3.777,0,0,1-1.332.93,4.8,4.8,0,0,1-1.92.34,4.925,4.925,0,0,1-2.245-.52,4.388,4.388,0,0,1-1.668-1.39Zm3.781-11.06a4.979,4.979,0,0,1,.9-1.61,4.187,4.187,0,0,1,1.392-1.07,4.12,4.12,0,0,1,1.8-.39,3.052,3.052,0,0,1,2.388.98,3.585,3.585,0,0,1,.876,2.47,5.808,5.808,0,0,1-.336,1.97,5.062,5.062,0,0,1-.936,1.62,4.725,4.725,0,0,1-1.416,1.11,3.823,3.823,0,0,1-1.776.42,3.294,3.294,0,0,1-1.368-.27,2.781,2.781,0,0,1-1.008-.74,3.433,3.433,0,0,1-.624-1.1,4.049,4.049,0,0,1-.217-1.35A6.138,6.138,0,0,1,302.36,6781.99Zm23.275,2.02a11.041,11.041,0,0,0,.18-1.25q0.06-.66.06-1.02a4.655,4.655,0,0,0-1.272-3.49,4.73,4.73,0,0,0-3.456-1.25,6.183,6.183,0,0,0-2.64.58,6.527,6.527,0,0,0-2.112,1.58,7.313,7.313,0,0,0-1.392,2.33,7.918,7.918,0,0,0-.5,2.82,5.928,5.928,0,0,0,.4,2.24,4.745,4.745,0,0,0,1.1,1.67,4.817,4.817,0,0,0,1.68,1.03,6.235,6.235,0,0,0,2.1.35,6.33,6.33,0,0,0,2.808-.62,6.837,6.837,0,0,0,2.3-1.82l-1.32-1.31a5.221,5.221,0,0,1-1.476,1.3,4.1,4.1,0,0,1-2.1.51,3.55,3.55,0,0,1-1.308-.24,2.982,2.982,0,0,1-1.056-.68,3.193,3.193,0,0,1-.7-1.03,3.311,3.311,0,0,1-.252-1.3v-0.19a1.089,1.089,0,0,1,.024-0.21h8.928Zm-8.688-1.72a4.974,4.974,0,0,1,.492-1.26,4.209,4.209,0,0,1,.864-1.1,4.575,4.575,0,0,1,1.188-.79,3.61,3.61,0,0,1,1.488-.3,2.569,2.569,0,0,1,2.808,2.7c0,0.12,0,.24-0.012.38s-0.02.26-.036,0.37h-6.792Zm24.3-4.96h-2.856l0.576-3.43h-2.209l-0.552,3.43h-2.136l-0.336,1.92h2.16l-1.1,6.47c-0.032.2-.056,0.4-0.072,0.61s-0.024.39-.024,0.58a2.332,2.332,0,0,0,.78,1.95,3.3,3.3,0,0,0,2.1.62,5.41,5.41,0,0,0,.972-0.09,3.7,3.7,0,0,0,.828-0.24l0.168-1.87a1.768,1.768,0,0,1-.552.21,3.082,3.082,0,0,1-.672.07,1.729,1.729,0,0,1-1-.26,1.186,1.186,0,0,1-.373-1.02,4.7,4.7,0,0,1,.072-0.76l1.081-6.27h2.808Zm8.559,11.68a6.541,6.541,0,0,0,2.148-1.61,7.342,7.342,0,0,0,1.392-2.37,8.273,8.273,0,0,0,.492-2.86,5.433,5.433,0,0,0-.4-2.11,4.659,4.659,0,0,0-1.116-1.62,5.156,5.156,0,0,0-1.7-1.06,6.023,6.023,0,0,0-2.16-.38,6.563,6.563,0,0,0-2.8.59,6.672,6.672,0,0,0-2.16,1.62,7.354,7.354,0,0,0-1.392,2.35,8.145,8.145,0,0,0-.492,2.83,5.328,5.328,0,0,0,.408,2.11,4.923,4.923,0,0,0,1.128,1.65,4.873,4.873,0,0,0,1.7,1.07,5.812,5.812,0,0,0,2.161.38A6.341,6.341,0,0,0,349.809,6789.01Zm1.452-4.6a5.313,5.313,0,0,1-.912,1.68,4.369,4.369,0,0,1-1.4,1.13,3.88,3.88,0,0,1-1.8.42,3.071,3.071,0,0,1-2.4-.97,3.615,3.615,0,0,1-.864-2.49,6.138,6.138,0,0,1,.324-2,5.321,5.321,0,0,1,.912-1.66,4.558,4.558,0,0,1,1.4-1.15,3.882,3.882,0,0,1,1.8-.43,3.327,3.327,0,0,1,1.356.27,2.865,2.865,0,0,1,1.032.73,3.255,3.255,0,0,1,.648,1.09,4.011,4.011,0,0,1,.228,1.37A6.243,6.243,0,0,1,351.261,6784.41Zm8.359-5.16,0.313-1.92h-2.161l-3.024,17.99h2.232l1.32-7.99h0.048A3.968,3.968,0,0,0,359.9,6789a4.669,4.669,0,0,0,2.412.6,5.757,5.757,0,0,0,2.58-.58,6.251,6.251,0,0,0,2.052-1.58,7.665,7.665,0,0,0,1.356-2.36,8.361,8.361,0,0,0,.492-2.89,5.857,5.857,0,0,0-.36-2.1,4.891,4.891,0,0,0-1.008-1.63,4.51,4.51,0,0,0-1.56-1.05,5.137,5.137,0,0,0-2.04-.38,4.8,4.8,0,0,0-2.424.63,4.905,4.905,0,0,0-1.728,1.59H359.62Zm6.553,5.24a5.06,5.06,0,0,1-.888,1.66,4.331,4.331,0,0,1-1.392,1.12,3.875,3.875,0,0,1-1.8.42,3.323,3.323,0,0,1-1.356-.27,3.028,3.028,0,0,1-1.705-1.81,4.186,4.186,0,0,1-.228-1.4,5.867,5.867,0,0,1,.348-2.02,5.484,5.484,0,0,1,.961-1.67,4.613,4.613,0,0,1,1.44-1.14,3.967,3.967,0,0,1,1.764-.41,2.874,2.874,0,0,1,2.352.99,3.777,3.777,0,0,1,.816,2.46A6.66,6.66,0,0,1,366.173,6784.49Z" transform="translate(-270 -6773)"/>
</svg>
