<svg xmlns="http://www.w3.org/2000/svg" width="32" height="32" viewBox="0 0 32 32">
  <defs>
    <style>
      .cls-2 {
        fill: #e60012;
        fill-rule: evenodd;
      }
    </style>
  </defs>
  <path class="cls-2" d="M91.717,73.05A11.4,11.4,0,0,0,80.457,64a13.778,13.778,0,0,0-2.307.221,11.314,11.314,0,0,0-7.328,4.766A10.929,10.929,0,0,0,69.1,77.506a22.469,22.469,0,0,0,1.989,5.388A66.486,66.486,0,0,0,77.2,92.827c0.586,0.793,1.177,1.59,1.809,2.383v0.045l0.134,0.176,0.046,0.045a1.538,1.538,0,0,0,1.223.572,1.831,1.831,0,0,0,1.357-.707c1.809-2.3,3.346-4.546,4.795-6.8A43.25,43.25,0,0,0,91.4,78.786,10.889,10.889,0,0,0,91.717,73.05ZM89.77,78.3a43.676,43.676,0,0,1-4.657,9.361c-1.4,2.207-2.94,4.37-4.657,6.622a0.044,0.044,0,0,1-.046.045l-0.046-.09a0.044,0.044,0,0,0-.046-0.045h0l-1.763-2.383a63.893,63.893,0,0,1-5.971-9.668,20.248,20.248,0,0,1-1.855-5.032,9.391,9.391,0,0,1,1.449-7.284,9.8,9.8,0,0,1,6.285-4.063,10.218,10.218,0,0,1,1.989-.176,9.756,9.756,0,0,1,9.632,7.771A9.239,9.239,0,0,1,89.77,78.3Zm-9.451-8.388a5.209,5.209,0,1,0,5.335,5.208A5.281,5.281,0,0,0,80.319,69.915Zm0,8.785a3.578,3.578,0,1,1,3.664-3.577A3.607,3.607,0,0,1,80.319,78.7Z" transform="translate(-64 -64)"/>
</svg>
