<?xml version="1.0" encoding="utf-8"?>
<!-- Generator: Adobe Illustrator 19.2.1, SVG Export Plug-In . SVG Version: 6.00 Build 0)  -->
<!DOCTYPE svg PUBLIC "-//W3C//DTD SVG 1.1//EN" "http://www.w3.org/Graphics/SVG/1.1/DTD/svg11.dtd">
<svg version="1.1" id="_02.svg" xmlns="http://www.w3.org/2000/svg" xmlns:xlink="http://www.w3.org/1999/xlink" x="0px" y="0px"
	 width="32px" height="32px" viewBox="0 0 32 32" style="enable-background:new 0 0 32 32;" xml:space="preserve">
<style type="text/css">
	.st0{fill:#E60012;}
</style>
<path class="st0" d="M26.7,15.7c-0.5,0-0.9,0.4-0.9,0.9c0,0,0,0,0,0v12.5h-6.5V24c0-0.5-0.4-0.9-0.9-0.9h-4.7
	c-0.5,0-0.9,0.4-0.9,0.9v5.1H6.2V17c0-0.5-0.4-0.9-0.9-0.9c-0.5,0-0.9,0.4-0.9,0.9v13c0,0.5,0.4,0.9,0.9,0.9h8.4
	c0.5,0,0.9-0.4,0.9-0.9v-5.1h2.9V30c0,0.5,0.4,0.9,0.9,0.9c0,0,0,0,0,0h8.4c0.5,0,0.9-0.4,0.9-0.9V16.6
	C27.6,16.1,27.2,15.7,26.7,15.7C26.7,15.7,26.7,15.7,26.7,15.7z M31.8,16.4l-7.3-7.2V4.3c0-0.5-0.4-0.9-0.9-0.9c0,0,0,0,0,0
	c-0.5,0-0.9,0.4-0.9,0.9v3.1l-6-6c-0.2-0.2-0.4-0.3-0.6-0.3c-0.2,0-0.5,0.1-0.7,0.3L0.3,16.3c-0.3,0.3-0.4,0.8-0.1,1.2
	c0,0,0,0,0.1,0.1c0.3,0.4,0.9,0.4,1.2,0c0,0,0,0,0,0L16,3.3l14.4,14.4c0.2,0.2,0.4,0.2,0.7,0.2c0.2,0,0.5-0.1,0.7-0.2
	C32.1,17.3,32.1,16.8,31.8,16.4z M26.7,15.7c-0.5,0-0.9,0.4-0.9,0.9c0,0,0,0,0,0v12.5h-6.5V24c0-0.5-0.4-0.9-0.9-0.9h-4.7
	c-0.5,0-0.9,0.4-0.9,0.9v5.1H6.2V17c0-0.5-0.4-0.9-0.9-0.9c-0.5,0-0.9,0.4-0.9,0.9v13c0,0.5,0.4,0.9,0.9,0.9h8.4
	c0.5,0,0.9-0.4,0.9-0.9v-5.1h2.9V30c0,0.5,0.4,0.9,0.9,0.9c0,0,0,0,0,0h8.4c0.5,0,0.9-0.4,0.9-0.9V16.6
	C27.6,16.1,27.2,15.7,26.7,15.7C26.7,15.7,26.7,15.7,26.7,15.7z M31.8,16.4l-7.3-7.2V4.3c0-0.5-0.4-0.9-0.9-0.9c0,0,0,0,0,0
	c-0.5,0-0.9,0.4-0.9,0.9v3.1l-6-6c-0.2-0.2-0.4-0.3-0.6-0.3c-0.2,0-0.5,0.1-0.7,0.3L0.3,16.3c-0.3,0.3-0.4,0.8-0.1,1.2
	c0,0,0,0,0.1,0.1c0.3,0.4,0.9,0.4,1.2,0c0,0,0,0,0,0L16,3.3l14.4,14.4c0.2,0.2,0.4,0.2,0.7,0.2c0.2,0,0.5-0.1,0.7-0.2
	C32.1,17.3,32.1,16.8,31.8,16.4z"/>
</svg>
