<svg xmlns="http://www.w3.org/2000/svg" width="32" height="32" viewBox="0 0 32 32">
  <defs>
    <style>
      .cls-1, .cls-2 {
        fill-rule: evenodd;
      }

      .cls-2 {
        fill: #e60012;
      }
    </style>
  </defs>
  <path class="cls-2" d="M193.183,68.515h3.4l4.836,16.507a1.176,1.176,0,0,0,1.145.82h14.863a1.19,1.19,0,0,0,1.085-.67l5.409-11.738a1.077,1.077,0,0,0-.1-1.062,1.192,1.192,0,0,0-.987-0.5H206.408a1.119,1.119,0,1,0,0,2.235h14.606l-4.382,9.5H203.447L198.611,67.1a1.175,1.175,0,0,0-1.145-.819h-4.283A1.12,1.12,0,1,0,193.183,68.515Zm8.251,25.19a2.539,2.539,0,1,0-2.685-2.534A2.615,2.615,0,0,0,201.434,93.705Zm16.777,0h0.2a2.735,2.735,0,0,0,1.835-.876,2.439,2.439,0,0,0,.652-1.844,2.646,2.646,0,0,0-2.862-2.348,2.591,2.591,0,0,0-2.487,2.7A2.63,2.63,0,0,0,218.211,93.705Z" transform="translate(-192 -64)"/>
</svg>
