<?xml version="1.0" encoding="utf-8"?>
<!-- Generator: Adobe Illustrator 19.2.1, SVG Export Plug-In . SVG Version: 6.00 Build 0)  -->
<!DOCTYPE svg PUBLIC "-//W3C//DTD SVG 1.1//EN" "http://www.w3.org/Graphics/SVG/1.1/DTD/svg11.dtd">
<svg version="1.1" id="_04.svg" xmlns="http://www.w3.org/2000/svg" xmlns:xlink="http://www.w3.org/1999/xlink" x="0px" y="0px"
	 width="32px" height="32px" viewBox="0 0 32 32" style="enable-background:new 0 0 32 32;" xml:space="preserve">
<style type="text/css">
	.st0{fill:#E60012;}
</style>
<path class="st0" d="M16,0C7.2,0,0,7.2,0,16s7.2,16,16,16s16-7.2,16-16S24.9,0,16,0L16,0z M19.3,19.6
	c1.3-1,3.2-0.7,4.1,0.6c1,1.3,0.7,3.2-0.6,4.1c-1.3,1-3.2,0.7-4.1-0.6c-0.4-0.5-0.6-1.1-0.6-1.8l0,0l-7.5-3.6
	c-1.4,0.9-3.2,0.5-4.1-0.9c-0.9-1.4-0.5-3.2,0.9-4.1c1.1-0.7,2.4-0.6,3.4,0.2l7.3-3.5l0,0c0-1.6,1.3-3,3-3c1.6,0,3,1.3,3,3
	c0,1.6-1.3,3-3,3c-0.6,0-1.3-0.2-1.8-0.6L12,15.9l0,0.1L19.3,19.6z"/>
</svg>
