<svg xmlns="http://www.w3.org/2000/svg" width="32" height="32" viewBox="0 0 32 32">
  <defs>
    <style>
      .cls-1, .cls-2 {
        fill-rule: evenodd;
      }

      .cls-2 {
        fill: #e60012;
      }
    </style>
  </defs>
  <path class="cls-2" d="M351.919,76.649a2.3,2.3,0,0,0-1.846-1.5l-8.335-1.232-3.623-7.479a2.346,2.346,0,0,0-4.188,0L330.3,73.913l-8.336,1.232a2.3,2.3,0,0,0-1.843,1.5,2.189,2.189,0,0,0,.537,2.274l6.108,6.064L325.354,93.4a2.208,2.208,0,0,0,.949,2.193,2.374,2.374,0,0,0,2.452.13l7.266-3.89,7.268,3.89a2.372,2.372,0,0,0,2.451-.13,2.212,2.212,0,0,0,.949-2.193l-1.418-8.412,6.11-6.064A2.194,2.194,0,0,0,351.919,76.649Zm-8.3,6.775a2.2,2.2,0,0,0-.628,1.925l1.418,8.412-7.267-3.888a2.376,2.376,0,0,0-2.238,0l-7.267,3.888,1.417-8.412a2.192,2.192,0,0,0-.627-1.925l-6.108-6.064,8.335-1.234a2.308,2.308,0,0,0,1.744-1.262l3.625-7.478,3.624,7.479a2.313,2.313,0,0,0,1.743,1.262l8.337,1.234Z" transform="translate(-320 -64)"/>
</svg>
