<?xml version="1.0" encoding="utf-8"?>
<!-- Generator: Adobe Illustrator 19.2.1, SVG Export Plug-In . SVG Version: 6.00 Build 0)  -->
<!DOCTYPE svg PUBLIC "-//W3C//DTD SVG 1.1//EN" "http://www.w3.org/Graphics/SVG/1.1/DTD/svg11.dtd">
<svg version="1.1" id="_06.svg" xmlns="http://www.w3.org/2000/svg" xmlns:xlink="http://www.w3.org/1999/xlink" x="0px" y="0px"
	 width="32px" height="32px" viewBox="0 0 32 32" style="enable-background:new 0 0 32 32;" xml:space="preserve">
<style type="text/css">
	.st0{fill:#E60012;}
</style>
<path class="st0" d="M10.2,21.3C5.8,16.5,6.1,9,11,4.5s12.4-4.1,16.8,0.8c4.4,4.8,4.1,12.4-0.8,16.8
	c-2.2,2-5.1,3.1-8,3.1c-2.6,0-5.1-0.8-7.1-2.4l-8.9,9c-0.2,0.2-0.5,0.3-0.8,0.3c-0.3,0-0.6-0.1-0.8-0.3c-0.4-0.4-0.4-1.1,0-1.5
	L10.2,21.3z M28.7,13.1c-0.1-5.4-4.5-9.7-9.9-9.7C13.5,3.5,9.1,8,9.2,13.3C9.3,18.7,13.6,23,19,23C24.4,23,28.7,18.6,28.7,13.1
	L28.7,13.1z"/>
</svg>
