<svg xmlns="http://www.w3.org/2000/svg" width="32" height="32" viewBox="0 0 32 32">
  <defs>
    <style>
      .cls-1, .cls-2 {
        fill-rule: evenodd;
      }

      .cls-2 {
        fill: #e60012;
      }
    </style>
  </defs>
  <path class="cls-2" d="M478,68.009H449.99a2,2,0,0,0-2,2v20a2,2,0,0,0,2,2H478a2,2,0,0,0,2-2v-20A2,2,0,0,0,478,68.009ZM459.355,82.064L464,85.221l4.619-3.18,7.968,7.969H451.405l7.95-7.946h0ZM449.99,88.6V75.7l7.679,5.218Zm20.3-7.708,7.71-5.3V88.6ZM478,70.009v3.237l-0.043-.061L463.992,82.8l-14-9.515V70.009H478Z" transform="translate(-448 -64)"/>
</svg>
