<svg xmlns="http://www.w3.org/2000/svg" width="32" height="32" viewBox="0 0 32 32">
  <defs>
    <style>
      .cls-2 {
        fill: #e60012;
        fill-rule: evenodd;
      }
    </style>
  </defs>
  <path class="cls-2" d="M542.926,68.991H513.089A1.057,1.057,0,0,0,512,70.018V89.965a1.057,1.057,0,0,0,1.086,1.026h29.837a1.057,1.057,0,0,0,1.086-1.026V70.018A1.057,1.057,0,0,0,542.926,68.991Zm-1.085,19.948H514.174v-17.9h27.667v17.9ZM517.018,75.877l10.42,6.07a1.14,1.14,0,0,0,1.139,0L539,75.877a0.994,0.994,0,0,0,.354-1.412,1.121,1.121,0,0,0-1.493-.335l-9.85,5.737-9.851-5.737a1.121,1.121,0,0,0-1.493.335A0.994,0.994,0,0,0,517.018,75.877Z" transform="translate(-512 -64)"/>
</svg>
