<svg xmlns="http://www.w3.org/2000/svg" width="32" height="32" viewBox="0 0 32 32">
  <defs>
    <style>
      .cls-1, .cls-2 {
        fill-rule: evenodd;
      }

      .cls-2 {
        fill: #e60012;
      }
    </style>
  </defs>
  <path class="cls-2" d="M155.013,157.2l-1.1-8.884a5.95,5.95,0,0,0-5.864-5.3h-8.091a5.95,5.95,0,0,0-5.864,5.3l-1.1,8.9a2.612,2.612,0,0,0,.511,1.875,2.272,2.272,0,0,0,1.589.9h17.815a2.28,2.28,0,0,0,1.589-.9A2.624,2.624,0,0,0,155.013,157.2Zm-11.007-29.21a6.5,6.5,0,1,1-6.3,6.5A6.4,6.4,0,0,1,144.006,127.993Z" transform="translate(-128 -128)"/>
</svg>
