<svg xmlns="http://www.w3.org/2000/svg" width="32" height="32" viewBox="0 0 32 32">
  <defs>
    <style>
      .cls-1, .cls-2 {
        fill-rule: evenodd;
      }

      .cls-2 {
        fill: #e60012;
      }
    </style>
  </defs>
  <path class="cls-2" d="M224.017,153.276a1.549,1.549,0,0,1-.475,1.357l-4.508,4.473a2.542,2.542,0,0,1-.8.576,3.253,3.253,0,0,1-.966.305c-0.022,0-.09.006-0.2,0.018s-0.26.017-.441,0.017a14.959,14.959,0,0,1-5.61-1.306,29.6,29.6,0,0,1-4.729-2.592,35.3,35.3,0,0,1-5.627-4.745,37.189,37.189,0,0,1-3.932-4.474,31.882,31.882,0,0,1-2.509-3.949,21.336,21.336,0,0,1-1.423-3.287,17.415,17.415,0,0,1-.645-2.543,8.432,8.432,0,0,1-.135-1.678q0.034-.609.034-0.678a3.3,3.3,0,0,1,.305-0.965,2.53,2.53,0,0,1,.576-0.8l4.509-4.508a1.493,1.493,0,0,1,1.084-.474,1.262,1.262,0,0,1,.78.254,2.349,2.349,0,0,1,.576.626l3.627,6.881a1.649,1.649,0,0,1,.17,1.186,2.114,2.114,0,0,1-.576,1.085l-1.661,1.66a0.563,0.563,0,0,0-.119.221,0.839,0.839,0,0,0-.051.254,6.164,6.164,0,0,0,.61,1.628,14.977,14.977,0,0,0,1.255,1.982,22.1,22.1,0,0,0,2.406,2.695,22.462,22.462,0,0,0,2.712,2.423,15.549,15.549,0,0,0,1.983,1.271,5.31,5.31,0,0,0,1.221.492l0.423,0.084a0.8,0.8,0,0,0,.221-0.05,0.571,0.571,0,0,0,.22-0.119l1.932-1.965a2.072,2.072,0,0,1,1.424-.543,1.778,1.778,0,0,1,.915.2h0.034l6.542,3.865A1.7,1.7,0,0,1,224.017,153.276Z" transform="translate(-192.031 -128)"/>
</svg>
