<svg xmlns="http://www.w3.org/2000/svg" width="32" height="32" viewBox="0 0 32 32">
  <defs>
    <style>
      .cls-1, .cls-2 {
        fill-rule: evenodd;
      }

      .cls-2 {
        fill: #e60012;
      }
    </style>
  </defs>
  <path class="cls-2" d="M272.014,128.025a16,16,0,1,0,16,16A16,16,0,0,0,272.014,128.025Zm0,26.211a2.216,2.216,0,0,1,0-4.427A2.216,2.216,0,0,1,272.014,154.236Zm0.829-8.453c-0.319,1.086-1.322,1.107-1.657,0a40,40,0,0,1-1.754-9.253c0-4.146,5.187-4.167,5.187,0C274.618,139.69,273.175,144.654,272.843,145.783Z" transform="translate(-256.031 -128)"/>
</svg>
