<svg xmlns="http://www.w3.org/2000/svg" width="32" height="32" viewBox="0 0 32 32">
  <defs>
    <style>
      .cls-1, .cls-2 {
        fill-rule: evenodd;
      }

      .cls-2 {
        fill: #e60012;
      }
    </style>
  </defs>
  <path class="cls-2" d="M342.815,160.023H329.249a2.336,2.336,0,0,1-2.346-2.329V130.353a2.337,2.337,0,0,1,2.346-2.33h13.566a2.337,2.337,0,0,1,2.345,2.33v27.341A2.337,2.337,0,0,1,342.815,160.023Zm-6.782-2.3a1.487,1.487,0,1,0-1.5-1.489A1.494,1.494,0,0,0,336.033,157.723Zm7.37-25.767H328.662v20.672H343.4V131.956Z" transform="translate(-320.031 -128)"/>
</svg>
