<?xml version="1.0" encoding="utf-8"?>
<!-- Generator: Adobe Illustrator 19.2.1, SVG Export Plug-In . SVG Version: 6.00 Build 0)  -->
<!DOCTYPE svg PUBLIC "-//W3C//DTD SVG 1.1//EN" "http://www.w3.org/Graphics/SVG/1.1/DTD/svg11.dtd">
<svg version="1.1" id="_16.svg" xmlns="http://www.w3.org/2000/svg" xmlns:xlink="http://www.w3.org/1999/xlink" x="0px" y="0px"
	 width="32px" height="32px" viewBox="0 0 32 32" style="enable-background:new 0 0 32 32;" xml:space="preserve">
<style type="text/css">
	.st0{fill:#E60012;}
</style>
<path class="st0" d="M31.7,9.8c-0.2-1.1-0.6-2.2-1.3-3.1c-0.9-0.8-2-1.3-3.2-1.3C22.7,5,16,5,16,5h0c0,0-6.7,0-11.2,0.3
	c-1.2,0-2.3,0.5-3.2,1.3c-0.7,0.9-1.1,2-1.3,3.1C0.1,11.4,0,13.1,0,14.8v2.4c0,1.7,0.1,3.4,0.3,5.1c0.2,1.1,0.6,2.2,1.3,3.1
	c1,0.8,2.2,1.3,3.5,1.3C7.7,26.9,16,27,16,27s6.7,0,11.2-0.3c1.2,0,2.3-0.5,3.2-1.3c0.7-0.9,1.1-2,1.3-3.1c0.2-1.7,0.3-3.4,0.3-5.1
	v-2.4C32,13.1,31.9,11.4,31.7,9.8z M12.7,20.1L12.7,20.1l0-8.8l8.6,4.4L12.7,20.1z"/>
</svg>
