<svg xmlns="http://www.w3.org/2000/svg" width="32" height="32" viewBox="0 0 32 32">
  <defs>
    <style>
      .cls-2 {
        fill-rule: evenodd;
        fill: #999;
      }
    </style>
  </defs>
  <path class="cls-2" d="M461.5,268.331c0.548-1.653,1.317-2.355,2.616-2.355a1.952,1.952,0,0,1,2.122,2.07,2.635,2.635,0,0,1-.4,1.424,7.262,7.262,0,0,1-1.207,1.406,6.785,6.785,0,0,0-1.262,1.557,4.653,4.653,0,0,0-.494,2.222v1.064h1.866v-1.007c0-1.007.31-1.519,1.737-2.849a8.013,8.013,0,0,0,1.5-1.614,3.984,3.984,0,0,0,.641-2.222c0-2.431-1.756-3.988-4.5-3.988a4.561,4.561,0,0,0-3.129,1.063,5.118,5.118,0,0,0-1.518,2.355Zm2.359,8.7a1.5,1.5,0,1,0,1.446,1.5A1.465,1.465,0,0,0,463.862,277.029Z" transform="translate(-448.031 -256.031)"/>
</svg>
