<svg xmlns="http://www.w3.org/2000/svg" width="33" height="33" viewBox="0 0 33 33">
  <defs>
    <style>
      .cls-1 {
        fill: #e5e5e5;
      }

      .cls-1, .cls-2, .cls-3 {
        fill-rule: evenodd;
      }

      .cls-2 {
        fill: #fff;
        stroke: #d7d7d7;
        stroke-width: 1px;
      }

      .cls-3 {
        fill: #999;
      }
    </style>
  </defs>
  <path class="cls-2" d="M512.01,272a16,16,0,1,0,16-16A16.015,16.015,0,0,0,512.01,272Zm1.279,0a14.717,14.717,0,1,1,14.717,14.717A14.733,14.733,0,0,1,513.289,272Z" transform="translate(-511.5 -255.5)"/>
  <path class="cls-3" d="M525.588,268.539c0.561-1.628,1.347-2.321,2.676-2.321a1.963,1.963,0,0,1,2.171,2.04,2.53,2.53,0,0,1-.412,1.4,7.248,7.248,0,0,1-1.235,1.385,6.735,6.735,0,0,0-1.291,1.534,4.453,4.453,0,0,0-.506,2.19v1.048H528.9v-0.992c0-.992.318-1.5,1.778-2.807a8.073,8.073,0,0,0,1.535-1.591,3.827,3.827,0,0,0,.655-2.19c0-2.395-1.8-3.929-4.6-3.929a4.778,4.778,0,0,0-3.2,1.047,5.024,5.024,0,0,0-1.553,2.321ZM528,277.11a1.479,1.479,0,1,0,1.478,1.478A1.469,1.469,0,0,0,528,277.11Z" transform="translate(-511.5 -255.5)"/>
</svg>
