<?xml version="1.0" encoding="utf-8"?>
<!-- Generator: Adobe Illustrator 19.2.1, SVG Export Plug-In . SVG Version: 6.00 Build 0)  -->
<!DOCTYPE svg PUBLIC "-//W3C//DTD SVG 1.1//EN" "http://www.w3.org/Graphics/SVG/1.1/DTD/svg11.dtd">
<svg version="1.1" id="_39.svg" xmlns="http://www.w3.org/2000/svg" xmlns:xlink="http://www.w3.org/1999/xlink" x="0px" y="0px"
	 width="33px" height="32px" viewBox="0 0 33 32" style="enable-background:new 0 0 33 32;" xml:space="preserve">
<style type="text/css">
	.st0{fill:#E60012;}
</style>
<path class="st0" d="M16.4,31C8.9,31,2.8,25.4,2.8,18.4c0-0.8,0.1-1.7,0.3-2.6C3,15.7,3,15.6,3,15.4C1.1,14.2,0,12.2,0,9.9l0-0.1
	C0,6.1,2.9,3,6.6,3l1,0v0.1c2,0.3,3.8,1.4,4.8,3.2c2.7-0.5,5.5-0.5,8.1,0c1.2-2,3.3-3.3,5.6-3.3l1,0v0.1c1.4,0.2,2.7,0.8,3.8,1.8
	c1.3,1.3,2,2.9,2.1,4.8c0,2.5-1.2,4.7-3.2,5.9c0,0.1-0.1,0.2-0.1,0.2c0.2,0.9,0.3,1.8,0.3,2.6C30,25.4,23.9,31,16.4,31z M6.3,5
	C3.9,5.2,2,7.3,2,9.8l0,0.1c0,1.7,0.9,3.2,2.4,4l0.4,0.2l0.1,0.5c0,0.2,0.1,0.5,0.2,0.8l0.1,0.3L5.1,16c-0.2,0.8-0.3,1.6-0.3,2.4
	C4.8,24.3,10,29,16.4,29C22.8,29,28,24.3,28,18.5c0-0.8-0.1-1.6-0.3-2.4l-0.1-0.3l0.1-0.3c0.1-0.2,0.2-0.5,0.2-0.7l0.1-0.5l0.4-0.2
	c1.6-0.8,2.6-2.5,2.6-4.3l0,0c0-1.3-0.5-2.5-1.4-3.4C28.7,5.5,27.5,5,26.2,5l-0.3,0c-1.7,0.1-3.3,1.2-4,2.8l-0.3,0.8l-0.8-0.2
	c-2.8-0.6-5.9-0.7-8.8,0l-0.8,0.2L11,7.8C10.2,6.1,8.4,5,6.6,5L6.3,5z"/>
</svg>
