<svg id="_40.svg" data-name="40.svg" xmlns="http://www.w3.org/2000/svg" width="32" height="32" viewBox="0 0 32 32">
  <defs>
    <style>
      .cls-1 {
        fill: #e5e5e5;
      }

      .cls-1, .cls-2 {
        fill-rule: evenodd;
      }

      .cls-2 {
        fill: #e60012;
      }
    </style>
  </defs>
  <path id="シェイプ_6" data-name="シェイプ 6" class="cls-2" d="M80,320a16,16,0,1,0,16,16A16.018,16.018,0,0,0,80,320Zm-0.247,26.175a1.893,1.893,0,1,1,1.893-1.893A1.881,1.881,0,0,1,79.753,346.175Zm5.391-12.339a10.318,10.318,0,0,1-1.965,2.037C81.31,337.55,80.9,338.2,80.9,339.467v1.269H78.459V339.4a5.7,5.7,0,0,1,.647-2.8,8.651,8.651,0,0,1,1.653-1.965,9.25,9.25,0,0,0,1.581-1.773,3.234,3.234,0,0,0,.527-1.8,2.514,2.514,0,0,0-2.779-2.612c-1.7,0-2.707.887-3.426,2.971l-2.66-1.1a6.439,6.439,0,0,1,1.989-2.971,6.119,6.119,0,0,1,4.1-1.341c3.594,0,5.894,1.964,5.894,5.031A4.895,4.895,0,0,1,85.144,333.836Z" transform="translate(-64 -320)"/>
</svg>
