<?xml version="1.0" encoding="utf-8"?>
<!-- Generator: Adobe Illustrator 19.2.1, SVG Export Plug-In . SVG Version: 6.00 Build 0)  -->
<!DOCTYPE svg PUBLIC "-//W3C//DTD SVG 1.1//EN" "http://www.w3.org/Graphics/SVG/1.1/DTD/svg11.dtd">
<svg version="1.1" id="レイヤー_1" xmlns="http://www.w3.org/2000/svg" xmlns:xlink="http://www.w3.org/1999/xlink" x="0px"
	 y="0px" width="32px" height="32px" viewBox="0 0 32 32" style="enable-background:new 0 0 32 32;" xml:space="preserve">
<style type="text/css">
	.st0{fill:#E71F19;}
</style>
<g>
	<path class="st0" d="M30,6h-4.1v6.1H6.1V6H2C0.9,6,0,6.9,0,8v17.3c0,1.1,0.9,2,2,2h4.1v-4.6h19.8v4.6H30c1.1,0,2-0.9,2-2V8
		C32,6.9,31.1,6,30,6z M29,18.2h-3v-3h3V18.2z"/>
	<path class="st0" d="M24.4,3v7.6H7.6V3H24.4z"/>
	<rect x="7.6" y="24.3" class="st0" width="16.8" height="4.6"/>
	<rect x="7.6" y="3" class="st0" width="16.8" height="7.6"/>
</g>
</svg>
