<svg xmlns="http://www.w3.org/2000/svg" width="32" height="32" viewBox="0 0 32 32">
  <defs>
    <style>
      .cls-1, .cls-2 {
        fill-rule: evenodd;
      }

      .cls-2 {
        fill: #e60012;
      }
    </style>
  </defs>
  <path class="cls-2" d="M402.379,274.789h-4.774v0.8h4.774v-0.8Zm0,1.588h-4.774v0.8h4.774v-0.8ZM384,256.008V288h31.992V256.008H384Zm12.813,10.031h6.366v3.977h-6.366v-3.977Zm6.366,11.931h-6.366v-3.977h6.366v3.977Zm3.181-3.977a1.714,1.714,0,0,1-1.593,1.593h-0.8V273.2h-7.953v2.39h-0.792a1.714,1.714,0,0,1-1.593-1.593v-3.977a1.714,1.714,0,0,1,1.593-1.593h0.792v2.389h7.953v-2.389h0.8a1.714,1.714,0,0,1,1.593,1.593v3.977Z" transform="translate(-384 -256)"/>
</svg>
