<svg xmlns="http://www.w3.org/2000/svg" width="32" height="32" viewBox="0 0 32 32">
  <defs>
    <style>
      .cls-1, .cls-2 {
        fill-rule: evenodd;
      }

      .cls-2 {
        fill: #dc4e41;
      }
    </style>
  </defs>
  <path class="cls-2" d="M191.985,256.008V288h32.029V256.008H191.985Zm12.824,21.573a5.577,5.577,0,1,1,0-11.154,5.352,5.352,0,0,1,3.741,1.459l-1.515,1.457a3.147,3.147,0,0,0-2.226-.86,3.522,3.522,0,0,0,0,7.043,3.015,3.015,0,0,0,3.167-2.406h-3.167v-1.912h5.273a5.2,5.2,0,0,1,.087.924A5.146,5.146,0,0,1,204.809,277.581Zm11.964-4.78h-1.595V274.4h-1.595V272.8h-1.595v-1.593h1.595v-1.594h1.595v1.594h1.595V272.8Z" transform="translate(-192 -256)"/>
</svg>
