<svg xmlns="http://www.w3.org/2000/svg" width="32" height="32" viewBox="0 0 32 32">
  <defs>
    <style>
      .cls-1, .cls-2 {
        fill-rule: evenodd;
      }

      .cls-2 {
        fill: #00c300;
      }
    </style>
  </defs>
  <path class="cls-2" d="M288,256.008H256V288h32V256.008h0Zm-7.6,20.042h0a34.471,34.471,0,0,1-8.4,6.207c-1.141.481-.972-0.306-0.926-0.576,0.028-.161.152-0.915,0.152-0.915a2.179,2.179,0,0,0-.034-0.967,1.326,1.326,0,0,0-.942-0.527c-5.138-.679-8.942-4.271-8.942-8.559,0-4.783,4.8-8.675,10.692-8.675s10.693,3.892,10.693,8.675A7.715,7.715,0,0,1,280.4,276.05Zm-12.585-2.491h-2.125a0.562,0.562,0,0,1-.561-0.561V268.75a0.561,0.561,0,0,1,1.122,0v3.687h1.564A0.561,0.561,0,0,1,267.817,273.559Zm2.2-.561a0.561,0.561,0,1,1-1.121,0V268.75a0.561,0.561,0,0,1,1.121,0V273Zm5.114,0a0.559,0.559,0,0,1-.383.532,0.572,0.572,0,0,1-.178.029,0.565,0.565,0,0,1-.448-0.224l-2.177-2.965V273a0.561,0.561,0,1,1-1.122,0V268.75a0.559,0.559,0,0,1,.383-0.531,0.544,0.544,0,0,1,.178-0.029,0.561,0.561,0,0,1,.448.224l2.178,2.964V268.75a0.561,0.561,0,0,1,1.121,0V273Zm3.438-2.684a0.561,0.561,0,1,1,0,1.121H277v1h1.563a0.561,0.561,0,0,1,0,1.122h-2.125a0.562,0.562,0,0,1-.56-0.561v-2.124h0V268.75a0.56,0.56,0,0,1,.56-0.56h2.125a0.561,0.561,0,1,1,0,1.121H277v1h1.563Z" transform="translate(-256 -256)"/>
</svg>
