<svg xmlns="http://www.w3.org/2000/svg" width="32" height="32" viewBox="0 0 32 32">
  <defs>
    <style>
      .cls-1, .cls-2 {
        fill-rule: evenodd;
      }

      .cls-2 {
        fill: #999;
      }
    </style>
  </defs>
  <path class="cls-2" d="M320.013,256.008V288h31.993V256.008H320.013Zm10.616,10.616h10.76a1.773,1.773,0,0,1,.855.226l-6.235,5.456-6.234-5.456A1.766,1.766,0,0,1,330.629,266.624Zm-1.793,8.967v-7.173a1.785,1.785,0,0,1,.279-0.953l4.481,3.919-4.53,5.07A1.776,1.776,0,0,1,328.836,275.591Zm12.553,1.793h-10.76a1.781,1.781,0,0,1-.946-0.275l4.588-5.133,1.443,1.263a0.451,0.451,0,0,0,.59,0l1.444-1.263,4.587,5.133A1.775,1.775,0,0,1,341.389,277.384Zm1.794-1.793a1.776,1.776,0,0,1-.231.863l-4.529-5.069,4.48-3.92a1.777,1.777,0,0,1,.28.953v7.173Z" transform="translate(-320 -256)"/>
</svg>
