<svg xmlns="http://www.w3.org/2000/svg" width="32" height="32" viewBox="0 0 32 32">
  <defs>
    <style>
      .cls-1, .cls-2 {
        fill-rule: evenodd;
      }

      .cls-2 {
        fill: #55acee;
      }
    </style>
  </defs>
  <path class="cls-2" d="M64.025,256.039v31.993H96.018V256.039H64.025ZM86,268.969q0.009,0.2.009,0.4A8.774,8.774,0,0,1,72.5,276.76a6.384,6.384,0,0,0,.736.043,6.192,6.192,0,0,0,3.831-1.321,3.088,3.088,0,0,1-2.882-2.142,3.1,3.1,0,0,0,1.393-.053,3.087,3.087,0,0,1-2.474-3.025c0-.013,0-0.026,0-0.039a3.073,3.073,0,0,0,1.4.386,3.088,3.088,0,0,1-.955-4.118,8.76,8.76,0,0,0,6.358,3.223,3.087,3.087,0,0,1,5.257-2.814,6.157,6.157,0,0,0,1.959-.749,3.093,3.093,0,0,1-1.356,1.707,6.129,6.129,0,0,0,1.772-.486A6.265,6.265,0,0,1,86,268.969Z" transform="translate(-64.031 -256.031)"/>
</svg>
